<?xml version="1.0" encoding="UTF-8" standalone="no"?>
<svg width="11px" height="11px" viewBox="0 0 11 11" version="1.1" xmlns="http://www.w3.org/2000/svg" xmlns:xlink="http://www.w3.org/1999/xlink">
    <!-- Generator: Sketch 43.1 (39012) - http://www.bohemiancoding.com/sketch -->
    <title>Circle</title>
    <desc>Created with Sketch.</desc>
    <defs></defs>
    <g id="Damir" stroke="none" stroke-width="1" fill="none" fill-rule="evenodd">
        <g id="Professional-Profile-Edit-Mobile" transform="translate(-124.000000, -348.000000)" fill="#46F61A">
            <g id="Profile" transform="translate(-179.000000, 51.000000)">
                <g id="Profile-Info" transform="translate(200.000000, 109.000000)">
                    <g id="IT-developer" transform="translate(103.000000, 165.000000)">
                        <g id="Group-8" transform="translate(0.000000, 23.000000)">
                            <g id="Circle">
                                <path d="M1.62140564,5.45386471 C1.62140564,3.33841373 3.34699538,1.61723725 5.4678706,1.61723725 L5.4678706,2.15686268e-05 C2.45284581,2.15686268e-05 4.32478628e-05,2.44655098 4.32478628e-05,5.45386471 C4.32478628e-05,8.46117843 2.45284581,10.9077078 5.4678706,10.9077078 L5.4678706,9.29049216 C3.34699538,9.29049216 1.62140564,7.56931569 1.62140564,5.45386471" id="Fill-12"></path>
                                <path d="M5.46776248,7.12996275 L5.46776248,3.77776667 C4.53966333,3.77776667 3.78736675,4.52813922 3.78736675,5.45386471 C3.78736675,6.3795902 4.53966333,7.12996275 5.46776248,7.12996275 Z" id="Fill-13"></path>
                                <path d="M9.31424906,5.45386471 C9.31424906,7.56931569 7.58865932,9.29049216 5.4677841,9.29049216 L5.4677841,10.9077078 C8.48280889,10.9077078 10.9356115,8.46117843 10.9356115,5.45386471 C10.9356115,2.44655098 8.48280889,2.15686268e-05 5.4677841,2.15686268e-05 L5.4677841,1.61723725 C7.58865932,1.61723725 9.31424906,3.33841373 9.31424906,5.45386471" id="Fill-14"></path>
                                <path d="M7.14828795,5.45388627 C7.14828795,4.52816078 6.39599137,3.77778824 5.46789222,3.77778824 L5.46789222,7.12998431 C6.39599137,7.12998431 7.14828795,6.37961176 7.14828795,5.45388627" id="Fill-15"></path>
                            </g>
                        </g>
                    </g>
                </g>
            </g>
        </g>
    </g>
</svg>