<?xml version="1.0" encoding="UTF-8" standalone="no"?>
<svg width="7px" height="10px" viewBox="0 0 7 10" version="1.1" xmlns="http://www.w3.org/2000/svg" xmlns:xlink="http://www.w3.org/1999/xlink">
    <!-- Generator: Sketch 43.1 (39012) - http://www.bohemiancoding.com/sketch -->
    <title>Location</title>
    <desc>Created with Sketch.</desc>
    <defs></defs>
    <g id="Damir" stroke="none" stroke-width="1" fill="none" fill-rule="evenodd">
        <g id="Professional-Profile-Edit-Mobile" transform="translate(-131.000000, -289.000000)" fill="#46F61A">
            <g id="Profile" transform="translate(-179.000000, 51.000000)">
                <g id="Profile-Info" transform="translate(200.000000, 109.000000)">
                    <g id="Miami,-FL" transform="translate(110.000000, 129.000000)">
                        <path d="M5.78606529,1.025682 C5.14583789,0.364798539 4.2948524,4.54747351e-13 3.38974141,4.54747351e-13 C2.48352581,4.54747351e-13 1.63276124,0.364798539 0.992312921,1.025682 C-0.191599653,2.24997146 -0.339174499,4.55244835 0.673966584,5.94795115 L3.38974141,10 L6.10021414,5.95342997 C7.11777363,4.55244835 6.97019879,2.24997146 5.78606529,1.025682 Z M3.42067027,4.74854469 C2.73824706,4.74854469 2.18329495,4.17509417 2.18329495,3.46992352 C2.18329495,2.76543774 2.73824706,2.19198722 3.42067027,2.19198722 C4.10243071,2.19198722 4.65738282,2.76543774 4.65738282,3.46992352 C4.65738282,4.17509417 4.10243071,4.74854469 3.42067027,4.74854469 Z" id="Location"></path>
                    </g>
                </g>
            </g>
        </g>
    </g>
</svg>