<svg width="320" height="158" viewBox="0 0 320 158" version="1.1" xmlns="http://www.w3.org/2000/svg" xmlns:xlink="http://www.w3.org/1999/xlink">
<title>Rectangle 2</title>
<desc>Created using Figma</desc>
<g id="Canvas" transform="translate(-5622 -814)">
<rect x="5622" y="814" width="320" height="158" fill="#FFFFFF"/>
<clipPath id="clip-0" clip-rule="evenodd">
<path d="M 5622 763L 5942 763L 5942 1661L 5622 1661L 5622 763Z" fill="#FFFFFF"/>
</clipPath>
<g id="Small Screen Copy 3" clip-path="url(#clip-0)">
<g id="Rectangle Copy 2">
<use xlink:href="#path0_fill" transform="translate(5622 763)" fill="#F9F9F9"/>
</g>
<g id="Rectangle" filter="url(#filter0_d)">
<use xlink:href="#path1_fill" transform="translate(5616 814.812)" fill="#FFFFFF"/>
</g>
<g id="Rectangle 2">
<use xlink:href="#path2_fill" transform="translate(5617 814)" fill="url(#paint2_linear)"/>
</g>
<g id="Fill 1" opacity="0.738573">
<use xlink:href="#path3_fill" transform="translate(5823.64 829.42)" fill="#FFFFFF"/>
</g>
<g id="Fill 1" opacity="0.738573">
<use xlink:href="#path4_fill" transform="translate(5692.76 837.797)" fill="#FFFFFF"/>
</g>
<g id="Fill 1" opacity="0.738573">
<use xlink:href="#path5_fill" transform="translate(5727.94 915.159)" fill="#FFFFFF"/>
</g>
<g id="- connecting and nav">
<use xlink:href="#path6_fill" transform="translate(5715.49 876.638)" fill="#FFFFFF"/>
</g>
<g id="Group 2">
<g id="Page 1">
<g id="Fill 1">
<use xlink:href="#path7_fill" transform="translate(5670.18 880.993)" fill="#FFFFFF"/>
</g>
<g id="Fill 3">
<use xlink:href="#path8_fill" transform="translate(5676.51 878.911)" fill="#FFFFFF"/>
</g>
<g id="Fill 5">
<use xlink:href="#path9_fill" transform="translate(5683.91 881.136)" fill="#FFFFFF"/>
</g>
<mask id="mask0_outline" mask-type="alpha">
<g id="Clip 8">
<use xlink:href="#path10_fill" transform="translate(5649.31 875.012)" fill="#FFFFFF"/>
</g>
</mask>
<g id="Fill 7" mask="url(#mask0_outline)">
<use xlink:href="#path11_fill" transform="translate(5690.78 878.734)" fill="#FFFFFF"/>
</g>
<g id="Fill 9" mask="url(#mask0_outline)">
<use xlink:href="#path12_fill" transform="translate(5694.1 878.911)" fill="#FFFFFF"/>
</g>
<g id="Fill 10" mask="url(#mask0_outline)">
<use xlink:href="#path13_fill" transform="translate(5701.22 878.911)" fill="#FFFFFF"/>
</g>
<g id="Fill 11" mask="url(#mask0_outline)">
<use xlink:href="#path7_fill" transform="translate(5704.37 880.993)" fill="#FFFFFF"/>
</g>
</g>
<g id="Group">
<g id="Fill 12">
<use xlink:href="#path14_fill" transform="translate(5655.93 878.332)" fill="#FFFFFF"/>
</g>
<g id="Fill 13">
<use xlink:href="#path15_fill" transform="translate(5659.57 881.981)" fill="#FFFFFF"/>
</g>
<g id="Fill 14" opacity="0.355819">
<use xlink:href="#path16_fill" transform="translate(5661.19 878.332)" fill="#FFFFFF"/>
</g>
<g id="Fill 15" opacity="0.355819">
<use xlink:href="#path17_fill" transform="translate(5661.19 881.981)" fill="#FFFFFF"/>
</g>
</g>
</g>
<g id="Page 1" opacity="0.738573">
<g id="Group 3">
<mask id="mask1_outline" mask-type="alpha">
<g id="Clip 2">
<use xlink:href="#path18_fill" transform="translate(5661.2 916.186)" fill="#FFFFFF"/>
</g>
</mask>
<g id="Fill 1" mask="url(#mask1_outline)">
<use xlink:href="#path19_fill" transform="translate(5661.2 916.186)" fill="#FFFFFF"/>
</g>
</g>
<g id="Fill 4">
<use xlink:href="#path20_fill" transform="translate(5665.4 932.317)" fill="#FFFFFF"/>
</g>
<g id="Fill 6">
<use xlink:href="#path21_fill" transform="translate(5665.07 917.173)" fill="#FFFFFF"/>
</g>
<g id="Fill 8">
<use xlink:href="#path22_fill" transform="translate(5667.33 917.173)" fill="#FFFFFF"/>
</g>
<g id="Group 12">
<mask id="mask2_outline" mask-type="alpha">
<g id="Clip 11">
<use xlink:href="#path23_fill" transform="translate(5674.73 917.596)" fill="#FFFFFF"/>
</g>
</mask>
<g id="Fill 10" mask="url(#mask2_outline)">
<use xlink:href="#path24_fill" transform="translate(5674.73 917.596)" fill="#FFFFFF"/>
</g>
</g>
<g id="Fill 13">
<use xlink:href="#path25_fill" transform="translate(5673.37 918.345)" fill="#FFFFFF"/>
</g>
<g id="Group 17">
<mask id="mask3_outline" mask-type="alpha">
<g id="Clip 16">
<use xlink:href="#path26_fill" transform="translate(5657 917.596)" fill="#FFFFFF"/>
</g>
</mask>
<g id="Fill 15" mask="url(#mask3_outline)">
<use xlink:href="#path27_fill" transform="translate(5657 917.596)" fill="#FFFFFF"/>
</g>
</g>
<g id="Fill 18">
<use xlink:href="#path28_fill" transform="translate(5658.64 918.253)" fill="#FFFFFF"/>
</g>
</g>
<g id="Page 1" opacity="0.738573">
<g id="Fill 1">
<use xlink:href="#path29_fill" transform="translate(5895.48 919.926)" fill="#FFFFFF"/>
</g>
<g id="Fill 3">
<use xlink:href="#path30_fill" transform="translate(5895.48 917.762)" fill="#FFFFFF"/>
</g>
<g id="Fill 5">
<use xlink:href="#path31_fill" transform="translate(5895.48 922.089)" fill="#FFFFFF"/>
</g>
<g id="Fill 7">
<use xlink:href="#path32_fill" transform="translate(5895.48 924.255)" fill="#FFFFFF"/>
</g>
<g id="Fill 9">
<use xlink:href="#path33_fill" transform="translate(5895.48 926.419)" fill="#FFFFFF"/>
</g>
<g id="Group 13">
<mask id="mask4_outline" mask-type="alpha">
<g id="Clip 12">
<use xlink:href="#path34_fill" transform="translate(5892 913.162)" fill="#FFFFFF"/>
</g>
</mask>
<g id="Fill 11" mask="url(#mask4_outline)">
<use xlink:href="#path35_fill" transform="translate(5892 913.162)" fill="#FFFFFF"/>
</g>
</g>
</g>
</g>
</g>
<defs>
<filter id="filter0_d" filterUnits="userSpaceOnUse" x="5622" y="814" width="320" height="389" color-interpolation-filters="sRGB">
<feFlood flood-opacity="0" result="BackgroundImageFix"/>
<feColorMatrix in="SourceAlpha" type="matrix" values="0 0 0 0 0 0 0 0 0 0 0 0 0 0 0 0 0 0 255 0"/>
<feOffset dx="0" dy="2"/>
<feGaussianBlur stdDeviation="1"/>
<feColorMatrix type="matrix" values="0 0 0 0 0 0 0 0 0 0 0 0 0 0 0 0 0 0 0.122849 0"/>
<feBlend mode="normal" in2="BackgroundImageFix" result="effect1_dropShadow"/>
<feBlend mode="normal" in="SourceGraphic" in2="effect1_dropShadow" result="shape"/>
</filter>
<linearGradient id="paint2_linear" x1="0" y1="0" x2="1" y2="0" gradientUnits="userSpaceOnUse" gradientTransform="matrix(233.584 0 0 107.247 1.04961e-14 78.7029)">
<stop offset="0" stop-color="#8D55E6"/>
<stop offset="1" stop-color="#AD8EE0"/>
</linearGradient>
<path id="path0_fill" fill-rule="evenodd" d="M 0 0L 320 0L 320 1053L 0 1053L 0 0Z"/>
<path id="path1_fill" fill-rule="evenodd" d="M 0 4C 0 1.79086 1.79086 0 4 0L 324 0C 326.209 0 328 1.79086 328 4L 328 380.188C 328 382.398 326.209 384.188 324 384.188L 4 384.188C 1.79086 384.188 0 382.398 0 380.188L 0 4Z"/>
<path id="path2_fill" fill-rule="evenodd" d="M 0 4C 0 1.79086 1.79086 0 4 0L 338.83 0C 341.039 0 342.83 1.79086 342.83 4L 342.83 157.406L 0 157.406L 0 4Z"/>
<path id="path3_fill" fill-rule="evenodd" d="M 13.0363 12.7191L 12.9327 12.8295L 12.8193 12.7289C 12.3381 12.3001 11.8057 11.934 11.2377 11.6399L 11.124 11.5813L 11.1596 11.4584C 11.4569 10.4298 11.629 9.25482 11.6573 8.05963L 11.6609 7.90753L 15.0243 7.90753L 15.0159 8.07111C 14.9275 9.80185 14.2243 11.4525 13.0363 12.7191ZM 12.5153 13.2177C 11.7012 13.933 10.7226 14.4638 9.68513 14.7532L 9.10986 14.9137L 9.53396 14.493C 9.90236 14.1272 10.2402 13.6429 10.5378 13.053C 10.6775 12.7796 10.8121 12.4678 10.9381 12.1253L 11.0003 11.9572L 11.1579 12.0421C 11.643 12.3031 12.0996 12.6199 12.5153 12.9835L 12.6485 13.1006L 12.5153 13.2177ZM 7.90625 14.9546L 7.90625 11.1841L 8.06973 11.1923C 8.91793 11.2351 9.7373 11.4183 10.5054 11.7371L 10.6423 11.7939L 10.5922 11.9334C 10.4693 12.2754 10.333 12.5956 10.1869 12.8852C 9.60489 14.0364 8.88182 14.7372 8.09549 14.9123L 7.90625 14.9546ZM 7.90332 7.90753L 11.2628 7.90753L 11.2592 8.06691C 11.2331 9.19488 11.0811 10.2651 10.8076 11.248L 10.7609 11.4158L 10.5996 11.3508C 9.78784 11.0237 8.9304 10.8374 8.05169 10.7968L 7.90332 10.7898L 7.90332 7.90753ZM 7.90332 4.65615L 8.05169 4.64914C 8.92648 4.60881 9.78476 4.42142 10.603 4.09202L 10.7645 4.02704L 10.811 4.19482C 11.0803 5.16817 11.2301 6.23171 11.2561 7.3566L 11.2597 7.51598L 7.90332 7.51598L 7.90332 4.65615ZM 7.90332 0.46582L 8.09284 0.507835C 8.87861 0.682899 9.60168 1.38399 10.1837 2.53521C 10.3373 2.8394 10.4762 3.16627 10.596 3.50744L 10.645 3.64637L 10.5087 3.70295C 9.73129 4.02394 8.90968 4.20825 8.0668 4.25054L 7.90332 4.25895L 7.90332 0.46582ZM 9.68241 0.667172C 10.7243 0.959318 11.7072 1.49347 12.5249 2.21249L 12.6578 2.32901L 12.5254 2.44609C 12.117 2.80658 11.6582 3.12562 11.1616 3.39395L 11.0023 3.47995L 10.9413 3.30964C 10.8223 2.97716 10.6854 2.65925 10.5351 2.36458C 10.2386 1.77777 9.90104 1.2946 9.53097 0.927666L 9.10547 0.505554L 9.68241 0.667172ZM 12.9393 2.60327L 13.0432 2.71419C 14.2262 3.97885 14.9246 5.62528 15.0097 7.3493L 15.0178 7.5126L 11.6547 7.5126L 11.6511 7.36079C 11.6228 6.16756 11.4529 4.99869 11.1598 3.98081L 11.1245 3.85784L 11.2382 3.7993C 11.8008 3.50996 12.3352 3.14163 12.826 2.70439L 12.9393 2.60327ZM 7.51169 4.25895L 7.34849 4.25054C 6.50169 4.20797 5.68009 4.02366 4.90607 3.70267L 4.77002 3.64637L 4.81901 3.50744C 4.93966 3.16487 5.07851 2.83772 5.23135 2.53521C 5.81333 1.38399 6.5364 0.682899 7.32246 0.507835L 7.51169 0.46582L 7.51169 4.25895ZM 7.51163 10.7903L 7.3627 10.7968C 6.48427 10.8343 5.62711 11.0206 4.81586 11.3505L 4.65434 11.4164L 4.60731 11.248C 4.33353 10.2651 4.18153 9.19488 4.15549 8.06691L 4.15186 7.90753L 7.51163 7.90753L 7.51163 10.7903ZM 7.51147 14.9546L 7.32223 14.9123C 6.53618 14.7372 5.81311 14.0364 5.23112 12.8852C 5.08332 12.593 4.95063 12.2818 4.8255 11.9334L 4.77539 11.7939L 4.91228 11.7371C 5.68966 11.4147 6.50902 11.2315 7.34855 11.1923L 7.51147 11.1847L 7.51147 14.9546ZM 5.73215 14.756C 4.69527 14.4638 3.71718 13.933 2.90285 13.221L 2.76904 13.1037L 2.90285 12.9866C 3.31827 12.623 3.77485 12.3065 4.26025 12.0454L 4.41786 11.9606L 4.47972 12.1286C 4.60541 12.4706 4.74006 12.7824 4.87947 13.0555C 5.17508 13.6406 5.51296 14.1249 5.88443 14.4963L 6.30573 14.9176L 5.73215 14.756ZM 2.48843 12.8297L 2.38458 12.7194C 1.19318 11.4525 0.489982 9.80185 0.404602 8.07083L 0.396484 7.90753L 3.75989 7.90753L 3.76353 8.05963C 3.79153 9.25426 3.96369 10.4298 4.26098 11.4584L 4.29681 11.5813L 4.18315 11.6399C 3.60761 11.9376 3.07518 12.304 2.60153 12.7286L 2.48843 12.8297ZM 0.404602 7.3493C 0.489982 5.62528 1.18842 3.97885 2.37142 2.71419L 2.475 2.60327L 2.58837 2.70439C 3.0707 3.13406 3.60537 3.50268 4.177 3.79958L 4.28981 3.8584L 4.25482 3.98053C 3.95837 5.01466 3.78845 6.18324 3.76353 7.36023L 3.76017 7.5126L 0.396484 7.5126L 0.404602 7.3493ZM 4.64392 4.02338L 4.80572 4.08892C 5.61697 4.41888 6.47497 4.60515 7.35592 4.64268L 7.50485 4.64912L 7.50485 7.35714L 7.35256 7.35714L 7.35256 7.51259L 4.14844 7.51259L 4.15236 7.3535C 4.17811 6.22833 4.32788 5.16451 4.59717 4.19172L 4.64392 4.02338ZM 2.88988 2.21249C 3.70728 1.49347 4.69013 0.959318 5.73205 0.667172L 6.30899 0.505554L 5.88377 0.927386C 5.51678 1.29152 5.1789 1.77497 4.87965 2.36458C 4.7324 2.65925 4.59552 2.97801 4.47318 3.31077L 4.41132 3.47911L 4.25316 3.39395C 3.76495 3.1301 3.30614 2.81135 2.88988 2.44637L 2.75635 2.32957L 2.88988 2.21249ZM 13.153 2.25957C 11.7001 0.802489 9.76579 0 7.70575 0C 5.64571 0 3.71137 0.802489 2.25851 2.25957C 0.802011 3.71974 0 5.65552 0 7.71006C 0 9.77104 0.802011 11.7068 2.25823 13.1605C 3.71753 14.6179 5.65215 15.4204 7.70575 15.4204C 9.7655 15.4204 11.6999 14.6179 13.153 13.1608C 14.6092 11.7007 15.4112 9.76488 15.4112 7.71006C 15.4112 5.64908 14.6092 3.71358 13.153 2.25957Z"/>
<path id="path4_fill" fill-rule="evenodd" d="M 15.5363 4.80066L 8.53334 4.16799C 8.42676 4.15748 8.33991 4.23592 8.33068 4.33718C 8.32146 4.43972 8.39729 4.53047 8.49977 4.5397L 14.9011 5.11828L 8.51668 8.31267L 0.604004 4.35384L 8.51668 0.39502L 16.4294 4.35384L 15.5363 4.80066ZM 16.1527 9.28557C 16.1527 9.60395 15.8939 9.86312 15.5757 9.86312C 15.2573 9.86312 14.9985 9.60395 14.9985 9.28557C 14.9985 8.96846 15.2563 8.70955 15.5732 8.70801L 15.5755 8.70801C 15.895 8.70955 16.1527 8.96846 16.1527 9.28557ZM 16.2195 12.2759L 14.9321 12.2759L 15.576 10.5768L 16.2195 12.2759ZM 13.7022 8.82667C 13.7022 9.46114 13.1662 10.0928 12.2316 10.5604C 11.2425 11.0554 9.92303 11.3279 8.51651 11.3279C 7.10998 11.3279 5.79056 11.0554 4.80138 10.5604C 3.86677 10.0928 3.33105 9.46114 3.33105 8.82667L 3.33105 6.1355L 8.43298 8.68824C 8.48448 8.71413 8.54827 8.71413 8.60003 8.68824L 13.7022 6.1355L 13.7022 8.82667ZM 16.9301 4.18646L 8.60006 0.0192263C 8.54831 -0.00640877 8.48477 -0.00640877 8.43302 0.0192263L 0.102992 4.18672C 0.0397107 4.21851 0 4.2826 0 4.35386C 0 4.42487 0.0394545 4.4887 0.102992 4.52049L 2.95781 5.94887L 2.95781 8.82667C 2.95781 10.4386 5.39963 11.7011 8.51654 11.7011C 11.6337 11.7011 14.0755 10.4386 14.0755 8.82667L 14.0755 5.94887L 15.3891 5.29159L 15.3891 8.34447L 15.2702 8.38523C 14.8843 8.51648 14.6253 8.87845 14.6253 9.28554C 14.6253 9.64981 14.8385 9.98691 15.1682 10.1446L 15.314 10.214L 14.4872 12.3964C 14.4655 12.4538 14.4734 12.5179 14.5082 12.5684C 14.5433 12.6191 14.6007 12.6494 14.6617 12.6494L 16.4897 12.6494C 16.5509 12.6494 16.6083 12.6191 16.6431 12.5686C 16.6782 12.5181 16.6859 12.4538 16.6642 12.3964L 15.8377 10.214L 15.9834 10.1446C 16.3132 9.98666 16.5263 9.64981 16.5263 9.28554C 16.5263 8.87845 16.267 8.51674 15.8812 8.38523L 15.7623 8.34447L 15.7623 5.10497L 16.9303 4.52075C 16.9936 4.48896 17.0333 4.42487 17.0333 4.35386C 17.0333 4.2826 16.9936 4.21851 16.9301 4.18646Z"/>
<path id="path5_fill" fill-rule="evenodd" d="M 13.7496 2.31133L 13.1069 1.66824L 14.3996 0.374878L 15.0423 1.01797L 13.7496 2.31133ZM 4.57134 12.1806L 3.2417 10.8503L 3.35313 10.739L 12.543 1.54517L 13.8726 2.87535L 4.57134 12.1806ZM 3.8997 12.8522C 3.31516 13.4373 2.62693 13.8835 1.8539 14.1785L 0.868164 14.555L 1.24444 13.5688C 1.53921 12.7959 1.98524 12.1074 2.57021 11.5223L 3.02139 11.0708L 4.35089 12.4011L 3.8997 12.8522ZM 14.5098 0.04417C 14.4505 -0.0148665 14.348 -0.01458 14.2893 0.04417L 12.8863 1.44772L 12.6531 1.21444C 12.6237 1.18507 12.5845 1.16873 12.543 1.16873C 12.5013 1.16873 12.4622 1.18507 12.4327 1.21444L 2.34946 11.3017C 1.73355 11.918 1.26375 12.6433 0.952932 13.4578L 0.523661 14.5832C 0.518075 14.5978 0.514924 14.6137 0.514065 14.6312L 0.51077 14.6918L 0.0455482 15.1571C -0.0151827 15.218 -0.0151827 15.3169 0.0455482 15.3778C 0.10456 15.4365 0.207116 15.4365 0.266128 15.3778L 0.731207 14.9124L 0.791651 14.9092C 0.808982 14.9085 0.825311 14.905 0.840064 14.8995L 1.96488 14.47C 2.77859 14.1593 3.50378 13.6893 4.12011 13.0728L 13.1514 4.03773L 13.2147 4.31644C 13.2926 4.66106 13.0847 5.15298 12.6972 5.54059L 10.0401 8.19881C 9.97936 8.25956 9.97936 8.35858 10.0402 8.41933C 10.099 8.47823 10.2015 8.47808 10.2607 8.41933L 12.9178 5.76111C 13.2139 5.46478 13.4221 5.113 13.5042 4.77053C 13.5781 4.46174 13.5409 4.17816 13.3993 3.97211L 13.325 3.86406L 14.203 2.98568C 14.2325 2.95616 14.2487 2.91704 14.2487 2.87534C 14.2487 2.83379 14.2325 2.79453 14.2032 2.76515L 13.97 2.53187L 15.373 1.12832C 15.4337 1.06742 15.4337 0.96855 15.3728 0.907651L 14.5098 0.04417Z"/>
<path id="path6_fill" d="M 0.891 7.151L 3.916 7.151L 3.916 6.656L 0.891 6.656L 0.891 7.151ZM 11.4861 8.944C 11.1451 9.384 10.5731 9.67 9.83606 9.67C 8.69206 9.67 7.82306 8.669 7.82306 7.47C 7.82306 6.271 8.65906 5.27 9.83606 5.27C 10.5731 5.27 11.0571 5.545 11.3981 5.985L 11.7721 5.699C 11.3321 5.138 10.7271 4.808 9.83606 4.808C 8.38406 4.808 7.29506 5.963 7.29506 7.47C 7.29506 8.977 8.36206 10.132 9.83606 10.132C 10.7161 10.132 11.4091 9.769 11.8381 9.252L 11.4861 8.944ZM 15.0368 10.132C 16.4778 10.132 17.6438 8.933 17.6438 7.47C 17.6438 6.007 16.4778 4.808 15.0368 4.808C 13.5958 4.808 12.4298 6.007 12.4298 7.47C 12.4298 8.933 13.5958 10.132 15.0368 10.132ZM 15.0368 9.681C 13.8818 9.681 12.9468 8.658 12.9468 7.47C 12.9468 6.249 13.8488 5.259 15.0368 5.259C 16.1918 5.259 17.1268 6.282 17.1268 7.47C 17.1268 8.691 16.2248 9.681 15.0368 9.681ZM 18.9353 10L 19.4303 10L 19.4303 7.393C 19.4303 6.436 20.0353 5.27 21.3113 5.27C 22.2793 5.27 22.8183 5.688 22.8183 7.195L 22.8183 10L 23.3133 10L 23.3133 7.03C 23.3133 5.666 22.8183 4.808 21.3773 4.808C 20.2223 4.808 19.6503 5.545 19.4083 5.996C 19.4083 5.435 19.4083 5.259 19.3753 4.94L 18.9133 4.94C 18.9463 5.27 18.9353 5.446 18.9353 6.007L 18.9353 10ZM 24.8113 10L 25.3063 10L 25.3063 7.393C 25.3063 6.436 25.9113 5.27 27.1873 5.27C 28.1553 5.27 28.6943 5.688 28.6943 7.195L 28.6943 10L 29.1893 10L 29.1893 7.03C 29.1893 5.666 28.6943 4.808 27.2533 4.808C 26.0983 4.808 25.5263 5.545 25.2843 5.996C 25.2843 5.435 25.2843 5.259 25.2513 4.94L 24.7893 4.94C 24.8223 5.27 24.8113 5.446 24.8113 6.007L 24.8113 10ZM 34.7022 8.944C 34.3503 9.384 33.6242 9.67 32.9972 9.67C 31.8092 9.67 30.9952 8.757 30.9623 7.602L 35.2743 7.602C 35.2743 5.787 34.2402 4.808 32.8543 4.808C 31.4132 4.808 30.4123 6.007 30.4123 7.47C 30.4123 9.054 31.4902 10.132 32.9972 10.132C 33.7892 10.132 34.6143 9.802 35.0542 9.241L 34.7022 8.944ZM 30.9733 7.173C 31.0282 6.117 31.7763 5.27 32.8543 5.27C 33.9102 5.27 34.6032 5.93 34.7353 7.173L 30.9733 7.173ZM 40.4792 8.944C 40.1382 9.384 39.5662 9.67 38.8292 9.67C 37.6852 9.67 36.8162 8.669 36.8162 7.47C 36.8162 6.271 37.6522 5.27 38.8292 5.27C 39.5662 5.27 40.0502 5.545 40.3912 5.985L 40.7652 5.699C 40.3252 5.138 39.7202 4.808 38.8292 4.808C 37.3772 4.808 36.2882 5.963 36.2882 7.47C 36.2882 8.977 37.3552 10.132 38.8292 10.132C 39.7092 10.132 40.4022 9.769 40.8312 9.252L 40.4792 8.944ZM 42.4385 8.449C 42.4385 9.802 42.9885 10.132 43.7915 10.132C 44.3965 10.132 44.7265 9.923 45.0235 9.538L 44.7155 9.241C 44.4515 9.56 44.2095 9.681 43.8465 9.681C 43.3185 9.681 42.9335 9.527 42.9335 8.328L 42.9335 5.402L 44.6055 5.402L 44.6055 4.94L 42.9335 4.94L 42.9335 3.268L 42.4385 3.268L 42.4385 4.94L 41.4265 4.94L 41.4265 5.402L 42.4385 5.402L 42.4385 8.449ZM 45.8207 3.873L 46.5137 3.873L 46.5137 3.158L 45.8207 3.158L 45.8207 3.873ZM 45.9197 10L 46.4147 10L 46.4147 4.94L 45.9197 4.94L 45.9197 10ZM 47.9714 10L 48.4664 10L 48.4664 7.393C 48.4664 6.436 49.0714 5.27 50.3474 5.27C 51.3154 5.27 51.8544 5.688 51.8544 7.195L 51.8544 10L 52.3494 10L 52.3494 7.03C 52.3494 5.666 51.8544 4.808 50.4134 4.808C 49.2584 4.808 48.6864 5.545 48.4444 5.996C 48.4444 5.435 48.4444 5.259 48.4114 4.94L 47.9494 4.94C 47.9824 5.27 47.9714 5.446 47.9714 6.007L 47.9714 10ZM 57.7194 8.042C 57.7194 8.548 57.1804 9.67 55.9044 9.67C 54.5954 9.67 54.1004 8.658 54.1004 7.525C 54.1004 6.073 55.1454 5.27 56.3664 5.27C 56.7954 5.27 57.1254 5.336 57.3564 5.391C 57.4884 5.424 57.6094 5.457 57.7194 5.501L 57.7194 8.042ZM 53.9904 11.749C 54.2324 11.958 54.8264 12.332 55.7944 12.332C 57.5214 12.332 58.2034 11.397 58.2034 9.89L 58.2034 5.16C 57.8074 4.984 57.1144 4.808 56.3774 4.808C 54.7934 4.808 53.5724 5.875 53.5724 7.514C 53.5724 8.977 54.2984 10.132 55.8494 10.132C 56.4984 10.132 56.9494 9.901 57.2574 9.648C 57.4444 9.505 57.5874 9.34 57.7084 9.153L 57.7084 9.923C 57.7084 11.023 57.2794 11.859 55.8164 11.859C 54.9914 11.859 54.5074 11.562 54.2764 11.375L 53.9904 11.749ZM 65.1097 8.13C 65.1097 8.9 64.2957 9.681 63.2947 9.681C 62.5357 9.681 61.9857 9.362 61.9857 8.625C 61.9857 8.119 62.1507 7.283 63.6467 7.283C 64.3617 7.283 64.8017 7.338 65.1097 7.415L 65.1097 8.13ZM 65.6267 10L 65.6047 9.692C 65.5937 9.505 65.5937 9.241 65.5937 8.944L 65.5937 6.612C 65.5937 5.325 64.8567 4.808 63.5477 4.808C 62.6567 4.808 62.0077 5.182 61.7327 5.446L 61.9967 5.787C 62.2607 5.567 62.7227 5.259 63.5587 5.259C 64.5597 5.259 65.0987 5.578 65.0987 6.689L 65.0987 6.975C 64.7577 6.92 64.2737 6.865 63.6577 6.865C 62.0737 6.865 61.4577 7.646 61.4577 8.625C 61.4577 9.824 62.3927 10.132 63.2397 10.132C 63.8117 10.132 64.6037 9.923 65.1317 9.153C 65.1317 9.428 65.1317 9.637 65.1427 9.78C 65.1427 9.857 65.1427 9.934 65.1537 10L 65.6267 10ZM 67.1248 10L 67.6197 10L 67.6197 7.393C 67.6197 6.436 68.2248 5.27 69.5008 5.27C 70.4688 5.27 71.0077 5.688 71.0077 7.195L 71.0077 10L 71.5028 10L 71.5028 7.03C 71.5028 5.666 71.0077 4.808 69.5668 4.808C 68.4117 4.808 67.8398 5.545 67.5978 5.996C 67.5978 5.435 67.5978 5.259 67.5648 4.94L 67.1027 4.94C 67.1357 5.27 67.1248 5.446 67.1248 6.007L 67.1248 10ZM 77.3787 10C 77.3677 9.912 77.3677 9.813 77.3677 9.692C 77.3567 9.505 77.3567 9.241 77.3567 8.944L 77.3567 2.663L 76.8727 2.663L 76.8727 5.292C 76.7297 5.204 76.5757 5.127 76.4107 5.05C 76.1137 4.929 75.7617 4.808 75.3327 4.808C 73.8037 4.808 72.7257 5.875 72.7257 7.514C 72.7257 8.977 73.4517 10.132 75.0027 10.132C 75.6627 10.132 76.1247 9.879 76.4327 9.626C 76.6197 9.483 76.7627 9.307 76.8727 9.12C 76.8727 9.329 76.8727 9.549 76.8837 9.714C 76.8837 9.813 76.8837 9.901 76.8947 10L 77.3787 10ZM 76.8727 8.042C 76.8727 8.625 76.2897 9.67 75.0577 9.67C 73.7487 9.67 73.2537 8.658 73.2537 7.525C 73.2537 5.93 74.2767 5.27 75.3217 5.27C 75.8387 5.27 76.2347 5.413 76.4877 5.556C 76.6307 5.633 76.7627 5.732 76.8727 5.831L 76.8727 8.042ZM 80.907 10L 81.402 10L 81.402 7.393C 81.402 6.436 82.007 5.27 83.283 5.27C 84.251 5.27 84.79 5.688 84.79 7.195L 84.79 10L 85.285 10L 85.285 7.03C 85.285 5.666 84.79 4.808 83.349 4.808C 82.194 4.808 81.622 5.545 81.38 5.996C 81.38 5.435 81.38 5.259 81.347 4.94L 80.885 4.94C 80.918 5.27 80.907 5.446 80.907 6.007L 80.907 10ZM 90.182 8.13C 90.182 8.9 89.368 9.681 88.367 9.681C 87.608 9.681 87.058 9.362 87.058 8.625C 87.058 8.119 87.223 7.283 88.719 7.283C 89.434 7.283 89.874 7.338 90.182 7.415L 90.182 8.13ZM 90.699 10L 90.677 9.692C 90.666 9.505 90.666 9.241 90.666 8.944L 90.666 6.612C 90.666 5.325 89.929 4.808 88.62 4.808C 87.729 4.808 87.08 5.182 86.805 5.446L 87.069 5.787C 87.333 5.567 87.795 5.259 88.631 5.259C 89.632 5.259 90.171 5.578 90.171 6.689L 90.171 6.975C 89.83 6.92 89.346 6.865 88.73 6.865C 87.146 6.865 86.53 7.646 86.53 8.625C 86.53 9.824 87.465 10.132 88.312 10.132C 88.884 10.132 89.676 9.923 90.204 9.153C 90.204 9.428 90.204 9.637 90.215 9.78C 90.215 9.857 90.215 9.934 90.226 10L 90.699 10ZM 93.5222 10L 93.9842 10L 96.1842 4.94L 95.6672 4.94L 93.7752 9.395L 91.8722 4.94L 91.3112 4.94L 93.5222 10ZM 96.975 3.873L 97.668 3.873L 97.668 3.158L 96.975 3.158L 96.975 3.873ZM 97.074 10L 97.569 10L 97.569 4.94L 97.074 4.94L 97.074 10ZM 102.998 8.042C 102.998 8.548 102.459 9.67 101.183 9.67C 99.8737 9.67 99.3787 8.658 99.3787 7.525C 99.3787 6.073 100.424 5.27 101.645 5.27C 102.074 5.27 102.404 5.336 102.635 5.391C 102.767 5.424 102.888 5.457 102.998 5.501L 102.998 8.042ZM 99.2687 11.749C 99.5107 11.958 100.105 12.332 101.073 12.332C 102.8 12.332 103.482 11.397 103.482 9.89L 103.482 5.16C 103.086 4.984 102.393 4.808 101.656 4.808C 100.072 4.808 98.8507 5.875 98.8507 7.514C 98.8507 8.977 99.5767 10.132 101.128 10.132C 101.777 10.132 102.228 9.901 102.536 9.648C 102.723 9.505 102.866 9.34 102.987 9.153L 102.987 9.923C 102.987 11.023 102.558 11.859 101.095 11.859C 100.27 11.859 99.7857 11.562 99.5547 11.375L 99.2687 11.749ZM 108.401 8.13C 108.401 8.9 107.587 9.681 106.586 9.681C 105.827 9.681 105.277 9.362 105.277 8.625C 105.277 8.119 105.442 7.283 106.938 7.283C 107.653 7.283 108.093 7.338 108.401 7.415L 108.401 8.13ZM 108.918 10L 108.896 9.692C 108.885 9.505 108.885 9.241 108.885 8.944L 108.885 6.612C 108.885 5.325 108.148 4.808 106.839 4.808C 105.948 4.808 105.299 5.182 105.024 5.446L 105.288 5.787C 105.552 5.567 106.014 5.259 106.85 5.259C 107.851 5.259 108.39 5.578 108.39 6.689L 108.39 6.975C 108.049 6.92 107.565 6.865 106.949 6.865C 105.365 6.865 104.749 7.646 104.749 8.625C 104.749 9.824 105.684 10.132 106.531 10.132C 107.103 10.132 107.895 9.923 108.423 9.153C 108.423 9.428 108.423 9.637 108.434 9.78C 108.434 9.857 108.434 9.934 108.445 10L 108.918 10ZM 110.845 8.449C 110.845 9.802 111.395 10.132 112.198 10.132C 112.803 10.132 113.133 9.923 113.43 9.538L 113.122 9.241C 112.858 9.56 112.616 9.681 112.253 9.681C 111.725 9.681 111.34 9.527 111.34 8.328L 111.34 5.402L 113.012 5.402L 113.012 4.94L 111.34 4.94L 111.34 3.268L 110.845 3.268L 110.845 4.94L 109.833 4.94L 109.833 5.402L 110.845 5.402L 110.845 8.449ZM 114.227 3.873L 114.92 3.873L 114.92 3.158L 114.227 3.158L 114.227 3.873ZM 114.326 10L 114.821 10L 114.821 4.94L 114.326 4.94L 114.326 10ZM 116.378 10L 116.873 10L 116.873 7.393C 116.873 6.436 117.478 5.27 118.754 5.27C 119.722 5.27 120.261 5.688 120.261 7.195L 120.261 10L 120.756 10L 120.756 7.03C 120.756 5.666 120.261 4.808 118.82 4.808C 117.665 4.808 117.093 5.545 116.851 5.996C 116.851 5.435 116.851 5.259 116.818 4.94L 116.356 4.94C 116.389 5.27 116.378 5.446 116.378 6.007L 116.378 10ZM 126.126 8.042C 126.126 8.548 125.587 9.67 124.311 9.67C 123.002 9.67 122.507 8.658 122.507 7.525C 122.507 6.073 123.552 5.27 124.773 5.27C 125.202 5.27 125.532 5.336 125.763 5.391C 125.895 5.424 126.016 5.457 126.126 5.501L 126.126 8.042ZM 122.397 11.749C 122.639 11.958 123.233 12.332 124.201 12.332C 125.928 12.332 126.61 11.397 126.61 9.89L 126.61 5.16C 126.214 4.984 125.521 4.808 124.784 4.808C 123.2 4.808 121.979 5.875 121.979 7.514C 121.979 8.977 122.705 10.132 124.256 10.132C 124.905 10.132 125.356 9.901 125.664 9.648C 125.851 9.505 125.994 9.34 126.115 9.153L 126.115 9.923C 126.115 11.023 125.686 11.859 124.223 11.859C 123.398 11.859 122.914 11.562 122.683 11.375L 122.397 11.749ZM 130.018 3.873L 130.711 3.873L 130.711 3.158L 130.018 3.158L 130.018 3.873ZM 130.117 10L 130.612 10L 130.612 4.94L 130.117 4.94L 130.117 10ZM 132.169 10L 132.664 10L 132.664 7.393C 132.664 6.436 133.269 5.27 134.545 5.27C 135.513 5.27 136.052 5.688 136.052 7.195L 136.052 10L 136.547 10L 136.547 7.03C 136.547 5.666 136.052 4.808 134.611 4.808C 133.456 4.808 132.884 5.545 132.642 5.996C 132.642 5.435 132.642 5.259 132.609 4.94L 132.147 4.94C 132.18 5.27 132.169 5.446 132.169 6.007L 132.169 10ZM 138.474 8.449C 138.474 9.802 139.024 10.132 139.827 10.132C 140.432 10.132 140.762 9.923 141.059 9.538L 140.751 9.241C 140.487 9.56 140.245 9.681 139.882 9.681C 139.354 9.681 138.969 9.527 138.969 8.328L 138.969 5.402L 140.641 5.402L 140.641 4.94L 138.969 4.94L 138.969 3.268L 138.474 3.268L 138.474 4.94L 137.462 4.94L 137.462 5.402L 138.474 5.402L 138.474 8.449ZM 145.97 8.944C 145.618 9.384 144.892 9.67 144.265 9.67C 143.077 9.67 142.263 8.757 142.23 7.602L 146.542 7.602C 146.542 5.787 145.508 4.808 144.122 4.808C 142.681 4.808 141.68 6.007 141.68 7.47C 141.68 9.054 142.758 10.132 144.265 10.132C 145.057 10.132 145.882 9.802 146.322 9.241L 145.97 8.944ZM 142.241 7.173C 142.296 6.117 143.044 5.27 144.122 5.27C 145.178 5.27 145.871 5.93 146.003 7.173L 142.241 7.173ZM 147.809 10L 148.304 10L 148.304 2.663L 147.809 2.663L 147.809 10ZM 149.818 10L 150.313 10L 150.313 2.663L 149.818 2.663L 149.818 10ZM 155.863 8.944C 155.511 9.384 154.785 9.67 154.158 9.67C 152.97 9.67 152.156 8.757 152.123 7.602L 156.435 7.602C 156.435 5.787 155.401 4.808 154.015 4.808C 152.574 4.808 151.573 6.007 151.573 7.47C 151.573 9.054 152.651 10.132 154.158 10.132C 154.95 10.132 155.775 9.802 156.215 9.241L 155.863 8.944ZM 152.134 7.173C 152.189 6.117 152.937 5.27 154.015 5.27C 155.071 5.27 155.764 5.93 155.896 7.173L 152.134 7.173ZM 161.64 8.944C 161.299 9.384 160.727 9.67 159.99 9.67C 158.846 9.67 157.977 8.669 157.977 7.47C 157.977 6.271 158.813 5.27 159.99 5.27C 160.727 5.27 161.211 5.545 161.552 5.985L 161.926 5.699C 161.486 5.138 160.881 4.808 159.99 4.808C 158.538 4.808 157.449 5.963 157.449 7.47C 157.449 8.977 158.516 10.132 159.99 10.132C 160.87 10.132 161.563 9.769 161.992 9.252L 161.64 8.944ZM 163.6 8.449C 163.6 9.802 164.15 10.132 164.953 10.132C 165.558 10.132 165.888 9.923 166.185 9.538L 165.877 9.241C 165.613 9.56 165.371 9.681 165.008 9.681C 164.48 9.681 164.095 9.527 164.095 8.328L 164.095 5.402L 165.767 5.402L 165.767 4.94L 164.095 4.94L 164.095 3.268L 163.6 3.268L 163.6 4.94L 162.588 4.94L 162.588 5.402L 163.6 5.402L 163.6 8.449ZM 166.751 9.362C 167.224 9.835 167.862 10.132 168.819 10.132C 169.798 10.132 170.832 9.67 170.832 8.658C 170.832 7.668 169.886 7.382 169.061 7.206C 168.291 7.03 167.488 6.865 167.488 6.205C 167.488 5.424 168.203 5.259 168.852 5.259C 169.501 5.259 169.941 5.512 170.293 5.897L 170.634 5.589C 170.249 5.138 169.633 4.808 168.841 4.808C 167.873 4.808 166.982 5.259 166.982 6.183C 166.982 7.107 167.642 7.393 168.577 7.602C 169.699 7.866 170.293 7.976 170.293 8.724C 170.293 9.362 169.6 9.67 168.775 9.67C 168.027 9.67 167.499 9.439 167.07 9.01L 166.751 9.362Z"/>
<path id="path7_fill" fill-rule="evenodd" d="M 3.9697 2.3355C 3.94806 1.76 3.52734 1.22852 2.80832 1.22852C 2.07849 1.22852 1.61414 1.70448 1.54785 2.3355L 3.9697 2.3355ZM 0 2.90015C 0 1.29486 1.1279 0 2.87538 0C 4.54507 0 5.50691 1.35038 5.50691 2.92216L 5.50691 3.33177L 1.54794 3.33177C 1.714 4.11783 2.45499 4.4831 3.39485 4.4831C 4.0584 4.4831 4.66682 4.28371 5.16398 3.99596L 5.16398 5.24681C 4.71079 5.58974 3.91467 5.81147 3.06274 5.81147C 1.39305 5.81147 0 4.70449 0 2.90015Z"/>
<path id="path8_fill" fill-rule="evenodd" d="M 4.41256 5.70075L 4.41256 4.26168C 4.18021 3.83006 3.68272 3.44244 3.04116 3.44244C 2.16758 3.44244 1.54834 4.1178 1.54834 4.98138C 1.54834 5.8558 2.16758 6.53082 3.04116 6.53082C 3.68272 6.53082 4.18021 6.14388 4.41256 5.70075ZM 0 4.98141C 0 3.36529 1.07277 2.08126 2.59907 2.08126C 3.5281 2.08126 4.10271 2.50171 4.4125 2.90049L 4.4125 0L 5.97194 0L 5.97194 7.74886L 4.4125 7.74886L 4.4125 7.0735C 4.10271 7.48312 3.5281 7.89273 2.59907 7.89273C 1.07277 7.89273 0 6.6087 0 4.98141Z"/>
<path id="path9_fill" fill-rule="evenodd" d="M 5.41898 0L 5.41898 5.52373L 3.85954 5.52373L 3.85954 4.85954C 3.4723 5.28033 2.88654 5.6676 2.01263 5.6676C 0.718675 5.6676 0 4.78202 0 3.38729L 0 0L 1.55944 0L 1.55944 3.06637C 1.55944 4.0183 2.13404 4.2397 2.60955 4.2397C 3.11821 4.2397 3.60521 3.9076 3.85954 3.51999L 3.85954 0L 5.41898 0Z"/>
<path id="path10_fill" fill-rule="evenodd" d="M 0 17.1199L 60.5686 17.1199L 60.5686 0L 0 0L 0 17.1199Z"/>
<path id="path11_fill" fill-rule="evenodd" d="M 0.154785 7.92589L 1.71423 7.92589L 1.71423 2.40216L 0.154785 2.40216L 0.154785 7.92589ZM 0 0.941102C 0 0.409616 0.408884 0 0.928698 0C 1.44851 0 1.85773 0.409616 1.85773 0.941102C 1.85773 1.46142 1.44851 1.87103 0.928698 1.87103C 0.408884 1.87103 0 1.46142 0 0.941102Z"/>
<path id="path12_fill" fill-rule="evenodd" d="M 4.4233 4.98138C 4.4233 4.1178 3.80439 3.44244 2.93048 3.44244C 2.28892 3.44244 1.79176 3.83006 1.55908 4.26168L 1.55908 5.70075C 1.79176 6.14388 2.28892 6.53082 2.93048 6.53082C 3.80439 6.53082 4.4233 5.8558 4.4233 4.98138ZM 1.5591 7.0735L 1.5591 7.74886L 0 7.74886L 0 0L 1.5591 0L 1.5591 2.90049C 1.86889 2.50171 2.44383 2.08126 3.37321 2.08126C 4.89883 2.08126 5.9716 3.36529 5.9716 4.98141C 5.9716 6.6087 4.89883 7.89273 3.37321 7.89273C 2.44383 7.89273 1.86889 7.48312 1.5591 7.0735Z"/>
<path id="path13_fill" fill-rule="evenodd" d="M 0 6.36496L 0 0L 1.55944 0L 1.55944 5.95535C 1.55944 6.35413 1.78096 6.50918 2.05693 6.50918C 2.20101 6.50918 2.34474 6.47566 2.45533 6.40931L 2.45533 7.69334C 2.18985 7.82604 1.83609 7.89273 1.47117 7.89273C 0.719013 7.89273 0 7.56064 0 6.36496Z"/>
<path id="path14_fill" fill-rule="evenodd" d="M 1.56051 5.26767C 1.56051 3.22443 3.22133 1.56201 5.2626 1.56201L 5.2626 0C 2.36074 0 0 2.36301 0 5.26767C 0 8.17233 2.36074 10.5353 5.2626 10.5353L 5.2626 8.97333C 3.22133 8.97333 1.56051 7.31091 1.56051 5.26767Z"/>
<path id="path15_fill" fill-rule="evenodd" d="M 1.61733 3.23777L 1.61733 0C 0.72406 0 0 0.724758 0 1.61888C 0 2.51301 0.72406 3.23777 1.61733 3.23777Z"/>
<path id="path16_fill" fill-rule="evenodd" d="M 3.70209 5.26767C 3.70209 7.31091 2.04127 8.97333 0 8.97333L 0 10.5353C 2.90186 10.5353 5.2626 8.17233 5.2626 5.26767C 5.2626 2.36301 2.90186 0 0 0L 0 1.56201C 2.04127 1.56201 3.70209 3.22443 3.70209 5.26767Z"/>
<path id="path17_fill" fill-rule="evenodd" d="M 1.61733 1.61888C 1.61733 0.724758 0.893265 0 0 0L 0 3.23777C 0.893265 3.23777 1.61733 2.51301 1.61733 1.61888Z"/>
<path id="path18_fill" fill-rule="evenodd" d="M 10.7268 0L 1.29747e-15 0L 0 19.495L 10.7268 19.495L 10.7268 0Z"/>
<path id="path19_fill" fill-rule="evenodd" d="M 10.334 1.32117L 10.334 1.97553L 0.394043 1.97553L 0.394043 1.32117C 0.394043 0.814445 0.798872 0.4021 1.29628 0.4021L 9.43048 0.4021C 9.92862 0.4021 10.334 0.814445 10.334 1.32117ZM 0.394043 15.144L 10.334 15.144L 10.334 2.37579L 0.394043 2.37579L 0.394043 15.144ZM 10.334 15.5438L 10.334 18.1741C 10.334 18.6808 9.92862 19.093 9.43048 19.093L 1.29628 19.093C 0.798872 19.093 0.394043 18.6808 0.394043 18.1741L 0.394043 15.5438L 10.334 15.5438ZM 9.43068 0L 1.29648 0C 0.581588 0 0 0.592734 0 1.32118L 0 18.1741C 0 18.9023 0.581588 19.4951 1.29648 19.4951L 9.43068 19.4951C 10.1454 19.4951 10.7268 18.9023 10.7268 18.1741L 10.7268 1.32118C 10.7268 0.592734 10.1454 0 9.43068 0Z"/>
<path id="path20_fill" fill-rule="evenodd" d="M 0.392578 1.1877C 0.392578 0.754504 0.739157 0.401917 1.16517 0.401917C 1.59045 0.401917 1.93648 0.754504 1.93648 1.1877C 1.93648 1.62201 1.59045 1.97572 1.16517 1.97572C 0.739157 1.97572 0.392578 1.62201 0.392578 1.1877ZM 1.165 2.37764C 1.80776 2.37764 2.33037 1.84392 2.33037 1.1877C 2.33037 0.532791 1.80776 0 1.165 0C 0.522608 0 0 0.532791 0 1.1877C 0 1.84392 0.522608 2.37764 1.165 2.37764Z"/>
<path id="path21_fill" fill-rule="evenodd" d="M 1.48839 0L 0.197028 0C 0.0885621 0 0 0.0901016 0 0.201053C 0 0.312005 0.0885621 0.402106 0.197028 0.402106L 1.48839 0.402106C 1.59722 0.402106 1.6856 0.312005 1.6856 0.201053C 1.6856 0.0901016 1.59722 0 1.48839 0Z"/>
<path id="path22_fill" fill-rule="evenodd" d="M 0.520051 0L 0.196845 0C 0.0881969 0 0 0.0901016 0 0.201053C 0 0.312005 0.0881969 0.402106 0.196845 0.402106L 0.520051 0.402106C 0.628882 0.402106 0.717262 0.312005 0.717262 0.201053C 0.717262 0.0901016 0.628882 0 0.520051 0Z"/>
<path id="path23_fill" fill-rule="evenodd" d="M 1.39306 2.91005e-14L 1.39306 5.32314L 0 5.32314L 0 0L 1.39306 0L 1.39306 2.91005e-14Z"/>
<path id="path24_fill" fill-rule="evenodd" d="M 0.336399 0.0566626C 0.262263 -0.0189185 0.132067 -0.0189185 0.0570176 0.0568487C -0.0191275 0.13485 -0.0189449 0.261625 0.0572002 0.33944C 1.31259 1.61892 1.31259 3.70224 0.0572002 4.98339C -0.0189449 5.0614 -0.0189449 5.18836 0.0575654 5.26654C 0.0928077 5.30229 0.143571 5.32314 0.196891 5.32314L 0.197074 5.32314C 0.250211 5.32314 0.300974 5.30229 0.336216 5.26654C 1.01787 4.57217 1.39312 3.64751 1.39312 2.66216C 1.39312 1.677 1.01787 0.751599 0.336399 0.0566626Z"/>
<path id="path25_fill" fill-rule="evenodd" d="M 0.0577023 0.0569883C 0.0206341 0.0945927 0.000365204 0.144856 0.000365204 0.198098C 0.000365204 0.251526 0.0206341 0.301603 0.0575197 0.339393C 0.480974 0.773147 0.713975 1.34838 0.713975 1.95899C 0.713975 2.56959 0.480974 3.14353 0.0575197 3.57542C -0.0191732 3.65398 -0.0191732 3.7815 0.0575197 3.85968C 0.0933097 3.89599 0.144073 3.91665 0.197028 3.91665C 0.249982 3.91665 0.300746 3.89599 0.336536 3.85968C 0.833214 3.35165 1.10675 2.67664 1.10675 1.95899C 1.10675 1.23892 0.833214 0.563344 0.336353 0.0568022C 0.260573 -0.0189651 0.131474 -0.0189651 0.0577023 0.0569883Z"/>
<path id="path26_fill" fill-rule="evenodd" d="M 0 5.32349L 0 5.29099e-15L 1.39105 0L 1.39105 5.32349L 6.58647e-17 5.32349L 0 5.32349Z"/>
<path id="path27_fill" fill-rule="evenodd" d="M 1.33382 0.339417C 1.41015 0.261602 1.41015 0.134641 1.33382 0.0564532C 1.25968 -0.0189417 1.13058 -0.0187556 1.05645 0.0566394C -0.352149 1.49324 -0.352149 3.83011 1.05645 5.26634C 1.0926 5.30319 1.14172 5.32349 1.19504 5.32349C 1.24763 5.32349 1.29839 5.30245 1.334 5.26615C 1.41015 5.18815 1.41015 5.06156 1.334 4.98337C 0.0789754 3.70389 0.0787928 1.62057 1.33382 0.339417Z"/>
<path id="path28_fill" fill-rule="evenodd" d="M 1.05088 0.0569418C 0.976374 -0.0190116 0.846544 -0.0190116 0.772042 0.057128C 0.274086 0.564415 0 1.23999 0 1.95931C 0 2.67901 0.274086 3.35403 0.772042 3.8602C 0.807285 3.89594 0.858048 3.91679 0.911368 3.91679C 0.964688 3.91679 1.01545 3.89594 1.05106 3.86001C 1.12739 3.78201 1.12739 3.65542 1.05088 3.57742C 0.627604 3.1472 0.394603 2.57271 0.394603 1.95931C 0.394603 1.34573 0.627604 0.771239 1.05106 0.341209C 1.12757 0.262835 1.12775 0.135315 1.05088 0.0569418Z"/>
<path id="path29_fill" fill-rule="evenodd" d="M 0 0.203009C 0 0.314862 0.0663043 0.405797 0.147663 0.405797L 6.84551 0.405797C 6.92703 0.405797 6.99318 0.314862 6.99318 0.203009C 6.99318 0.0911557 6.92703 0 6.84551 0L 0.147663 0C 0.0663043 0 0 0.0911557 0 0.203009Z"/>
<path id="path30_fill" fill-rule="evenodd" d="M 0.147663 0.405797L 2.8269 0.405797C 2.90826 0.405797 2.97456 0.314316 2.97456 0.201791C 2.97456 0.0905955 2.90826 0 2.8269 0L 0.147663 0C 0.0663043 0 0 0.0905955 0 0.201791C 0 0.314316 0.0663043 0.405797 0.147663 0.405797Z"/>
<path id="path31_fill" fill-rule="evenodd" d="M 6.84551 0L 0.147663 0C 0.0661441 0 0 0.0909849 0 0.202899C 0 0.314812 0.0661441 0.405797 0.147663 0.405797L 6.84551 0.405797C 6.92687 0.405797 6.99318 0.314812 6.99318 0.202899C 6.99318 0.0909849 6.92687 0 6.84551 0Z"/>
<path id="path32_fill" fill-rule="evenodd" d="M 6.84551 0L 0.147663 0C 0.0661441 0 0 0.0914816 0 0.204006C 0 0.315202 0.0661441 0.405797 0.147663 0.405797L 6.84551 0.405797C 6.92687 0.405797 6.99318 0.315202 6.99318 0.204006C 6.99318 0.0914816 6.92687 0 6.84551 0Z"/>
<path id="path33_fill" fill-rule="evenodd" d="M 6.84551 0L 0.147663 0C 0.0661441 0 0 0.0911557 0 0.203009C 0 0.314641 0.0661441 0.405797 0.147663 0.405797L 6.84551 0.405797C 6.92687 0.405797 6.99318 0.314641 6.99318 0.203009C 6.99318 0.0911557 6.92687 0 6.84551 0Z"/>
<path id="path34_fill" fill-rule="evenodd" d="M 12.618 15.9898L 0 15.9898L 0 0L 12.618 2.29839e-15L 12.618 15.9898Z"/>
<path id="path35_fill" fill-rule="evenodd" d="M 12.1159 5.14022L 8.86768 5.14022L 8.86768 1.85992L 12.1159 5.14022ZM 12.3243 15.6915L 1.63477 15.6915L 1.63477 1.65082L 8.57381 1.65082L 8.57381 5.43832L 12.3243 5.43832L 12.3243 15.6915ZM 1.33978 14.3388L 0.29541 14.3388L 0.29541 0.298096L 10.9851 0.298096L 10.9851 3.57807L 8.78139 1.35277L 1.33978 1.35277L 1.33978 14.3388ZM 11.2785 0L 0 0L 0 14.637L 1.33954 14.637L 1.33954 15.9899L 12.618 15.9899L 12.618 5.22742L 11.2785 3.87467L 11.2785 0Z"/>
</defs>
</svg>
