<svg width="18" height="18" viewBox="0 0 18 18" version="1.1" xmlns="http://www.w3.org/2000/svg" xmlns:xlink="http://www.w3.org/1999/xlink">
<title>Group 3</title>
<desc>Created using Figma</desc>
<g id="Canvas" transform="translate(734 4294)">
<g id="Group 3">
<g id="Line">
<use xlink:href="#path0_stroke" transform="translate(-732 -4292)" fill="#7262BF"/>
</g>
<g id="Line Copy 3">
<use xlink:href="#path1_stroke" transform="translate(-732 -4292)" fill="#7262BF"/>
</g>
</g>
</g>
<defs>
<path id="path0_stroke" d="M 1.41421 -1.41421C 0.633165 -2.19526 -0.633165 -2.19526 -1.41421 -1.41421C -2.19526 -0.633165 -2.19526 0.633165 -1.41421 1.41421L 1.41421 -1.41421ZM 12.1325 14.9609C 12.9135 15.7419 14.1798 15.7419 14.9609 14.9609C 15.7419 14.1798 15.7419 12.9135 14.9609 12.1325L 12.1325 14.9609ZM -1.41421 1.41421L 12.1325 14.9609L 14.9609 12.1325L 1.41421 -1.41421L -1.41421 1.41421Z"/>
<path id="path1_stroke" d="M -1.41421 12.1325C -2.19526 12.9135 -2.19526 14.1798 -1.41421 14.9609C -0.633165 15.7419 0.633165 15.7419 1.41421 14.9609L -1.41421 12.1325ZM 14.9609 1.41421C 15.7419 0.633165 15.7419 -0.633165 14.9609 -1.41421C 14.1798 -2.19526 12.9135 -2.19526 12.1325 -1.41421L 14.9609 1.41421ZM 1.41421 14.9609L 14.9609 1.41421L 12.1325 -1.41421L -1.41421 12.1325L 1.41421 14.9609Z"/>
</defs>
</svg>
