<svg width="18" height="17" viewBox="0 0 18 17" version="1.1" xmlns="http://www.w3.org/2000/svg" xmlns:xlink="http://www.w3.org/1999/xlink">
<title>LinkedIn</title>
<desc>Created using Figma</desc>
<g id="Canvas" transform="translate(-19602 6173)">
<g id="LinkedIn">
<use xlink:href="#path0_fill" transform="translate(19602 -6173)" fill="#A8ACB9"/>
</g>
</g>
<defs>
<path id="path0_fill" fill-rule="evenodd" d="M 2.18359 0C 0.863281 0 0 0.855957 0 1.98145C 0 3.08252 0.837891 3.96436 2.13281 3.96436L 2.1582 3.96436C 3.50391 3.96436 4.3418 3.08252 4.3418 1.98145C 4.31641 0.855957 3.50391 0 2.18359 0ZM 18 10.4224L 18 17L 14.1426 17L 14.1426 10.8633C 14.1426 9.32129 13.584 8.26953 12.1875 8.26953C 11.1211 8.26953 10.4863 8.97852 10.207 9.66406C 10.1055 9.90967 10.0801 10.2505 10.0801 10.5938L 10.0801 17L 6.2207 17C 6.2207 17 6.27344 6.60596 6.2207 5.5293L 10.0801 5.5293L 10.0801 7.15527C 10.5918 6.37451 11.5078 5.25977 13.5566 5.25977C 16.0957 5.25977 18 6.89941 18 10.4224ZM 4.08594 17L 0.228516 17L 0.228516 5.5293L 4.08594 5.5293L 4.08594 17Z"/>
</defs>
</svg>
