<svg width="92" height="26" viewBox="0 0 92 26" version="1.1" xmlns="http://www.w3.org/2000/svg" xmlns:xlink="http://www.w3.org/1999/xlink">
<title>Page 1</title>
<desc>Created using Figma</desc>
<g id="Canvas" transform="translate(1002 4297)">
<g id="Page 1">
<g id="Fill 1">
<use xlink:href="#path0_fill" transform="translate(-970.463 -4287.99)" fill="#4E4E4E"/>
</g>
<g id="Fill 3">
<use xlink:href="#path1_fill" transform="translate(-960.887 -4291.13)" fill="#4E4E4E"/>
</g>
<g id="Fill 5">
<use xlink:href="#path2_fill" transform="translate(-949.706 -4287.78)" fill="#4E4E4E"/>
</g>
<mask id="mask0_outline" mask-type="alpha">
<g id="Clip 8">
<use xlink:href="#path3_fill" transform="translate(-1002 -4297)" fill="#FFFFFF"/>
</g>
</mask>
<g id="Fill 7" mask="url(#mask0_outline)">
<use xlink:href="#path4_fill" transform="translate(-939.327 -4291.39)" fill="#4E4E4E"/>
</g>
<g id="Fill 9" mask="url(#mask0_outline)">
<use xlink:href="#path5_fill" transform="translate(-934.313 -4291.13)" fill="#4E4E4E"/>
</g>
<g id="Fill 10" mask="url(#mask0_outline)">
<use xlink:href="#path6_fill" transform="translate(-923.551 -4291.13)" fill="#4E4E4E"/>
</g>
<g id="Fill 11" mask="url(#mask0_outline)">
<use xlink:href="#path0_fill" transform="translate(-918.787 -4287.99)" fill="#4E4E4E"/>
</g>
<g id="Fill 12" mask="url(#mask0_outline)">
<use xlink:href="#path7_fill" transform="translate(-1002 -4297)" fill="#8045DD"/>
</g>
<g id="Fill 13" mask="url(#mask0_outline)">
<use xlink:href="#path8_fill" transform="translate(-993.048 -4288.07)" fill="#8045DD"/>
</g>
<g id="Fill 14" mask="url(#mask0_outline)">
<use xlink:href="#path9_fill" transform="translate(-989.076 -4297)" fill="#AF9ED8"/>
</g>
<g id="Fill 15" mask="url(#mask0_outline)">
<use xlink:href="#path10_fill" transform="translate(-989.076 -4288.07)" fill="#AF9ED8"/>
</g>
</g>
</g>
<defs>
<path id="path0_fill" fill-rule="evenodd" d="M 5.99942 3.51716C 5.96671 2.65049 5.33089 1.8501 4.24427 1.8501C 3.14129 1.8501 2.43953 2.56688 2.33936 3.51716L 5.99942 3.51716ZM 0 4.36749C 0 1.95 1.70456 0 4.34547 0C 6.86882 0 8.32242 2.03361 8.32242 4.40063L 8.32242 5.01749L 2.33936 5.01749C 2.59031 6.20125 3.71016 6.75133 5.13053 6.75133C 6.13333 6.75133 7.05282 6.45106 7.80416 6.01773L 7.80416 7.90145C 7.11927 8.41788 5.91611 8.7518 4.62862 8.7518C 2.10527 8.7518 0 7.08475 0 4.36749Z"/>
<path id="path1_fill" fill-rule="evenodd" d="M 6.66844 8.58498L 6.66844 6.41781C 6.31731 5.76781 5.56547 5.18408 4.59589 5.18408C 3.27569 5.18408 2.33984 6.20114 2.33984 7.50165C 2.33984 8.81847 3.27569 9.83502 4.59589 9.83502C 5.56547 9.83502 6.31731 9.25232 6.66844 8.58498ZM 0 7.50176C 0 5.06796 1.62124 3.13427 3.92789 3.13427C 5.33191 3.13427 6.20029 3.76745 6.66847 4.368L 6.66847 0L 9.0252 0L 9.0252 11.6694L 6.66847 11.6694L 6.66847 10.6524C 6.20029 11.2692 5.33191 11.8861 3.92789 11.8861C 1.62124 11.8861 0 9.95239 0 7.50176Z"/>
<path id="path2_fill" fill-rule="evenodd" d="M 8.18953 0L 8.18953 8.31847L 5.8328 8.31847L 5.8328 7.31824C 5.24758 7.95192 4.36233 8.53514 3.04162 8.53514C 1.08611 8.53514 0 7.20149 0 5.1011L 0 0L 2.35673 0L 2.35673 4.6178C 2.35673 6.05137 3.22511 6.38478 3.94373 6.38478C 4.71244 6.38478 5.44844 5.88467 5.8328 5.30094L 5.8328 0L 8.18953 0Z"/>
<path id="path3_fill" fill-rule="evenodd" d="M 0 25.7818L 91.5354 25.7818L 91.5354 0L 0 0L 0 25.7818Z"/>
<path id="path4_fill" fill-rule="evenodd" d="M 0.233582 11.9361L 2.59031 11.9361L 2.59031 3.61768L 0.233582 3.61768L 0.233582 11.9361ZM 0 1.41725C 0 0.616863 0.617933 0 1.40351 0C 2.18909 0 2.80753 0.616863 2.80753 1.41725C 2.80753 2.20082 2.18909 2.81769 1.40351 2.81769C 0.617933 2.81769 0 2.20082 0 1.41725Z"/>
<path id="path5_fill" fill-rule="evenodd" d="M 6.6848 7.50165C 6.6848 6.20114 5.74947 5.18408 4.42876 5.18408C 3.45918 5.18408 2.70785 5.76781 2.3562 6.41781L 2.3562 8.58498C 2.70785 9.25232 3.45918 9.83502 4.42876 9.83502C 5.74947 9.83502 6.6848 8.81847 6.6848 7.50165ZM 2.35622 10.6524L 2.35622 11.6694L 0 11.6694L 0 0L 2.35622 0L 2.35622 4.368C 2.8244 3.76745 3.69329 3.13427 5.09782 3.13427C 7.40344 3.13427 9.02469 5.06796 9.02469 7.50176C 9.02469 9.95239 7.40344 11.8861 5.09782 11.8861C 3.69329 11.8861 2.8244 11.2692 2.35622 10.6524Z"/>
<path id="path6_fill" fill-rule="evenodd" d="M 0 9.58533L 0 0L 2.35673 0L 2.35673 8.96847C 2.35673 9.56902 2.69151 9.80251 3.10858 9.80251C 3.32631 9.80251 3.54353 9.75204 3.71067 9.65212L 3.71067 11.5858C 3.30944 11.7856 2.77482 11.8861 2.22333 11.8861C 1.08662 11.8861 0 11.386 0 9.58533Z"/>
<path id="path7_fill" fill-rule="evenodd" d="M 3.83231 12.8909C 3.83231 7.89074 7.91098 3.82251 12.924 3.82251L 12.924 0C 5.79753 0 0 5.78271 0 12.8909C 0 19.9991 5.79753 25.7818 12.924 25.7818L 12.924 21.9593C 7.91098 21.9593 3.83231 17.8911 3.83231 12.8909Z"/>
<path id="path8_fill" fill-rule="evenodd" d="M 0 3.96169C 0 6.14977 1.77816 7.92337 3.97184 7.92337L 3.97184 0C 1.77816 0 0 1.77361 0 3.96169Z"/>
<path id="path9_fill" fill-rule="evenodd" d="M 9.09164 12.8909C 9.09164 17.8911 5.01298 21.9593 0 21.9593L 0 25.7818C 7.12642 25.7818 12.924 19.9991 12.924 12.8909C 12.924 5.78271 7.12642 0 0 0L 0 3.82251C 5.01298 3.82251 9.09164 7.89074 9.09164 12.8909Z"/>
<path id="path10_fill" fill-rule="evenodd" d="M 3.97184 3.96169C 3.97184 1.77361 2.19369 0 0 0L 0 7.92337C 2.19369 7.92337 3.97184 6.14977 3.97184 3.96169Z"/>
</defs>
</svg>
