<svg width="20" height="20" viewBox="0 0 20 20" version="1.1" xmlns="http://www.w3.org/2000/svg" xmlns:xlink="http://www.w3.org/1999/xlink">
<title>menu</title>
<desc>Created using Figma</desc>
<g id="Canvas" transform="translate(-16324 6769)">
<g id="menu">
<use xlink:href="#path0_fill" transform="translate(16324 -6769)" fill="#7262BF"/>
</g>
</g>
<defs>
<path id="path0_fill" fill-rule="evenodd" d="M 20 1.95459C 20 3.03369 19.2939 3.90918 18.4209 3.90918L 1.5791 3.90918C 0.706055 3.90918 0 3.03369 0 1.95459C 0 0.875488 0.706055 0 1.5791 0L 18.4209 0C 19.2949 0 20 0.875488 20 1.95459ZM 20 9.77295C 20 10.8521 19.2939 11.7275 18.4209 11.7275L 1.5791 11.7275C 0.706055 11.7275 0 10.8521 0 9.77295C 0 8.69385 0.706055 7.81836 1.5791 7.81836L 18.4209 7.81836C 19.2949 7.81836 20 8.69385 20 9.77295ZM 18.4209 19.5454C 19.2939 19.5454 20 18.6699 20 17.5908C 20 16.5117 19.2949 15.6362 18.4209 15.6362L 1.5791 15.6362C 0.706055 15.6362 0 16.5117 0 17.5908C 0 18.6699 0.706055 19.5454 1.5791 19.5454L 18.4209 19.5454Z"/>
</defs>
</svg>
