<svg width="22" height="22" viewBox="0 0 22 22" version="1.1" xmlns="http://www.w3.org/2000/svg" xmlns:xlink="http://www.w3.org/1999/xlink">
<title>Group</title>
<desc>Created using Figma</desc>
<g id="Canvas" transform="translate(772 4296)">
<g id="Group">
<g id="Group 5">
<g id="Oval 6 Copy">
<use xlink:href="#path0_stroke" transform="translate(-770 -4294)" fill="#7262BF"/>
</g>
<g id="Path 15 Copy">
<use xlink:href="#path1_stroke" transform="translate(-757.143 -4281.14)" fill="#7262BF"/>
</g>
</g>
</g>
</g>
<defs>
<path id="path0_stroke" d="M 6.81186 15.1709C 11.6143 15.1709 15.6237 11.3903 15.6237 6.58547L 11.6237 6.58547C 11.6237 9.05478 9.53363 11.1709 6.81186 11.1709L 6.81186 15.1709ZM 15.6237 6.58547C 15.6237 1.78067 11.6143 -2 6.81186 -2L 6.81186 2C 9.53363 2 11.6237 4.11616 11.6237 6.58547L 15.6237 6.58547ZM 6.81186 -2C 2.00946 -2 -2 1.78067 -2 6.58547L 2 6.58547C 2 4.11616 4.09009 2 6.81186 2L 6.81186 -2ZM -2 6.58547C -2 11.3903 2.00946 15.1709 6.81186 15.1709L 6.81186 11.1709C 4.09009 11.1709 2 9.05478 2 6.58547L -2 6.58547Z"/>
<path id="path1_stroke" d="M 1.39012 -1.43791C 0.595985 -2.20565 -0.670165 -2.18425 -1.43791 -1.39012C -2.20565 -0.595985 -2.18425 0.670165 -1.39012 1.43791L 1.39012 -1.43791ZM 2.97004 5.65315C 3.76417 6.4209 5.03032 6.3995 5.79806 5.60537C 6.5658 4.81123 6.54441 3.54508 5.75027 2.77734L 2.97004 5.65315ZM -1.39012 1.43791L 2.97004 5.65315L 5.75027 2.77734L 1.39012 -1.43791L -1.39012 1.43791Z"/>
</defs>
</svg>
