<svg width="10" height="10" viewBox="0 0 10 10" version="1.1" xmlns="http://www.w3.org/2000/svg" xmlns:xlink="http://www.w3.org/1999/xlink">
<title>star copy 5</title>
<desc>Created using Figma</desc>
<g id="Canvas" transform="translate(937 6322)">
<g id="star copy 5">
<mask id="mask0_outline" mask-type="alpha">
<g id="Clip 2">
<use xlink:href="#path0_fill" transform="translate(-936.885 -6321.82)" fill="#FFFFFF"/>
</g>
</mask>
<g id="Fill 1" mask="url(#mask0_outline)">
<use xlink:href="#path1_fill" transform="translate(-936.9 -6321.82)" fill="#AFAFAF"/>
</g>
</g>
</g>
<defs>
<path id="path0_fill" fill-rule="evenodd" d="M 0 0L 0 9.5695L 9.87309 9.5695L 9.87309 1.77636e-15L 5.15213e-18 1.77636e-15L 0 0Z"/>
<path id="path1_fill" fill-rule="evenodd" d="M 9.67363 4.337C 9.86792 4.1445 9.93647 3.86425 9.85257 3.6025C 9.76842 3.34075 9.54988 3.15425 9.2801 3.11525L 6.88628 2.76375C 6.78382 2.748 6.69596 2.68375 6.65042 2.59075L 5.58023 0.3995C 5.46019 0.15325 5.21566 0 4.94415 0C 4.6724 0 4.42886 0.15325 4.30783 0.3995L 3.23764 2.59075C 3.1921 2.68375 3.10424 2.749 3.00177 2.76375L 0.607951 3.11525C 0.338176 3.15425 0.118644 3.34075 0.0347412 3.6025C -0.0484188 3.86425 0.0201387 4.1455 0.214426 4.337L 1.94693 6.042C 2.02043 6.11525 2.05434 6.21975 2.03677 6.32225L 1.6279 8.7305C 1.59226 8.9425 1.6472 9.1495 1.78259 9.3115C 1.99445 9.5655 2.36273 9.64275 2.6575 9.4855L 4.79813 8.34875C 4.88797 8.30075 5.00009 8.30175 5.08993 8.34875L 7.23155 9.4855C 7.335 9.541 7.44613 9.5695 7.56122 9.5695C 7.77011 9.5695 7.9691 9.47575 8.10547 9.3115C 8.24085 9.1495 8.29604 8.9425 8.26016 8.7305L 7.85129 6.32225C 7.83371 6.21975 7.86762 6.11525 7.94113 6.042L 9.67363 4.337Z"/>
</defs>
</svg>
