<svg width="17" height="14" viewBox="0 0 17 14" version="1.1" xmlns="http://www.w3.org/2000/svg" xmlns:xlink="http://www.w3.org/1999/xlink">
<title>Twitter</title>
<desc>Created using Figma</desc>
<g id="Canvas" transform="translate(-19640 6170)">
<g id="Twitter">
<use xlink:href="#path0_fill" transform="translate(19640 -6170)" fill="#A8ACB9"/>
</g>
</g>
<defs>
<path id="path0_fill" fill-rule="evenodd" d="M 16.998 1.657C 16.373 1.938 15.7 2.128 14.995 2.214C 15.715 1.776 16.268 1.084 16.528 0.259C 15.854 0.664 15.108 0.958 14.313 1.116C 13.677 0.429 12.771 0 11.768 0C 9.842 0 8.28 1.582 8.28 3.534C 8.28 3.812 8.312 4.081 8.371 4.34C 5.473 4.193 2.904 2.785 1.184 0.647C 0.883 1.169 0.712 1.776 0.712 2.424C 0.712 3.65 1.328 4.732 2.263 5.365C 1.691 5.347 1.153 5.188 0.684 4.923C 0.684 4.938 0.684 4.953 0.684 4.968C 0.684 6.68 1.885 8.108 3.481 8.433C 3.188 8.514 2.881 8.557 2.562 8.557C 2.338 8.557 2.119 8.535 1.906 8.493C 2.35 9.897 3.638 10.919 5.164 10.948C 3.97 11.895 2.466 12.46 0.832 12.46C 0.551 12.46 0.273 12.444 0 12.411C 1.543 13.414 3.376 13.999 5.346 13.999C 11.76 13.999 15.268 8.614 15.268 3.944C 15.268 3.79 15.264 3.639 15.258 3.487C 15.939 2.989 16.531 2.366 16.998 1.658L 16.998 1.657Z"/>
</defs>
</svg>
