<?xml version="1.0" encoding="UTF-8"?>
<svg width="15px" height="17px" viewBox="0 0 15 17" version="1.1" xmlns="http://www.w3.org/2000/svg" xmlns:xlink="http://www.w3.org/1999/xlink">
    <!-- Generator: Sketch 46.2 (44496) - http://www.bohemiancoding.com/sketch -->
    <title>Calendar</title>
    <desc>Created with Sketch.</desc>
    <defs></defs>
    <g id="User-Interface" stroke="none" stroke-width="1" fill="none" fill-rule="evenodd">
        <g id="Student-Profile-(Conversations)-Mobile" transform="translate(-56.000000, -461.000000)" fill="#8045DD">
            <g id="Conversations" transform="translate(10.000000, 343.000000)">
                <g id="Forthcoming-Conferences">
                    <g id="Conversation-#1" transform="translate(0.000000, 23.000000)">
                        <g id="Date" transform="translate(20.000000, 95.000000)">
                            <g id="Calendar" transform="translate(26.000000, 0.000000)">
                                <path d="M10.8333333,0 L10.8333333,1.66666667 L4.16666667,1.66666667 L4.16666667,0 L2.5,0 L2.5,1.66666667 L1.66666667,1.66666667 C0.75,1.66666667 0,2.41666667 0,3.33333333 L0,15 C0,15.9166667 0.75,16.6666667 1.66666667,16.6666667 L13.3333333,16.6666667 C14.25,16.6666667 15,15.9166667 15,15 L15,3.33333333 C15,2.41666667 14.25,1.66666667 13.3333333,1.66666667 L12.5,1.66666667 L12.5,0 L10.8333333,0 L10.8333333,0 Z M13.3333333,15 L1.66666667,15 L1.66666667,5.83333333 L13.3333333,5.83333333 L13.3333333,15 L13.3333333,15 Z" id="Shape"></path>
                            </g>
                        </g>
                    </g>
                </g>
            </g>
        </g>
    </g>
</svg>