<svg width="8" height="6" viewBox="0 0 8 6" version="1.1" xmlns="http://www.w3.org/2000/svg" xmlns:xlink="http://www.w3.org/1999/xlink">
<title>Check Icon #1</title>
<desc>Created using Figma</desc>
<g id="Canvas" transform="translate(-9294 6205)">
<g id="Check Icon #1">
<use xlink:href="#path0_stroke" transform="translate(9295 -6204)" fill="#00FF1B"/>
</g>
</g>
<defs>
<path id="path0_stroke" d="M 0.691162 0.162956C 0.292025 -0.218762 -0.340982 -0.204642 -0.7227 0.194494C -1.10442 0.593631 -1.0903 1.22664 -0.691162 1.60836L 0.691162 0.162956ZM 2.60734 3.37921L 1.91618 4.10191C 2.30848 4.47709 2.92844 4.47079 3.31304 4.08772L 2.60734 3.37921ZM 6.7057 0.70851C 7.097 0.318762 7.09826 -0.314402 6.70851 -0.705701C 6.31876 -1.097 5.6856 -1.09826 5.2943 -0.70851L 6.7057 0.70851ZM -0.691162 1.60836L 1.91618 4.10191L 3.2985 2.65651L 0.691162 0.162956L -0.691162 1.60836ZM 3.31304 4.08772L 6.7057 0.70851L 5.2943 -0.70851L 1.90164 2.6707L 3.31304 4.08772Z"/>
</defs>
</svg>
