<?xml version="1.0" encoding="UTF-8"?>
<svg width="11px" height="11px" viewBox="0 0 11 11" version="1.1" xmlns="http://www.w3.org/2000/svg" xmlns:xlink="http://www.w3.org/1999/xlink">
    <!-- Generator: Sketch 46.1 (44463) - http://www.bohemiancoding.com/sketch -->
    <title>ic_edit</title>
    <desc>Created with Sketch.</desc>
    <defs></defs>
    <g id="Page-1" stroke="none" stroke-width="1" fill="none" fill-rule="evenodd">
        <g id="ic_edit" fill-rule="nonzero" fill="#7262BF">
            <path d="M10.272859,0.725970822 C9.32729787,-0.219474801 7.78969681,-0.219474801 6.84413564,0.725970822 L0.557781915,6.99337401 C0.508545213,7.0423634 0.478148936,7.10538727 0.468757979,7.17310875 L0.00307180851,10.613687 C-0.0109707447,10.711695 0.024106383,10.8097029 0.0920079787,10.8774244 C0.150518617,10.9357798 0.232433511,10.9708806 0.31437766,10.9708806 C0.328332447,10.9708806 0.342375,10.9708806 0.356446809,10.9684881 L2.43471543,10.6883236 C2.60796543,10.665069 2.72966755,10.506313 2.70623404,10.3335225 C2.68280053,10.1608488 2.52373936,10.0394695 2.35048936,10.0628408 L0.684077128,10.2868966 L1.00942553,7.8872626 L3.54182447,10.4129735 C3.60033511,10.4713289 3.68216223,10.506313 3.76410638,10.506313 C3.84605053,10.506313 3.92799468,10.4736048 3.98650532,10.4129735 L10.272859,4.14557029 C10.7315532,3.68806366 10.9843484,3.08116711 10.9843484,2.43455968 C10.9843484,1.78798143 10.7315532,1.1810557 10.272859,0.725970822 Z M6.96583777,1.49620424 L8.02134043,2.54899469 L2.2849867,8.27010345 L1.22939628,7.21742971 L6.96583777,1.49620424 Z M3.76650532,9.74541645 L2.7343484,8.71599735 L8.47067287,2.99477188 L9.50282979,4.02419098 L3.76650532,9.74541645 Z M9.94280053,3.57362865 L7.41748138,1.05500796 C7.73814894,0.791270557 8.1383617,0.646519894 8.55969681,0.646519894 C9.03942553,0.646519894 9.48878723,0.83331565 9.82817819,1.16944297 C10.1674814,1.50557029 10.352375,1.95610345 10.352375,2.43455968 C10.352375,2.85708223 10.2073564,3.25392838 9.94280053,3.57362865 Z" id="Fill-1"></path>
        </g>
    </g>
</svg>