<svg width="11" height="11" viewBox="0 0 11 11" version="1.1" xmlns="http://www.w3.org/2000/svg" xmlns:xlink="http://www.w3.org/1999/xlink">
<title>Edit</title>
<desc>Created using Figma</desc>
<g id="Canvas" transform="translate(-9502 6699)">
<g id="Edit">
<mask id="mask0_outline" mask-type="alpha">
<g id="Clip 2">
<use xlink:href="#path0_fill" transform="translate(9502 -6698.98)" fill="#FFFFFF"/>
</g>
</mask>
<g id="Fill 1" mask="url(#mask0_outline)">
<use xlink:href="#path1_fill" transform="translate(9502 -6698.98)" fill="#7262BF"/>
</g>
</g>
</g>
<defs>
<path id="path0_fill" fill-rule="evenodd" d="M 2.03e-19 0L 2.03e-19 10.954L 10.9826 10.954L 10.9826 1.65856e-15L 0 1.65856e-15L 2.03e-19 0Z"/>
<path id="path1_fill" fill-rule="evenodd" d="M 10.2728 0.709084C 9.32729 -0.236361 7.78969 -0.236361 6.84412 0.709084L 0.55777 6.97649C 0.508534 7.02548 0.478137 7.0885 0.468746 7.15622L 0.00306028 10.5968C -0.0109823 10.6948 0.0240949 10.7928 0.0919965 10.8605C 0.150507 10.9189 0.232422 10.954 0.314366 10.954C 0.328321 10.954 0.342363 10.954 0.356435 10.9516L 2.4347 10.6714C 2.60795 10.6482 2.72966 10.4894 2.70622 10.3166C 2.68279 10.144 2.52373 10.0226 2.35048 10.046L 0.684066 10.27L 1.00941 7.87038L 3.54181 10.3961C 3.60032 10.4544 3.68215 10.4894 3.76409 10.4894C 3.84604 10.4894 3.92798 10.4567 3.98649 10.3961L 10.2728 4.12868C 10.7315 3.67118 10.9843 3.06428 10.9843 2.41767C 10.9843 1.77109 10.7315 1.16417 10.2728 0.709084ZM 6.96593 1.47949L 8.02144 2.53228L 2.28508 8.25339L 1.22949 7.20072L 6.96593 1.47949ZM 3.76653 9.72867L 2.73438 8.69925L 8.4707 2.97803L 9.50286 4.00745L 3.76653 9.72867ZM 9.94231 3.5565L 7.41699 1.03788C 7.73766 0.774145 8.13787 0.629395 8.55921 0.629395C 9.03894 0.629395 9.4883 0.81619 9.82769 1.15232C 10.167 1.48844 10.3519 1.93898 10.3519 2.41743C 10.3519 2.83996 10.2069 3.2368 9.94231 3.5565Z"/>
</defs>
</svg>
