<svg width="10" height="11" viewBox="0 0 10 11" version="1.1" xmlns="http://www.w3.org/2000/svg" xmlns:xlink="http://www.w3.org/1999/xlink">
<title>Calendar Icon</title>
<desc>Created using Figma</desc>
<g id="Canvas" transform="translate(-6088 3399)">
<g id="Calendar Icon">
<g id="Shape">
<use xlink:href="#path0_fill" transform="translate(6088 -3399)" fill="#626262"/>
</g>
<g id="Rectangle-path">
<use xlink:href="#path1_fill" transform="translate(6090.22 -3394.05)" fill="#626262"/>
</g>
</g>
</g>
<defs>
<path id="path0_fill" fill-rule="evenodd" d="M 8.88889 1.1L 8.33333 1.1L 8.33333 0L 7.22222 0L 7.22222 1.1L 2.77778 1.1L 2.77778 0L 1.66667 0L 1.66667 1.1L 1.11111 1.1C 0.5 1.1 0 1.595 0 2.2L 0 9.9C 0 10.505 0.5 11 1.11111 11L 8.88889 11C 9.5 11 10 10.505 10 9.9L 10 2.2C 10 1.595 9.5 1.1 8.88889 1.1ZM 8.88911 9.9001L 1.11133 9.9001L 1.11133 3.8501L 8.88911 3.8501L 8.88911 9.9001Z"/>
<path id="path1_fill" fill-rule="evenodd" d="M 0 0L 0 2.75L 2.77778 2.75L 2.77778 0L 0 0Z"/>
</defs>
</svg>
