<?xml version="1.0" encoding="UTF-8"?>
<svg width="15px" height="15px" viewBox="0 0 15 15" version="1.1" xmlns="http://www.w3.org/2000/svg" xmlns:xlink="http://www.w3.org/1999/xlink">
    <!-- Generator: Sketch 46.2 (44496) - http://www.bohemiancoding.com/sketch -->
    <title>Clock Icon</title>
    <desc>Created with Sketch.</desc>
    <defs></defs>
    <g id="User-Interface" stroke="none" stroke-width="1" fill="none" fill-rule="evenodd">
        <g id="Student-Profile-(Conversations)-Mobile" transform="translate(-128.000000, -461.000000)" fill="#8045DD">
            <g id="Conversations" transform="translate(10.000000, 343.000000)">
                <g id="Forthcoming-Conferences">
                    <g id="Conversation-#1" transform="translate(0.000000, 23.000000)">
                        <g id="Duration" transform="translate(106.000000, 95.000000)">
                            <g id="Clock-Icon" transform="translate(12.000000, 0.000000)">
                                <path d="M7.5,0 C3.375,0 0,3.375 0,7.5 C0,11.625 3.375,15 7.5,15 C11.625,15 15,11.625 15,7.5 C15,3.375 11.625,0 7.5,0 L7.5,0 Z M7.5,13.5 C4.2,13.5 1.5,10.8 1.5,7.5 C1.5,4.2 4.2,1.5 7.5,1.5 C10.8,1.5 13.5,4.2 13.5,7.5 C13.5,10.8 10.8,13.5 7.5,13.5 L7.5,13.5 Z" id="Shape"></path>
                                <polygon id="Shape" points="7.875 3.75 6.75 3.75 6.75 8.25 10.65 10.65 11.25 9.675 7.875 7.65"></polygon>
                            </g>
                        </g>
                    </g>
                </g>
            </g>
        </g>
    </g>
</svg>