<svg width="38" height="38" viewBox="0 0 38 38" version="1.1" xmlns="http://www.w3.org/2000/svg" xmlns:xlink="http://www.w3.org/1999/xlink">
<title>Group</title>
<desc>Created using Figma</desc>
<g id="Canvas" transform="translate(-4617 -1080)">
<g id="Group">
<g id="Oval" filter="url(#filter0_d)">
<use xlink:href="#path0_fill" transform="translate(4626 1089)" fill="#FFFFFF"/>
</g>
<g id="edit (1)">
<mask id="mask0_outline" mask-type="alpha">
<g id="Clip 2">
<use xlink:href="#path1_fill" transform="translate(4630 1094.02)" fill="#FFFFFF"/>
</g>
</mask>
<g id="Fill 1" mask="url(#mask0_outline)">
<use xlink:href="#path2_fill" transform="translate(4630 1094.02)" fill="#7262BF"/>
</g>
</g>
</g>
</g>
<defs>
<filter id="filter0_d" filterUnits="userSpaceOnUse" x="4617" y="1080" width="38" height="38" color-interpolation-filters="sRGB">
<feFlood flood-opacity="0" result="BackgroundImageFix"/>
<feColorMatrix in="SourceAlpha" type="matrix" values="0 0 0 0 0 0 0 0 0 0 0 0 0 0 0 0 0 0 255 0"/>
<feOffset dx="0" dy="0"/>
<feGaussianBlur stdDeviation="4.5"/>
<feColorMatrix type="matrix" values="0 0 0 0 0 0 0 0 0 0 0 0 0 0 0 0 0 0 0.1 0"/>
<feBlend mode="normal" in2="BackgroundImageFix" result="effect1_dropShadow"/>
<feBlend mode="normal" in="SourceGraphic" in2="effect1_dropShadow" result="shape"/>
</filter>
<path id="path0_fill" fill-rule="evenodd" d="M 10 20C 15.5228 20 20 15.5228 20 10C 20 4.47715 15.5228 0 10 0C 4.47715 0 0 4.47715 0 10C 0 15.5228 4.47715 20 10 20Z"/>
<path id="path1_fill" fill-rule="evenodd" d="M 2.03e-19 0L 2.03e-19 10.954L 10.9826 10.954L 10.9826 1.65856e-15L 0 1.65856e-15L 2.03e-19 0Z"/>
<path id="path2_fill" fill-rule="evenodd" d="M 10.2728 0.709084C 9.32729 -0.236361 7.78969 -0.236361 6.84412 0.709084L 0.55777 6.97649C 0.508534 7.02548 0.478137 7.0885 0.468746 7.15622L 0.00306028 10.5968C -0.0109823 10.6948 0.0240949 10.7928 0.0919965 10.8605C 0.150507 10.9189 0.232422 10.954 0.314366 10.954C 0.328321 10.954 0.342363 10.954 0.356435 10.9516L 2.4347 10.6714C 2.60795 10.6482 2.72966 10.4894 2.70622 10.3166C 2.68279 10.144 2.52373 10.0226 2.35048 10.046L 0.684066 10.27L 1.00941 7.87038L 3.54181 10.3961C 3.60032 10.4544 3.68215 10.4894 3.76409 10.4894C 3.84604 10.4894 3.92798 10.4567 3.98649 10.3961L 10.2728 4.12868C 10.7315 3.67118 10.9843 3.06428 10.9843 2.41767C 10.9843 1.77109 10.7315 1.16417 10.2728 0.709084ZM 6.96593 1.47937L 8.02144 2.53216L 2.28508 8.25327L 1.22949 7.2006L 6.96593 1.47937ZM 3.76653 9.72855L 2.73438 8.69913L 8.4707 2.97791L 9.50286 4.00732L 3.76653 9.72855ZM 9.9428 3.55675L 7.41748 1.03813C 7.73815 0.774389 8.13836 0.629639 8.5597 0.629639C 9.03942 0.629639 9.48879 0.816434 9.82818 1.15256C 10.1675 1.48869 10.3524 1.93922 10.3524 2.41768C 10.3524 2.8402 10.2074 3.23705 9.9428 3.55675Z"/>
</defs>
</svg>
