<?xml version="1.0" encoding="UTF-8" standalone="no"?>
<svg width="92px" height="26px" viewBox="0 0 92 26" version="1.1" xmlns="http://www.w3.org/2000/svg" xmlns:xlink="http://www.w3.org/1999/xlink">
    <!-- Generator: Sketch 43.1 (39012) - http://www.bohemiancoding.com/sketch -->
    <title>Page 1</title>
    <desc>Created with Sketch.</desc>
    <defs>
        <polygon id="path-1" points="0 25.7819569 91.5354 25.7819569 91.5354 0.000152941177 0 0.000152941177"></polygon>
    </defs>
    <g id="finals" stroke="none" stroke-width="1" fill="none" fill-rule="evenodd">
        <g id="Large-Screen-Copy-16" transform="translate(-16.000000, -12.000000)">
            <g id="Page-1" transform="translate(16.000000, 12.000000)">
                <path d="M37.53646,12.5237922 C37.5037489,11.6571255 36.8679267,10.8567333 35.7813044,10.8567333 C34.6783267,10.8567333 33.9765711,11.5735176 33.8763933,12.5237922 L37.53646,12.5237922 Z M31.5370378,13.3741451 C31.5370378,10.9566549 33.2415933,9.0066549 35.8825044,9.0066549 C38.40586,9.0066549 39.85946,11.0402627 39.85946,13.4072824 L39.85946,14.0241451 L33.8763933,14.0241451 C34.1273489,15.2079098 35.2471933,15.7579882 36.6675711,15.7579882 C37.6703711,15.7579882 38.58986,15.4577137 39.3411933,15.0243804 L39.3411933,16.9081059 C38.6563044,17.4245373 37.4531489,17.7584588 36.16566,17.7584588 C33.6423044,17.7584588 31.5370378,16.0914 31.5370378,13.3741451 Z" id="Fill-1" fill="#FFFFFF"></path>
                <path d="M47.7816311,14.4574275 L47.7816311,12.290251 C47.4304978,11.640251 46.6786533,11.0565255 45.7090756,11.0565255 C44.3888756,11.0565255 43.4530311,12.0735843 43.4530311,13.3740941 C43.4530311,14.6909176 44.3888756,15.7074667 45.7090756,15.7074667 C46.6786533,15.7074667 47.4304978,15.1247608 47.7816311,14.4574275 M41.1131644,13.3740941 C41.1131644,10.9402902 42.7344089,9.00660392 45.0410533,9.00660392 C46.4450756,9.00660392 47.3134533,9.63978039 47.7816311,10.2403294 L47.7816311,5.87232941 L50.1383644,5.87232941 L50.1383644,17.5417412 L47.7816311,17.5417412 L47.7816311,16.5246824 C47.3134533,17.1415451 46.4450756,17.7584078 45.0410533,17.7584078 C42.7344089,17.7584078 41.1131644,15.8247216 41.1131644,13.3740941" id="Fill-3" fill="#FFFFFF"></path>
                <path d="M60.4835089,9.22301569 L60.4835089,17.5414863 L58.1267756,17.5414863 L58.1267756,16.541251 C57.5415533,17.1749373 56.6563089,17.7581529 55.3355978,17.7581529 C53.3800867,17.7581529 52.2939756,16.4245059 52.2939756,14.3241137 L52.2939756,9.22301569 L54.6507089,9.22301569 L54.6507089,13.8408196 C54.6507089,15.2743882 55.5190867,15.6078 56.2377089,15.6078 C57.00642,15.6078 57.74242,15.1076824 58.1267756,14.5239569 L58.1267756,9.22301569 L60.4835089,9.22301569 Z" id="Fill-5" fill="#FFFFFF"></path>
                <mask id="mask-2" fill="white">
                    <use xlink:href="#path-1"></use>
                </mask>
                <g id="Clip-8"></g>
                <path d="M62.9065333,17.5414863 L65.2632667,17.5414863 L65.2632667,9.22301569 L62.9065333,9.22301569 L62.9065333,17.5414863 Z M62.6729556,7.02270196 C62.6729556,6.2223098 63.2908889,5.60544706 64.0764667,5.60544706 C64.8620444,5.60544706 65.4804889,6.2223098 65.4804889,7.02270196 C65.4804889,7.80627059 64.8620444,8.42313333 64.0764667,8.42313333 C63.2908889,8.42313333 62.6729556,7.80627059 62.6729556,7.02270196 L62.6729556,7.02270196 Z" id="Fill-7" fill="#FFFFFF" mask="url(#mask-2)"></path>
                <path d="M74.3713689,13.3740941 C74.3713689,12.0735843 73.4360356,11.0565255 72.1153244,11.0565255 C71.1457467,11.0565255 70.3944133,11.640251 70.0427689,12.290251 L70.0427689,14.4574275 C70.3944133,15.1247608 71.1457467,15.7074667 72.1153244,15.7074667 C73.4360356,15.7074667 74.3713689,14.6909176 74.3713689,13.3740941 M70.0427689,16.5246824 L70.0427689,17.5417412 L67.6865467,17.5417412 L67.6865467,5.87232941 L70.0427689,5.87232941 L70.0427689,10.2403294 C70.5109467,9.63978039 71.3798356,9.00660392 72.7843689,9.00660392 C75.0899911,9.00660392 76.7112356,10.9402902 76.7112356,13.3740941 C76.7112356,15.8247216 75.0899911,17.7584078 72.7843689,17.7584078 C71.3798356,17.7584078 70.5109467,17.1415451 70.0427689,16.5246824" id="Fill-9" fill="#FFFFFF" mask="url(#mask-2)"></path>
                <path d="M78.4492689,15.4576627 L78.4492689,5.87232941 L80.8060022,5.87232941 L80.8060022,14.8408 C80.8060022,15.441349 81.14078,15.6748392 81.5578467,15.6748392 C81.77558,15.6748392 81.9928022,15.6243686 82.1599356,15.5244471 L82.1599356,17.4581333 C81.7587133,17.6579765 81.2240911,17.7584078 80.6726022,17.7584078 C79.5358911,17.7584078 78.4492689,17.2582902 78.4492689,15.4576627" id="Fill-10" fill="#FFFFFF" mask="url(#mask-2)"></path>
                <path d="M89.2125533,12.5237922 C89.1798422,11.6571255 88.54402,10.8567333 87.4573978,10.8567333 C86.35442,10.8567333 85.6526644,11.5735176 85.5524867,12.5237922 L89.2125533,12.5237922 Z M83.2131311,13.3741451 C83.2131311,10.9566549 84.9176867,9.0066549 87.5585978,9.0066549 C90.0819533,9.0066549 91.5355533,11.0402627 91.5355533,13.4072824 L91.5355533,14.0241451 L85.5524867,14.0241451 C85.8034422,15.2079098 86.9232867,15.7579882 88.3436644,15.7579882 C89.3464644,15.7579882 90.2659533,15.4577137 91.0172867,15.0243804 L91.0172867,16.9081059 C90.3323978,17.4245373 89.1292422,17.7584588 87.8417533,17.7584588 C85.3183978,17.7584588 83.2131311,16.0914 83.2131311,13.3741451 L83.2131311,13.3741451 Z" id="Fill-11" fill="#FFFFFF" mask="url(#mask-2)"></path>
                <path d="M3.83241333,12.8909529 C3.83241333,7.89079608 7.91108,3.82256078 12.9240578,3.82256078 L12.9240578,5.09803922e-05 C5.79763556,5.09803922e-05 0.000102222222,5.78275686 0.000102222222,12.8909529 C0.000102222222,19.999149 5.79763556,25.7818549 12.9240578,25.7818549 L12.9240578,21.9593451 C7.91108,21.9593451 3.83241333,17.8911098 3.83241333,12.8909529" id="Fill-12" fill="#FFFFFF" mask="url(#mask-2)"></path>
                <path d="M8.95195778,12.8909529 C8.95195778,15.0790314 10.7301133,16.8526392 12.9238022,16.8526392 L12.9238022,8.92926667 C10.7301133,8.92926667 8.95195778,10.7028745 8.95195778,12.8909529" id="Fill-13" fill="#FFFFFF" mask="url(#mask-2)"></path>
                <path d="M22.0154978,12.8909529 C22.0154978,17.8911098 17.9368311,21.9593451 12.9238533,21.9593451 L12.9238533,25.7818549 C20.0502756,25.7818549 25.8478089,19.999149 25.8478089,12.8909529 C25.8478089,5.78275686 20.0502756,5.09803922e-05 12.9238533,5.09803922e-05 L12.9238533,3.82256078 C17.9368311,3.82256078 22.0154978,7.89079608 22.0154978,12.8909529" id="Fill-14" fill="#FFFFFF" opacity="0.355818563" mask="url(#mask-2)"></path>
                <path d="M16.8959533,12.8910039 C16.8959533,10.7029255 15.1177978,8.92931765 12.9241089,8.92931765 L12.9241089,16.8526902 C15.1177978,16.8526902 16.8959533,15.0790824 16.8959533,12.8910039" id="Fill-15" fill="#FFFFFF" opacity="0.355818563" mask="url(#mask-2)"></path>
            </g>
        </g>
    </g>
</svg>