<?xml version="1.0" encoding="UTF-8"?>
<svg width="35px" height="35px" viewBox="0 0 35 35" version="1.1" xmlns="http://www.w3.org/2000/svg" xmlns:xlink="http://www.w3.org/1999/xlink">
    <!-- Generator: Sketch 43.1 (39012) - http://www.bohemiancoding.com/sketch -->
    <title>Send Button</title>
    <desc>Created with Sketch.</desc>
    <defs></defs>
    <g id="Page-1" stroke="none" stroke-width="1" fill="none" fill-rule="evenodd">
        <g id="Video-Chat-Mobile" transform="translate(-232.000000, -394.000000)">
            <g id="Text-Chat" transform="translate(39.000000, 374.000000)">
                <g id="Input" transform="translate(15.000000, 20.000000)">
                    <g id="Send-Button" transform="translate(178.000000, 0.000000)">
                        <rect id="Button" fill="#8045DD" x="0" y="0" width="35" height="35"></rect>
                        <path d="M16.7687373,23.6342645 L17.1414156,21.2103552 L18.3338662,21.6784536 L16.7687373,23.6342645 L16.7687373,23.6342645 Z M22.0234413,13.4027149 L16.6607146,20.6162304 C16.6319086,20.6582392 16.6139048,20.700248 16.6061032,20.7482581 C16.6061032,20.7482581 16.6049029,20.7482581 16.6049029,20.7542594 L16.1932164,23.4248205 L15.144196,20.2801598 L22.0234413,13.4027149 L22.0234413,13.4027149 Z M24.9994666,10.2880605 C24.9994666,10.2754579 25.0006668,10.2700567 24.9994666,10.2580542 C24.9982663,10.2460517 24.9946655,10.2400504 24.9928652,10.2280479 C24.9892644,10.2160454 24.9844634,10.2040429 24.9790623,10.1860391 C24.9772619,10.1860391 24.9766618,10.1800378 24.9754615,10.1800378 C24.9724609,10.1680353 24.9718608,10.162034 24.9688601,10.1560328 C24.9640591,10.1500315 24.9562575,10.138029 24.9502562,10.1314276 C24.9460553,10.1260265 24.9448551,10.1200252 24.9406542,10.114024 C24.9358532,10.1080227 24.9298519,10.1020214 24.9250509,10.1020214 C24.9178494,10.0900189 24.9118481,10.0840177 24.9028463,10.0720151 C24.901646,10.0720151 24.9010459,10.0720151 24.8992455,10.0660139 C24.8926441,10.0600126 24.8842423,10.0600126 24.8770408,10.0540113 C24.8656384,10.0480101 24.8548362,10.0420088 24.8422335,10.0360076 C24.8356321,10.0300063 24.8308311,10.024005 24.8236296,10.024005 C24.8194287,10.0180038 24.8152278,10.0180038 24.811027,10.0180038 C24.8002247,10.0120025 24.7900226,10.0120025 24.7798204,10.0120025 C24.7678179,10.0060013 24.7564155,10.0060013 24.744413,10 L24.7060049,10 L24.6735981,10 C24.6633959,10 24.6537939,10 24.6435918,10.0060013 C24.6291888,10.0060013 24.615986,10.0120025 24.6021831,10.0180038 C24.5913808,10.0180038 24.5811787,10.024005 24.5709765,10.0300063 C24.5643751,10.0300063 24.5577738,10.0360076 24.5517725,10.0360076 L10.1487465,18.4377727 C10.0467251,18.4977853 9.98911299,18.6118093 10.0017156,18.7258332 C10.013118,18.8458584 10.0929348,18.9478799 10.2051584,18.9838874 L14.563274,20.4361926 L16.0161792,24.7931079 C16.0185797,24.7991092 16.024581,24.7991092 16.0263814,24.8051104 C16.0449853,24.8531205 16.0713908,24.9011306 16.1133997,24.9311369 C16.1164003,24.9371382 16.120001,24.9371382 16.1230017,24.9371382 C16.1272026,24.9431394 16.1326037,24.9431394 16.1374047,24.9491407 C16.1878153,24.979147 16.243627,24.9971508 16.3012391,24.9971508 L16.3264444,24.9971508 C16.3618519,24.9971508 16.3954589,24.9845481 16.4266655,24.9731457 C16.4308664,24.9671445 16.4344671,24.9671445 16.438668,24.9611432 C16.4710748,24.9431394 16.4986806,24.9251357 16.5220855,24.8951294 C16.5262864,24.8951294 16.5316875,24.8891281 16.5358884,24.8891281 L18.9207895,21.9065015 L22.193277,23.1787688 C22.2286844,23.1907713 22.2652921,23.1967725 22.3024999,23.1967725 C22.3529105,23.1967725 22.402721,23.1841699 22.4477305,23.160765 C22.5257468,23.1187562 22.5809584,23.0407398 22.5971618,22.9567221 L24.9976662,10.3540744 C24.9988664,10.3480731 24.9970661,10.3420719 24.9982663,10.3300693 C25.0000667,10.3180668 25.0000667,10.3060643 24.9994666,10.2880605 L24.9994666,10.2880605 Z" id="Send-Icon" fill="#FFFFFF"></path>
                    </g>
                </g>
            </g>
        </g>
    </g>
</svg>