<svg width="734" height="172" viewBox="0 0 734 172" version="1.1" xmlns="http://www.w3.org/2000/svg" xmlns:xlink="http://www.w3.org/1999/xlink">
<title>Group 7</title>
<desc>Created using Figma</desc>
<g id="Canvas" transform="translate(-5636 -66)">
<g id="Group 7">
<g id="Rectangle" filter="url(#filter0_d)">
<use xlink:href="#path0_fill" transform="translate(5638.81 66.8116)" fill="#FFFFFF"/>
</g>
<g id="Rectangle 2">
<use xlink:href="#path1_fill" transform="translate(5639 66)" fill="url(#paint1_linear)"/>
</g>
<g id="Fill 1" opacity="0.738573">
<use xlink:href="#path2_fill" transform="translate(6230.11 88.7246)" fill="#FFFFFF"/>
</g>
<g id="Fill 1" opacity="0.738573">
<use xlink:href="#path3_fill" transform="translate(6064.64 81.4203)" fill="#FFFFFF"/>
</g>
<g id="Fill 1" opacity="0.738573">
<use xlink:href="#path4_fill" transform="translate(5853.76 79.7971)" fill="#FFFFFF"/>
</g>
<g id="Fill 1" opacity="0.738573">
<use xlink:href="#path5_fill" transform="translate(5664.35 84.6667)" fill="#FFFFFF"/>
</g>
<g id="Fill 1" opacity="0.738573">
<use xlink:href="#path6_fill" transform="translate(5998.94 147.159)" fill="#FFFFFF"/>
</g>
<g id="Page 1" opacity="0.738573">
<g id="Group 3">
<mask id="mask0_outline" mask-type="alpha">
<g id="Clip 2">
<use xlink:href="#path7_fill" transform="translate(5759 118.128)" fill="#FFFFFF"/>
</g>
</mask>
<g id="Fill 1" mask="url(#mask0_outline)">
<use xlink:href="#path8_fill" transform="translate(5759 118.128)" fill="#FFFFFF"/>
</g>
</g>
<g id="Fill 4">
<use xlink:href="#path9_fill" transform="translate(5763.19 134.259)" fill="#FFFFFF"/>
</g>
<g id="Fill 6">
<use xlink:href="#path10_fill" transform="translate(5762.87 119.115)" fill="#FFFFFF"/>
</g>
<g id="Fill 8">
<use xlink:href="#path11_fill" transform="translate(5765.13 119.115)" fill="#FFFFFF"/>
</g>
<g id="Group 12">
<mask id="mask1_outline" mask-type="alpha">
<g id="Clip 11">
<use xlink:href="#path12_fill" transform="translate(5772.53 119.538)" fill="#FFFFFF"/>
</g>
</mask>
<g id="Fill 10" mask="url(#mask1_outline)">
<use xlink:href="#path13_fill" transform="translate(5772.53 119.538)" fill="#FFFFFF"/>
</g>
</g>
<g id="Fill 13">
<use xlink:href="#path14_fill" transform="translate(5771.17 120.287)" fill="#FFFFFF"/>
</g>
<g id="Group 17">
<mask id="mask2_outline" mask-type="alpha">
<g id="Clip 16">
<use xlink:href="#path15_fill" transform="translate(5754.8 119.538)" fill="#FFFFFF"/>
</g>
</mask>
<g id="Fill 15" mask="url(#mask2_outline)">
<use xlink:href="#path16_fill" transform="translate(5754.8 119.538)" fill="#FFFFFF"/>
</g>
</g>
<g id="Fill 18">
<use xlink:href="#path17_fill" transform="translate(5756.44 120.196)" fill="#FFFFFF"/>
</g>
</g>
<g id="Page 1" opacity="0.738573">
<g id="Fill 1">
<use xlink:href="#path18_fill" transform="translate(6315.52 140.288)" fill="#FFFFFF"/>
</g>
<g id="Fill 3">
<use xlink:href="#path19_fill" transform="translate(6315.52 138.124)" fill="#FFFFFF"/>
</g>
<g id="Fill 5">
<use xlink:href="#path20_fill" transform="translate(6315.52 142.452)" fill="#FFFFFF"/>
</g>
<g id="Fill 7">
<use xlink:href="#path21_fill" transform="translate(6315.52 144.617)" fill="#FFFFFF"/>
</g>
<g id="Fill 9">
<use xlink:href="#path22_fill" transform="translate(6315.52 146.781)" fill="#FFFFFF"/>
</g>
<g id="Group 13">
<mask id="mask3_outline" mask-type="alpha">
<g id="Clip 12">
<use xlink:href="#path23_fill" transform="translate(6312.03 133.524)" fill="#FFFFFF"/>
</g>
</mask>
<g id="Fill 11" mask="url(#mask3_outline)">
<use xlink:href="#path24_fill" transform="translate(6312.03 133.524)" fill="#FFFFFF"/>
</g>
</g>
</g>
<g id="Page 1">
<g id="Fill 1">
<use xlink:href="#path25_fill" transform="translate(5880.96 116.324)" fill="#FFFFFF"/>
</g>
<g id="Fill 3">
<use xlink:href="#path26_fill" transform="translate(5888.73 113.78)" fill="#FFFFFF"/>
</g>
<g id="Fill 5">
<use xlink:href="#path27_fill" transform="translate(5897.79 116.5)" fill="#FFFFFF"/>
</g>
<mask id="mask4_outline" mask-type="alpha">
<g id="Clip 8">
<use xlink:href="#path28_fill" transform="translate(5855.38 109.015)" fill="#FFFFFF"/>
</g>
</mask>
<g id="Fill 7" mask="url(#mask4_outline)">
<use xlink:href="#path29_fill" transform="translate(5906.21 113.564)" fill="#FFFFFF"/>
</g>
<g id="Fill 9" mask="url(#mask4_outline)">
<use xlink:href="#path30_fill" transform="translate(5910.28 113.78)" fill="#FFFFFF"/>
</g>
<g id="Fill 10" mask="url(#mask4_outline)">
<use xlink:href="#path31_fill" transform="translate(5919.01 113.78)" fill="#FFFFFF"/>
</g>
<g id="Fill 11" mask="url(#mask4_outline)">
<use xlink:href="#path25_fill" transform="translate(5922.87 116.324)" fill="#FFFFFF"/>
</g>
</g>
<g id="- connecting and nav">
<use xlink:href="#path32_fill" transform="translate(5936.49 109.638)" fill="#FFFFFF"/>
</g>
<g id="Group">
<g id="Fill 12">
<use xlink:href="#path33_fill" transform="translate(5863.49 113.072)" fill="#FFFFFF"/>
</g>
<g id="Fill 13">
<use xlink:href="#path34_fill" transform="translate(5867.96 117.532)" fill="#FFFFFF"/>
</g>
<g id="Fill 14" opacity="0.355819">
<use xlink:href="#path35_fill" transform="translate(5869.94 113.072)" fill="#FFFFFF"/>
</g>
<g id="Fill 15" opacity="0.355819">
<use xlink:href="#path36_fill" transform="translate(5869.94 117.532)" fill="#FFFFFF"/>
</g>
</g>
</g>
</g>
<defs>
<filter id="filter0_d" filterUnits="userSpaceOnUse" x="5636" y="66" width="734" height="172" color-interpolation-filters="sRGB">
<feFlood flood-opacity="0" result="BackgroundImageFix"/>
<feColorMatrix in="SourceAlpha" type="matrix" values="0 0 0 0 0 0 0 0 0 0 0 0 0 0 0 0 0 0 255 0"/>
<feOffset dx="0" dy="2"/>
<feGaussianBlur stdDeviation="1"/>
<feColorMatrix type="matrix" values="0 0 0 0 0 0 0 0 0 0 0 0 0 0 0 0 0 0 0.122849 0"/>
<feBlend mode="normal" in2="BackgroundImageFix" result="effect1_dropShadow"/>
<feBlend mode="normal" in="SourceGraphic" in2="effect1_dropShadow" result="shape"/>
</filter>
<linearGradient id="paint1_linear" x1="0" y1="0" x2="1" y2="0" gradientUnits="userSpaceOnUse" gradientTransform="matrix(496.827 0 0 70.7805 2.2325e-14 51.942)">
<stop offset="0" stop-color="#8D55E6"/>
<stop offset="1" stop-color="#AD8EE0"/>
</linearGradient>
<path id="path0_fill" fill-rule="evenodd" d="M 0 4C 0 1.79086 1.79086 0 4 0L 725.189 0C 727.398 0 729.189 1.79086 729.189 4L 729.189 163.188C 729.189 165.398 727.398 167.188 725.189 167.188L 4 167.188C 1.79086 167.188 0 165.398 0 163.188L 0 4Z"/>
<path id="path1_fill" fill-rule="evenodd" d="M 0 4C 0 1.79086 1.79086 0 4 0L 725.189 0C 727.398 0 729.189 1.79086 729.189 4L 729.189 103.884L 0 103.884L 0 4Z"/>
<path id="path2_fill" fill-rule="evenodd" d="M 5.48883 12.5488C 4.92588 13.1079 4.1743 13.4158 3.37288 13.4158C 2.56985 13.4158 1.81854 13.1079 1.25692 12.5488C 0.693975 11.9897 0.383964 11.2436 0.383964 10.4474C 0.383964 9.65093 0.693975 8.90476 1.25692 8.34567L 8.68647 0.965705C 9.0632 0.591557 9.55943 0.38559 10.0838 0.38559C 10.6642 0.38559 11.2314 0.631474 11.681 1.078C 12.5658 1.95802 12.6143 3.23614 11.7941 4.05069L 4.81227 10.9844C 4.60863 11.1864 4.33721 11.2979 4.04783 11.2979C 3.75872 11.2979 3.48702 11.1864 3.28285 10.9844C 3.07841 10.7814 2.96614 10.5113 2.96614 10.2239C 2.96614 9.93646 3.07841 9.66663 3.28285 9.46385L 8.01099 4.76785C 8.04743 4.73193 8.06726 4.68403 8.06726 4.6332C 8.06726 4.58211 8.04743 4.53394 8.01099 4.49802C 7.93864 4.4259 7.81271 4.42617 7.73876 4.49855L 3.01115 9.19429C 2.4407 9.76163 2.4407 10.685 3.01115 11.2529C 3.2874 11.5273 3.65529 11.6784 4.04729 11.6784C 4.43929 11.6784 4.80745 11.5273 5.08397 11.2529L 12.0639 4.32026C 13.0395 3.35163 12.9915 1.84147 11.9524 0.807903C 11.427 0.28713 10.7633 0 10.0838 0C 9.4603 0 8.86814 0.247214 8.41612 0.695872L 0.98523 8.07717C 0.349935 8.70678 0 9.54848 0 10.4474C 0 11.3463 0.349935 12.1885 0.98523 12.8187C 1.61918 13.4496 2.46696 13.7972 3.37288 13.7972C 4.27772 13.7972 5.12523 13.4496 5.75919 12.8187L 13.1901 5.43871C 13.2265 5.40252 13.2466 5.35435 13.2463 5.30326C 13.2463 5.2527 13.2262 5.2056 13.1906 5.17074C 13.1167 5.09596 12.9913 5.09676 12.9186 5.16994L 5.48883 12.5488Z"/>
<path id="path3_fill" fill-rule="evenodd" d="M 13.0363 12.7191L 12.9327 12.8295L 12.8193 12.7289C 12.3381 12.3001 11.8057 11.934 11.2377 11.6399L 11.124 11.5813L 11.1596 11.4584C 11.4569 10.4298 11.629 9.25482 11.6573 8.05963L 11.6609 7.90753L 15.0243 7.90753L 15.0159 8.07111C 14.9275 9.80185 14.2243 11.4525 13.0363 12.7191ZM 12.5153 13.2177C 11.7012 13.9331 10.7226 14.4639 9.68513 14.7532L 9.10986 14.9137L 9.53396 14.493C 9.90236 14.1272 10.2402 13.6429 10.5378 13.053C 10.6775 12.7796 10.8121 12.4679 10.9381 12.1253L 11.0003 11.9572L 11.1579 12.0421C 11.643 12.3032 12.0996 12.6199 12.5153 12.9835L 12.6485 13.1006L 12.5153 13.2177ZM 7.90625 14.9546L 7.90625 11.1842L 8.06973 11.1923C 8.91793 11.2351 9.7373 11.4183 10.5054 11.7371L 10.6423 11.7939L 10.5922 11.9334C 10.4693 12.2754 10.333 12.5956 10.1869 12.8852C 9.60489 14.0364 8.88182 14.7372 8.09549 14.9123L 7.90625 14.9546ZM 7.90332 7.90753L 11.2628 7.90753L 11.2592 8.06691C 11.2331 9.19488 11.0811 10.2651 10.8076 11.248L 10.7609 11.4158L 10.5996 11.3508C 9.78784 11.0237 8.9304 10.8374 8.05169 10.7968L 7.90332 10.7898L 7.90332 7.90753ZM 7.90332 4.65611L 8.05169 4.64911C 8.92648 4.60878 9.78476 4.42139 10.603 4.09199L 10.7645 4.02701L 10.811 4.19479C 11.0803 5.16814 11.2301 6.23168 11.2561 7.35657L 11.2597 7.51595L 7.90332 7.51595L 7.90332 4.65611ZM 7.90332 0.465805L 8.09284 0.50782C 8.87861 0.682883 9.60168 1.38398 10.1837 2.53519C 10.3373 2.83938 10.4762 3.16626 10.596 3.50742L 10.645 3.64635L 10.5087 3.70293C 9.73129 4.02393 8.90968 4.20823 8.0668 4.25053L 7.90332 4.25893L 7.90332 0.465805ZM 9.68241 0.667203C 10.7243 0.959348 11.7072 1.4935 12.5249 2.21252L 12.6578 2.32904L 12.5254 2.44612C 12.117 2.80661 11.6582 3.12565 11.1616 3.39399L 11.0023 3.47998L 10.9413 3.30968C 10.8223 2.9772 10.6854 2.65928 10.5351 2.36461C 10.2386 1.7778 9.90104 1.29463 9.53097 0.927697L 9.10547 0.505585L 9.68241 0.667203ZM 12.9393 2.60326L 13.0432 2.71418C 14.2262 3.97883 14.9246 5.62527 15.0097 7.34929L 15.0178 7.51259L 11.6547 7.51259L 11.6511 7.36077C 11.6228 6.16754 11.4529 4.99868 11.1598 3.98079L 11.1245 3.85783L 11.2382 3.79929C 11.8008 3.50994 12.3352 3.14161 12.826 2.70437L 12.9393 2.60326ZM 7.51169 4.25893L 7.34849 4.25053C 6.50169 4.20795 5.68009 4.02365 4.90607 3.70265L 4.77002 3.64635L 4.81901 3.50742C 4.93966 3.16486 5.07851 2.8377 5.23135 2.53519C 5.81333 1.38398 6.5364 0.682883 7.32246 0.50782L 7.51169 0.465805L 7.51169 4.25893ZM 7.51163 10.7903L 7.3627 10.7968C 6.48427 10.8343 5.62711 11.0206 4.81586 11.3505L 4.65434 11.4164L 4.60731 11.248C 4.33353 10.2651 4.18153 9.19488 4.15549 8.06691L 4.15186 7.90753L 7.51163 7.90753L 7.51163 10.7903ZM 7.51147 14.9546L 7.32223 14.9123C 6.53618 14.7372 5.81311 14.0364 5.23112 12.8852C 5.08332 12.5931 4.95063 12.2819 4.8255 11.9334L 4.77539 11.7939L 4.91228 11.7371C 5.68966 11.4147 6.50902 11.2315 7.34855 11.1923L 7.51147 11.1847L 7.51147 14.9546ZM 5.73215 14.756C 4.69527 14.4638 3.71718 13.9331 2.90285 13.221L 2.76904 13.1037L 2.90285 12.9866C 3.31827 12.623 3.77485 12.3065 4.26025 12.0455L 4.41786 11.9606L 4.47972 12.1286C 4.60541 12.4707 4.74006 12.7824 4.87947 13.0555C 5.17508 13.6406 5.51296 14.1249 5.88443 14.4963L 6.30573 14.9176L 5.73215 14.756ZM 2.48843 12.8297L 2.38458 12.7194C 1.19318 11.4525 0.489982 9.80185 0.404602 8.07083L 0.396484 7.90753L 3.75989 7.90753L 3.76353 8.05963C 3.79153 9.25426 3.96369 10.4298 4.26098 11.4584L 4.29681 11.5813L 4.18315 11.6399C 3.60761 11.9376 3.07518 12.304 2.60153 12.7286L 2.48843 12.8297ZM 0.404602 7.34929C 0.489982 5.62527 1.18842 3.97883 2.37142 2.71418L 2.475 2.60326L 2.58837 2.70437C 3.0707 3.13405 3.60537 3.50266 4.177 3.79957L 4.28981 3.85839L 4.25482 3.98051C 3.95837 5.01465 3.78845 6.18323 3.76353 7.36021L 3.76017 7.51259L 0.396484 7.51259L 0.404602 7.34929ZM 4.64392 4.02337L 4.80572 4.08891C 5.61697 4.41887 6.47497 4.60514 7.35592 4.64267L 7.50485 4.64911L 7.50485 7.35713L 7.35256 7.35713L 7.35256 7.51259L 4.14844 7.51259L 4.15236 7.35349C 4.17811 6.22832 4.32788 5.1645 4.59717 4.19171L 4.64392 4.02337ZM 2.88988 2.21252C 3.70728 1.4935 4.69013 0.959348 5.73205 0.667203L 6.30899 0.505585L 5.88377 0.927417C 5.51678 1.29155 5.1789 1.775 4.87965 2.36461C 4.7324 2.65928 4.59552 2.97804 4.47318 3.3108L 4.41132 3.47914L 4.25316 3.39399C 3.76495 3.13013 3.30614 2.81138 2.88988 2.4464L 2.75635 2.3296L 2.88988 2.21252ZM 13.153 2.25957C 11.7001 0.802489 9.76579 0 7.70575 0C 5.64571 0 3.71137 0.802489 2.25851 2.25957C 0.802011 3.71974 0 5.65552 0 7.71006C 0 9.77104 0.802011 11.7068 2.25823 13.1605C 3.71753 14.6179 5.65215 15.4204 7.70575 15.4204C 9.7655 15.4204 11.6999 14.6179 13.153 13.1608C 14.6092 11.7007 15.4112 9.76488 15.4112 7.71006C 15.4112 5.64908 14.6092 3.71358 13.153 2.25957Z"/>
<path id="path4_fill" fill-rule="evenodd" d="M 15.5363 4.80068L 8.53334 4.168C 8.42676 4.15749 8.33991 4.23594 8.33068 4.3372C 8.32146 4.43974 8.39729 4.53048 8.49977 4.53971L 14.9011 5.1183L 8.51668 8.31268L 0.604004 4.35386L 8.51668 0.395035L 16.4294 4.35386L 15.5363 4.80068ZM 16.1527 9.28554C 16.1527 9.60392 15.8939 9.86309 15.5757 9.86309C 15.2573 9.86309 14.9985 9.60392 14.9985 9.28554C 14.9985 8.96843 15.2563 8.70952 15.5732 8.70798L 15.5755 8.70798C 15.895 8.70952 16.1527 8.96843 16.1527 9.28554ZM 16.2195 12.2759L 14.9321 12.2759L 15.576 10.5768L 16.2195 12.2759ZM 13.7022 8.82667C 13.7022 9.46114 13.1662 10.0928 12.2316 10.5604C 11.2425 11.0554 9.92303 11.3279 8.51651 11.3279C 7.10998 11.3279 5.79056 11.0554 4.80138 10.5604C 3.86677 10.0928 3.33105 9.46114 3.33105 8.82667L 3.33105 6.1355L 8.43298 8.68824C 8.48448 8.71413 8.54827 8.71413 8.60003 8.68824L 13.7022 6.1355L 13.7022 8.82667ZM 16.9301 4.18646L 8.60006 0.0192263C 8.54831 -0.00640877 8.48477 -0.00640877 8.43302 0.0192263L 0.102992 4.18672C 0.0397107 4.21851 0 4.2826 0 4.35386C 0 4.42487 0.0394545 4.4887 0.102992 4.52049L 2.95781 5.94887L 2.95781 8.82667C 2.95781 10.4386 5.39963 11.7011 8.51654 11.7011C 11.6337 11.7011 14.0755 10.4386 14.0755 8.82667L 14.0755 5.94887L 15.3891 5.29159L 15.3891 8.34447L 15.2702 8.38523C 14.8843 8.51648 14.6253 8.87845 14.6253 9.28554C 14.6253 9.64981 14.8385 9.98691 15.1682 10.1446L 15.314 10.214L 14.4872 12.3964C 14.4655 12.4538 14.4734 12.5179 14.5082 12.5684C 14.5433 12.6191 14.6007 12.6494 14.6617 12.6494L 16.4897 12.6494C 16.5509 12.6494 16.6083 12.6191 16.6431 12.5686C 16.6782 12.5181 16.6859 12.4538 16.6642 12.3964L 15.8377 10.214L 15.9834 10.1446C 16.3132 9.98666 16.5263 9.64981 16.5263 9.28554C 16.5263 8.87845 16.267 8.51674 15.8812 8.38523L 15.7623 8.34447L 15.7623 5.10497L 16.9303 4.52075C 16.9936 4.48896 17.0333 4.42487 17.0333 4.35386C 17.0333 4.2826 16.9936 4.21851 16.9301 4.18646Z"/>
<path id="path5_fill" fill-rule="evenodd" d="M 8.0409 5.42718C 7.99798 5.48405 7.94302 5.51625 7.88109 5.52454L 7.85022 5.52642C 7.81389 5.52642 7.75968 5.51776 7.70735 5.47727L 5.74951 3.84516L 9.53718 0.434624L 10.5702 1.81232L 8.0409 5.42718ZM 6.53012 5.48348C 6.53012 5.61154 6.42584 5.71586 6.29746 5.71586L 4.66509 5.71586C 4.5369 5.71586 4.43262 5.61154 4.43262 5.48348L 4.43262 4.95301L 5.48128 4.07886L 6.53012 4.95301L 6.53012 5.48348ZM 6.93919 9.20456L 7.01882 11.6732L 4.12451 8.77746L 4.80197 6.06726L 6.16009 6.06726L 6.93919 9.20456ZM 7.08749 13.783L 3.97559 10.6696L 4.02396 9.17348L 7.03573 12.1863L 7.08749 13.783ZM 7.23656 18.4236L 3.83496 15.0204L 3.95976 11.1511L 7.10329 14.2962L 7.23656 18.4236ZM 7.30504 20.5331L 3.77148 16.9981L 3.81986 15.5017L 7.25327 18.9368L 7.30504 20.5331ZM 7.34372 21.7445L 5.48094 23.6081L 3.61816 21.7445L 3.75576 17.4796L 7.32132 21.0464L 7.34372 21.7445ZM 3.20357 5.52039L 3.11209 5.52642C 3.10343 5.52642 3.09458 5.52586 3.08517 5.52491C 3.01929 5.51625 2.96433 5.48405 2.9263 5.43358L 0.39209 1.81232L 1.42494 0.434624L 5.21298 3.84516L 3.20357 5.52039ZM 9.10486 0.351395L 5.48095 3.61373L 1.85742 0.351395L 9.10486 0.351395ZM 10.9272 1.70348L 9.70287 0.0702408C 9.67332 0.0308833 9.62852 0.00564939 9.57977 0.000941565L 1.4 0C 1.33393 0.00564939 1.28913 0.0308833 1.25939 0.0704291L 0.0351057 1.70348C -0.0104473 1.7643 -0.0117649 1.84716 0.0317174 1.90968L 2.63407 5.62849C 2.72744 5.762 2.87351 5.85089 3.03482 5.87254C 3.19558 5.89344 3.36141 5.84599 3.48621 5.74223L 4.02061 5.29687L 4.09854 5.62058C 4.13148 5.75805 4.21393 5.87876 4.33007 5.96067L 4.44621 6.04259L 3.6784 9.11529C 3.67558 9.12716 3.67369 9.13977 3.67332 9.15258L 3.26522 21.8093C 3.26353 21.8579 3.28235 21.9051 3.31624 21.9394L 5.35689 23.9807C 5.42315 24.0464 5.53892 24.047 5.60537 23.9805L 7.64602 21.9394C 7.68009 21.9051 7.69892 21.8579 7.69722 21.8095L 7.28913 9.1522C 7.28875 9.13977 7.28687 9.12716 7.28386 9.11529L 6.51605 6.04259L 6.63238 5.96067C 6.74833 5.87876 6.83059 5.75805 6.86391 5.62039L 6.94221 5.29706L 7.47642 5.74242C 7.60066 5.84599 7.7665 5.89476 7.92725 5.87235C 8.08875 5.85089 8.23482 5.762 8.32819 5.62849L 10.9307 1.90949C 10.9742 1.84716 10.9729 1.7643 10.9272 1.70348Z"/>
<path id="path6_fill" fill-rule="evenodd" d="M 13.7496 2.31135L 13.1069 1.66825L 14.3996 0.374893L 15.0423 1.01799L 13.7496 2.31135ZM 4.57134 12.1806L 3.2417 10.8503L 3.35313 10.739L 12.543 1.54517L 13.8726 2.87535L 4.57134 12.1806ZM 3.8997 12.8522C 3.31516 13.4373 2.62693 13.8835 1.8539 14.1785L 0.868164 14.555L 1.24444 13.5688C 1.53921 12.7959 1.98524 12.1074 2.57021 11.5223L 3.02139 11.0708L 4.35089 12.4011L 3.8997 12.8522ZM 14.5098 0.04417C 14.4505 -0.0148665 14.348 -0.01458 14.2893 0.04417L 12.8863 1.44772L 12.6531 1.21444C 12.6237 1.18507 12.5845 1.16873 12.543 1.16873C 12.5013 1.16873 12.4622 1.18507 12.4327 1.21444L 2.34946 11.3017C 1.73355 11.918 1.26375 12.6433 0.952932 13.4578L 0.523661 14.5832C 0.518075 14.5978 0.514924 14.6137 0.514065 14.6312L 0.51077 14.6918L 0.0455482 15.1571C -0.0151827 15.218 -0.0151827 15.3169 0.0455482 15.3778C 0.10456 15.4365 0.207116 15.4365 0.266128 15.3778L 0.731207 14.9124L 0.791651 14.9092C 0.808982 14.9085 0.825311 14.905 0.840064 14.8995L 1.96488 14.47C 2.77859 14.1593 3.50378 13.6893 4.12011 13.0728L 13.1514 4.03773L 13.2147 4.31644C 13.2926 4.66106 13.0847 5.15298 12.6972 5.54059L 10.0401 8.19881C 9.97936 8.25956 9.97936 8.35858 10.0402 8.41933C 10.099 8.47823 10.2015 8.47808 10.2607 8.41933L 12.9178 5.76111C 13.2139 5.46478 13.4221 5.113 13.5042 4.77053C 13.5781 4.46174 13.5409 4.17816 13.3993 3.97211L 13.325 3.86406L 14.203 2.98568C 14.2325 2.95616 14.2487 2.91704 14.2487 2.87534C 14.2487 2.83379 14.2325 2.79453 14.2032 2.76515L 13.97 2.53187L 15.373 1.12832C 15.4337 1.06742 15.4337 0.96855 15.3728 0.907651L 14.5098 0.04417Z"/>
<path id="path7_fill" fill-rule="evenodd" d="M 10.7268 0L 1.29747e-15 0L 0 19.495L 10.7268 19.495L 10.7268 0Z"/>
<path id="path8_fill" fill-rule="evenodd" d="M 10.334 1.32118L 10.334 1.97553L 0.394043 1.97553L 0.394043 1.32118C 0.394043 0.814452 0.798872 0.402107 1.29628 0.402107L 9.43048 0.402107C 9.92862 0.402107 10.334 0.814452 10.334 1.32118ZM 0.394043 15.144L 10.334 15.144L 10.334 2.37578L 0.394043 2.37578L 0.394043 15.144ZM 10.334 15.5438L 10.334 18.1741C 10.334 18.6808 9.92862 19.093 9.43048 19.093L 1.29628 19.093C 0.798872 19.093 0.394043 18.6808 0.394043 18.1741L 0.394043 15.5438L 10.334 15.5438ZM 9.43068 0L 1.29648 0C 0.581588 0 0 0.592734 0 1.32118L 0 18.1741C 0 18.9023 0.581588 19.4951 1.29648 19.4951L 9.43068 19.4951C 10.1454 19.4951 10.7268 18.9023 10.7268 18.1741L 10.7268 1.32118C 10.7268 0.592734 10.1454 0 9.43068 0Z"/>
<path id="path9_fill" fill-rule="evenodd" d="M 0.392578 1.1877C 0.392578 0.754504 0.739157 0.401917 1.16517 0.401917C 1.59045 0.401917 1.93648 0.754504 1.93648 1.1877C 1.93648 1.62201 1.59045 1.97572 1.16517 1.97572C 0.739157 1.97572 0.392578 1.62201 0.392578 1.1877ZM 1.165 2.37764C 1.80776 2.37764 2.33037 1.84392 2.33037 1.1877C 2.33037 0.532791 1.80776 0 1.165 0C 0.522608 0 0 0.532791 0 1.1877C 0 1.84392 0.522608 2.37764 1.165 2.37764Z"/>
<path id="path10_fill" fill-rule="evenodd" d="M 1.48839 0L 0.197028 0C 0.0885621 0 0 0.0901016 0 0.201053C 0 0.312005 0.0885621 0.402106 0.197028 0.402106L 1.48839 0.402106C 1.59722 0.402106 1.6856 0.312005 1.6856 0.201053C 1.6856 0.0901016 1.59722 0 1.48839 0Z"/>
<path id="path11_fill" fill-rule="evenodd" d="M 0.520051 0L 0.196845 0C 0.0881969 0 0 0.0901016 0 0.201053C 0 0.312005 0.0881969 0.402106 0.196845 0.402106L 0.520051 0.402106C 0.628882 0.402106 0.717262 0.312005 0.717262 0.201053C 0.717262 0.0901016 0.628882 0 0.520051 0Z"/>
<path id="path12_fill" fill-rule="evenodd" d="M 1.39306 2.91005e-14L 1.39306 5.32314L 0 5.32314L 0 0L 1.39306 0L 1.39306 2.91005e-14Z"/>
<path id="path13_fill" fill-rule="evenodd" d="M 0.336399 0.0566626C 0.262263 -0.0189185 0.132067 -0.0189185 0.0570176 0.0568487C -0.0191275 0.13485 -0.0189449 0.261625 0.0572002 0.33944C 1.31259 1.61892 1.31259 3.70224 0.0572002 4.98339C -0.0189449 5.0614 -0.0189449 5.18836 0.0575654 5.26654C 0.0928077 5.30229 0.143571 5.32314 0.196891 5.32314L 0.197074 5.32314C 0.250211 5.32314 0.300974 5.30229 0.336216 5.26654C 1.01787 4.57217 1.39312 3.64751 1.39312 2.66216C 1.39312 1.677 1.01787 0.751599 0.336399 0.0566626Z"/>
<path id="path14_fill" fill-rule="evenodd" d="M 0.0577023 0.0569883C 0.0206341 0.0945927 0.000365204 0.144856 0.000365204 0.198098C 0.000365204 0.251526 0.0206341 0.301603 0.0575197 0.339393C 0.480974 0.773147 0.713975 1.34838 0.713975 1.95899C 0.713975 2.56959 0.480974 3.14353 0.0575197 3.57542C -0.0191732 3.65398 -0.0191732 3.7815 0.0575197 3.85968C 0.0933097 3.89599 0.144073 3.91665 0.197028 3.91665C 0.249982 3.91665 0.300746 3.89599 0.336536 3.85968C 0.833214 3.35165 1.10675 2.67664 1.10675 1.95899C 1.10675 1.23892 0.833214 0.563344 0.336353 0.0568022C 0.260573 -0.0189651 0.131474 -0.0189651 0.0577023 0.0569883Z"/>
<path id="path15_fill" fill-rule="evenodd" d="M 0 5.32349L 0 5.29099e-15L 1.39105 0L 1.39105 5.32349L 6.58647e-17 5.32349L 0 5.32349Z"/>
<path id="path16_fill" fill-rule="evenodd" d="M 1.33382 0.339417C 1.41015 0.261602 1.41015 0.134641 1.33382 0.0564532C 1.25968 -0.0189417 1.13058 -0.0187556 1.05645 0.0566394C -0.352149 1.49324 -0.352149 3.83011 1.05645 5.26634C 1.0926 5.30319 1.14172 5.32349 1.19504 5.32349C 1.24763 5.32349 1.29839 5.30245 1.334 5.26615C 1.41015 5.18815 1.41015 5.06156 1.334 4.98337C 0.0789754 3.70389 0.0787928 1.62057 1.33382 0.339417Z"/>
<path id="path17_fill" fill-rule="evenodd" d="M 1.05088 0.0569418C 0.976374 -0.0190116 0.846544 -0.0190116 0.772042 0.057128C 0.274086 0.564415 0 1.23999 0 1.95931C 0 2.67901 0.274086 3.35403 0.772042 3.8602C 0.807285 3.89594 0.858048 3.91679 0.911368 3.91679C 0.964688 3.91679 1.01545 3.89594 1.05106 3.86001C 1.12739 3.78201 1.12739 3.65542 1.05088 3.57742C 0.627604 3.1472 0.394603 2.57271 0.394603 1.95931C 0.394603 1.34573 0.627604 0.771239 1.05106 0.341209C 1.12757 0.262835 1.12775 0.135315 1.05088 0.0569418Z"/>
<path id="path18_fill" fill-rule="evenodd" d="M 0 0.203009C 0 0.314862 0.0663043 0.405797 0.147663 0.405797L 6.84551 0.405797C 6.92703 0.405797 6.99318 0.314862 6.99318 0.203009C 6.99318 0.0911557 6.92703 0 6.84551 0L 0.147663 0C 0.0663043 0 0 0.0911557 0 0.203009Z"/>
<path id="path19_fill" fill-rule="evenodd" d="M 0.147663 0.405797L 2.8269 0.405797C 2.90826 0.405797 2.97456 0.314316 2.97456 0.201791C 2.97456 0.0905955 2.90826 0 2.8269 0L 0.147663 0C 0.0663043 0 0 0.0905955 0 0.201791C 0 0.314316 0.0663043 0.405797 0.147663 0.405797Z"/>
<path id="path20_fill" fill-rule="evenodd" d="M 6.84551 0L 0.147663 0C 0.0661441 0 0 0.0909849 0 0.202899C 0 0.314812 0.0661441 0.405797 0.147663 0.405797L 6.84551 0.405797C 6.92687 0.405797 6.99318 0.314812 6.99318 0.202899C 6.99318 0.0909849 6.92687 0 6.84551 0Z"/>
<path id="path21_fill" fill-rule="evenodd" d="M 6.84551 0L 0.147663 0C 0.0661441 0 0 0.0914816 0 0.204006C 0 0.315202 0.0661441 0.405797 0.147663 0.405797L 6.84551 0.405797C 6.92687 0.405797 6.99318 0.315202 6.99318 0.204006C 6.99318 0.0914816 6.92687 0 6.84551 0Z"/>
<path id="path22_fill" fill-rule="evenodd" d="M 6.84551 0L 0.147663 0C 0.0661441 0 0 0.0911557 0 0.203009C 0 0.314641 0.0661441 0.405797 0.147663 0.405797L 6.84551 0.405797C 6.92687 0.405797 6.99318 0.314641 6.99318 0.203009C 6.99318 0.0911557 6.92687 0 6.84551 0Z"/>
<path id="path23_fill" fill-rule="evenodd" d="M 12.618 15.9898L 0 15.9898L 0 0L 12.618 2.29839e-15L 12.618 15.9898Z"/>
<path id="path24_fill" fill-rule="evenodd" d="M 12.1159 5.14024L 8.86768 5.14024L 8.86768 1.85994L 12.1159 5.14024ZM 12.3243 15.6915L 1.63477 15.6915L 1.63477 1.65082L 8.57381 1.65082L 8.57381 5.43832L 12.3243 5.43832L 12.3243 15.6915ZM 1.33978 14.3387L 0.29541 14.3387L 0.29541 0.29808L 10.9851 0.29808L 10.9851 3.57806L 8.78139 1.35275L 1.33978 1.35275L 1.33978 14.3387ZM 11.2785 0L 0 0L 0 14.637L 1.33954 14.637L 1.33954 15.9899L 12.618 15.9899L 12.618 5.22742L 11.2785 3.87467L 11.2785 0Z"/>
<path id="path25_fill" fill-rule="evenodd" d="M 4.86618 2.85449C 4.83965 2.1511 4.32393 1.50151 3.44256 1.50151C 2.54792 1.50151 1.97872 2.08325 1.89746 2.85449L 4.86618 2.85449ZM 0 3.54463C 0 1.58261 1.38258 0 3.52466 0C 5.57138 0 6.75041 1.65046 6.75041 3.57152L 6.75041 4.07217L 1.89748 4.07217C 2.10103 5.0329 3.00935 5.47934 4.16143 5.47934C 4.97481 5.47934 5.72062 5.23564 6.33004 4.88395L 6.33004 6.41277C 5.77452 6.8319 4.79862 7.10291 3.75433 7.10291C 1.70761 7.10291 0 5.74994 0 3.54463Z"/>
<path id="path26_fill" fill-rule="evenodd" d="M 5.40893 6.96762L 5.40893 5.20875C 5.12412 4.68121 4.51429 4.20747 3.72785 4.20747C 2.65702 4.20747 1.89795 5.03291 1.89795 6.08839C 1.89795 7.15712 2.65702 7.98214 3.72785 7.98214C 4.51429 7.98214 5.12412 7.50922 5.40893 6.96762ZM 0 6.08839C 0 4.11313 1.31501 2.54376 3.18595 2.54376C 4.32477 2.54376 5.02912 3.05764 5.40887 3.54504L 5.40887 0L 7.32044 0L 7.32044 9.47083L 5.40887 9.47083L 5.40887 8.64539C 5.02912 9.14603 4.32477 9.64667 3.18595 9.64667C 1.31501 9.64667 0 8.0773 0 6.08839Z"/>
<path id="path27_fill" fill-rule="evenodd" d="M 6.64262 0L 6.64262 6.75122L 4.73105 6.75122L 4.73105 5.93944C 4.25637 6.45373 3.53834 6.92707 2.46709 6.92707C 0.880957 6.92707 0 5.84469 0 4.14002L 0 0L 1.91157 0L 1.91157 3.74778C 1.91157 4.91126 2.61592 5.18185 3.19881 5.18185C 3.82232 5.18185 4.41929 4.77596 4.73105 4.30221L 4.73105 0L 6.64262 0Z"/>
<path id="path28_fill" fill-rule="evenodd" d="M 0 20.9244L 74.2454 20.9244L 74.2454 0L 0 0L 0 20.9244Z"/>
<path id="path29_fill" fill-rule="evenodd" d="M 0.189453 9.68722L 2.10103 9.68722L 2.10103 2.936L 0.189453 2.936L 0.189453 9.68722ZM 0 1.15024C 0 0.500642 0.501213 0 1.1384 0C 1.77559 0 2.27722 0.500642 2.27722 1.15024C 2.27722 1.78618 1.77559 2.28682 1.1384 2.28682C 0.501213 2.28682 0 1.78618 0 1.15024Z"/>
<path id="path30_fill" fill-rule="evenodd" d="M 5.42211 6.08839C 5.42211 5.03291 4.66345 4.20747 3.59221 4.20747C 2.80577 4.20747 2.19636 4.68121 1.91113 5.20875L 1.91113 6.96762C 2.19636 7.50922 2.80577 7.98214 3.59221 7.98214C 4.66345 7.98214 5.42211 7.15712 5.42211 6.08839ZM 1.91116 8.64539L 1.91116 9.47083L 0 9.47083L 0 0L 1.91116 0L 1.91116 3.54504C 2.2909 3.05764 2.99567 2.54376 4.1349 2.54376C 6.00502 2.54376 7.32003 4.11313 7.32003 6.08839C 7.32003 8.0773 6.00502 9.64667 4.1349 9.64667C 2.99567 9.64667 2.2909 9.14603 1.91116 8.64539Z"/>
<path id="path31_fill" fill-rule="evenodd" d="M 0 7.7794L 0 0L 1.91157 0L 1.91157 7.27876C 1.91157 7.76616 2.18311 7.95566 2.5214 7.95566C 2.69801 7.95566 2.8742 7.9147 3.00976 7.8336L 3.00976 9.40297C 2.68433 9.56516 2.25069 9.64667 1.80337 9.64667C 0.881371 9.64667 0 9.24078 0 7.7794Z"/>
<path id="path32_fill" d="M 1.134 10.374L 4.984 10.374L 4.984 9.744L 1.134 9.744L 1.134 10.374ZM 14.6186 12.656C 14.1846 13.216 13.4566 13.58 12.5186 13.58C 11.0626 13.58 9.95662 12.306 9.95662 10.78C 9.95662 9.254 11.0206 7.98 12.5186 7.98C 13.4566 7.98 14.0726 8.33 14.5066 8.89L 14.9826 8.526C 14.4226 7.812 13.6526 7.392 12.5186 7.392C 10.6706 7.392 9.28463 8.862 9.28463 10.78C 9.28463 12.698 10.6426 14.168 12.5186 14.168C 13.6386 14.168 14.5206 13.706 15.0666 13.048L 14.6186 12.656ZM 19.1378 14.168C 20.9718 14.168 22.4558 12.642 22.4558 10.78C 22.4558 8.918 20.9718 7.392 19.1378 7.392C 17.3038 7.392 15.8198 8.918 15.8198 10.78C 15.8198 12.642 17.3038 14.168 19.1378 14.168ZM 19.1378 13.594C 17.6678 13.594 16.4778 12.292 16.4778 10.78C 16.4778 9.226 17.6258 7.966 19.1378 7.966C 20.6078 7.966 21.7978 9.268 21.7978 10.78C 21.7978 12.334 20.6498 13.594 19.1378 13.594ZM 24.0995 14L 24.7295 14L 24.7295 10.682C 24.7295 9.464 25.4995 7.98 27.1235 7.98C 28.3555 7.98 29.0415 8.512 29.0415 10.43L 29.0415 14L 29.6715 14L 29.6715 10.22C 29.6715 8.484 29.0415 7.392 27.2075 7.392C 25.7375 7.392 25.0095 8.33 24.7015 8.904C 24.7015 8.19 24.7015 7.966 24.6595 7.56L 24.0715 7.56C 24.1135 7.98 24.0995 8.204 24.0995 8.918L 24.0995 14ZM 31.578 14L 32.208 14L 32.208 10.682C 32.208 9.464 32.978 7.98 34.602 7.98C 35.834 7.98 36.52 8.512 36.52 10.43L 36.52 14L 37.15 14L 37.15 10.22C 37.15 8.484 36.52 7.392 34.686 7.392C 33.216 7.392 32.488 8.33 32.18 8.904C 32.18 8.19 32.18 7.966 32.138 7.56L 31.55 7.56C 31.592 7.98 31.578 8.204 31.578 8.918L 31.578 14ZM 44.1665 12.656C 43.7185 13.216 42.7945 13.58 41.9965 13.58C 40.4845 13.58 39.4485 12.418 39.4065 10.948L 44.8945 10.948C 44.8945 8.638 43.5785 7.392 41.8145 7.392C 39.9805 7.392 38.7065 8.918 38.7065 10.78C 38.7065 12.796 40.0785 14.168 41.9965 14.168C 43.0045 14.168 44.0545 13.748 44.6145 13.034L 44.1665 12.656ZM 39.4205 10.402C 39.4905 9.058 40.4425 7.98 41.8145 7.98C 43.1585 7.98 44.0405 8.82 44.2085 10.402L 39.4205 10.402ZM 51.519 12.656C 51.085 13.216 50.357 13.58 49.419 13.58C 47.963 13.58 46.857 12.306 46.857 10.78C 46.857 9.254 47.921 7.98 49.419 7.98C 50.357 7.98 50.973 8.33 51.407 8.89L 51.883 8.526C 51.323 7.812 50.553 7.392 49.419 7.392C 47.571 7.392 46.185 8.862 46.185 10.78C 46.185 12.698 47.543 14.168 49.419 14.168C 50.539 14.168 51.421 13.706 51.967 13.048L 51.519 12.656ZM 54.0127 12.026C 54.0127 13.748 54.7127 14.168 55.7347 14.168C 56.5047 14.168 56.9247 13.902 57.3027 13.412L 56.9107 13.034C 56.5747 13.44 56.2667 13.594 55.8047 13.594C 55.1327 13.594 54.6427 13.398 54.6427 11.872L 54.6427 8.148L 56.7707 8.148L 56.7707 7.56L 54.6427 7.56L 54.6427 5.432L 54.0127 5.432L 54.0127 7.56L 52.7247 7.56L 52.7247 8.148L 54.0127 8.148L 54.0127 12.026ZM 58.3172 6.202L 59.1992 6.202L 59.1992 5.292L 58.3172 5.292L 58.3172 6.202ZM 58.4432 14L 59.0732 14L 59.0732 7.56L 58.4432 7.56L 58.4432 14ZM 61.0545 14L 61.6845 14L 61.6845 10.682C 61.6845 9.464 62.4545 7.98 64.0785 7.98C 65.3105 7.98 65.9965 8.512 65.9965 10.43L 65.9965 14L 66.6265 14L 66.6265 10.22C 66.6265 8.484 65.9965 7.392 64.1625 7.392C 62.6925 7.392 61.9645 8.33 61.6565 8.904C 61.6565 8.19 61.6565 7.966 61.6145 7.56L 61.0265 7.56C 61.0685 7.98 61.0545 8.204 61.0545 8.918L 61.0545 14ZM 73.4611 11.508C 73.4611 12.152 72.7751 13.58 71.1511 13.58C 69.4851 13.58 68.8551 12.292 68.8551 10.85C 68.8551 9.002 70.1851 7.98 71.7391 7.98C 72.2851 7.98 72.7051 8.064 72.9991 8.134C 73.1671 8.176 73.3211 8.218 73.4611 8.274L 73.4611 11.508ZM 68.7151 16.226C 69.0231 16.492 69.7791 16.968 71.0111 16.968C 73.2091 16.968 74.0771 15.778 74.0771 13.86L 74.0771 7.84C 73.5731 7.616 72.6911 7.392 71.7531 7.392C 69.7371 7.392 68.1831 8.75 68.1831 10.836C 68.1831 12.698 69.1071 14.168 71.0811 14.168C 71.9071 14.168 72.4811 13.874 72.8731 13.552C 73.1111 13.37 73.2931 13.16 73.4471 12.922L 73.4471 13.902C 73.4471 15.302 72.9011 16.366 71.0391 16.366C 69.9891 16.366 69.3731 15.988 69.0791 15.75L 68.7151 16.226ZM 82.8669 11.62C 82.8669 12.6 81.8309 13.594 80.5569 13.594C 79.5909 13.594 78.8909 13.188 78.8909 12.25C 78.8909 11.606 79.1009 10.542 81.0049 10.542C 81.9149 10.542 82.4749 10.612 82.8669 10.71L 82.8669 11.62ZM 83.5249 14L 83.4969 13.608C 83.4829 13.37 83.4829 13.034 83.4829 12.656L 83.4829 9.688C 83.4829 8.05 82.5449 7.392 80.8789 7.392C 79.7449 7.392 78.9189 7.868 78.5689 8.204L 78.9049 8.638C 79.2409 8.358 79.8289 7.966 80.8929 7.966C 82.1669 7.966 82.8529 8.372 82.8529 9.786L 82.8529 10.15C 82.4189 10.08 81.8029 10.01 81.0189 10.01C 79.0029 10.01 78.2189 11.004 78.2189 12.25C 78.2189 13.776 79.4089 14.168 80.4869 14.168C 81.2149 14.168 82.2229 13.902 82.8949 12.922C 82.8949 13.272 82.8949 13.538 82.9089 13.72C 82.9089 13.818 82.9089 13.916 82.9229 14L 83.5249 14ZM 85.4315 14L 86.0615 14L 86.0615 10.682C 86.0615 9.464 86.8315 7.98 88.4555 7.98C 89.6875 7.98 90.3735 8.512 90.3735 10.43L 90.3735 14L 91.0035 14L 91.0035 10.22C 91.0035 8.484 90.3735 7.392 88.5395 7.392C 87.0695 7.392 86.3415 8.33 86.0335 8.904C 86.0335 8.19 86.0335 7.966 85.9915 7.56L 85.4035 7.56C 85.4455 7.98 85.4315 8.204 85.4315 8.918L 85.4315 14ZM 98.482 14C 98.468 13.888 98.468 13.762 98.468 13.608C 98.454 13.37 98.454 13.034 98.454 12.656L 98.454 4.662L 97.838 4.662L 97.838 8.008C 97.656 7.896 97.46 7.798 97.25 7.7C 96.872 7.546 96.424 7.392 95.878 7.392C 93.932 7.392 92.56 8.75 92.56 10.836C 92.56 12.698 93.484 14.168 95.458 14.168C 96.298 14.168 96.886 13.846 97.278 13.524C 97.516 13.342 97.698 13.118 97.838 12.88C 97.838 13.146 97.838 13.426 97.852 13.636C 97.852 13.762 97.852 13.874 97.866 14L 98.482 14ZM 97.838 11.508C 97.838 12.25 97.096 13.58 95.528 13.58C 93.862 13.58 93.232 12.292 93.232 10.85C 93.232 8.82 94.534 7.98 95.864 7.98C 96.522 7.98 97.026 8.162 97.348 8.344C 97.53 8.442 97.698 8.568 97.838 8.694L 97.838 11.508ZM 102.973 14L 103.603 14L 103.603 10.682C 103.603 9.464 104.373 7.98 105.997 7.98C 107.229 7.98 107.915 8.512 107.915 10.43L 107.915 14L 108.545 14L 108.545 10.22C 108.545 8.484 107.915 7.392 106.081 7.392C 104.611 7.392 103.883 8.33 103.575 8.904C 103.575 8.19 103.575 7.966 103.533 7.56L 102.945 7.56C 102.987 7.98 102.973 8.204 102.973 8.918L 102.973 14ZM 114.777 11.62C 114.777 12.6 113.741 13.594 112.467 13.594C 111.501 13.594 110.801 13.188 110.801 12.25C 110.801 11.606 111.011 10.542 112.915 10.542C 113.825 10.542 114.385 10.612 114.777 10.71L 114.777 11.62ZM 115.435 14L 115.407 13.608C 115.393 13.37 115.393 13.034 115.393 12.656L 115.393 9.688C 115.393 8.05 114.455 7.392 112.789 7.392C 111.655 7.392 110.829 7.868 110.479 8.204L 110.815 8.638C 111.151 8.358 111.739 7.966 112.803 7.966C 114.077 7.966 114.763 8.372 114.763 9.786L 114.763 10.15C 114.329 10.08 113.713 10.01 112.929 10.01C 110.913 10.01 110.129 11.004 110.129 12.25C 110.129 13.776 111.319 14.168 112.397 14.168C 113.125 14.168 114.133 13.902 114.805 12.922C 114.805 13.272 114.805 13.538 114.819 13.72C 114.819 13.818 114.819 13.916 114.833 14L 115.435 14ZM 119.028 14L 119.616 14L 122.416 7.56L 121.758 7.56L 119.35 13.23L 116.928 7.56L 116.214 7.56L 119.028 14ZM 123.423 6.202L 124.305 6.202L 124.305 5.292L 123.423 5.292L 123.423 6.202ZM 123.549 14L 124.179 14L 124.179 7.56L 123.549 7.56L 123.549 14ZM 131.088 11.508C 131.088 12.152 130.402 13.58 128.778 13.58C 127.112 13.58 126.482 12.292 126.482 10.85C 126.482 9.002 127.812 7.98 129.366 7.98C 129.912 7.98 130.332 8.064 130.626 8.134C 130.794 8.176 130.948 8.218 131.088 8.274L 131.088 11.508ZM 126.342 16.226C 126.65 16.492 127.406 16.968 128.638 16.968C 130.836 16.968 131.704 15.778 131.704 13.86L 131.704 7.84C 131.2 7.616 130.318 7.392 129.38 7.392C 127.364 7.392 125.81 8.75 125.81 10.836C 125.81 12.698 126.734 14.168 128.708 14.168C 129.534 14.168 130.108 13.874 130.5 13.552C 130.738 13.37 130.92 13.16 131.074 12.922L 131.074 13.902C 131.074 15.302 130.528 16.366 128.666 16.366C 127.616 16.366 127 15.988 126.706 15.75L 126.342 16.226ZM 137.965 11.62C 137.965 12.6 136.929 13.594 135.655 13.594C 134.689 13.594 133.989 13.188 133.989 12.25C 133.989 11.606 134.199 10.542 136.103 10.542C 137.013 10.542 137.573 10.612 137.965 10.71L 137.965 11.62ZM 138.623 14L 138.595 13.608C 138.581 13.37 138.581 13.034 138.581 12.656L 138.581 9.688C 138.581 8.05 137.643 7.392 135.977 7.392C 134.843 7.392 134.017 7.868 133.667 8.204L 134.003 8.638C 134.339 8.358 134.927 7.966 135.991 7.966C 137.265 7.966 137.951 8.372 137.951 9.786L 137.951 10.15C 137.517 10.08 136.901 10.01 136.117 10.01C 134.101 10.01 133.317 11.004 133.317 12.25C 133.317 13.776 134.507 14.168 135.585 14.168C 136.313 14.168 137.321 13.902 137.993 12.922C 137.993 13.272 137.993 13.538 138.007 13.72C 138.007 13.818 138.007 13.916 138.021 14L 138.623 14ZM 141.075 12.026C 141.075 13.748 141.775 14.168 142.797 14.168C 143.567 14.168 143.987 13.902 144.365 13.412L 143.973 13.034C 143.637 13.44 143.329 13.594 142.867 13.594C 142.195 13.594 141.705 13.398 141.705 11.872L 141.705 8.148L 143.833 8.148L 143.833 7.56L 141.705 7.56L 141.705 5.432L 141.075 5.432L 141.075 7.56L 139.787 7.56L 139.787 8.148L 141.075 8.148L 141.075 12.026ZM 145.38 6.202L 146.262 6.202L 146.262 5.292L 145.38 5.292L 145.38 6.202ZM 145.506 14L 146.136 14L 146.136 7.56L 145.506 7.56L 145.506 14ZM 148.117 14L 148.747 14L 148.747 10.682C 148.747 9.464 149.517 7.98 151.141 7.98C 152.373 7.98 153.059 8.512 153.059 10.43L 153.059 14L 153.689 14L 153.689 10.22C 153.689 8.484 153.059 7.392 151.225 7.392C 149.755 7.392 149.027 8.33 148.719 8.904C 148.719 8.19 148.719 7.966 148.677 7.56L 148.089 7.56C 148.131 7.98 148.117 8.204 148.117 8.918L 148.117 14ZM 160.524 11.508C 160.524 12.152 159.838 13.58 158.214 13.58C 156.548 13.58 155.918 12.292 155.918 10.85C 155.918 9.002 157.248 7.98 158.802 7.98C 159.348 7.98 159.768 8.064 160.062 8.134C 160.23 8.176 160.384 8.218 160.524 8.274L 160.524 11.508ZM 155.778 16.226C 156.086 16.492 156.842 16.968 158.074 16.968C 160.272 16.968 161.14 15.778 161.14 13.86L 161.14 7.84C 160.636 7.616 159.754 7.392 158.816 7.392C 156.8 7.392 155.246 8.75 155.246 10.836C 155.246 12.698 156.17 14.168 158.144 14.168C 158.97 14.168 159.544 13.874 159.936 13.552C 160.174 13.37 160.356 13.16 160.51 12.922L 160.51 13.902C 160.51 15.302 159.964 16.366 158.102 16.366C 157.052 16.366 156.436 15.988 156.142 15.75L 155.778 16.226ZM 165.477 6.202L 166.359 6.202L 166.359 5.292L 165.477 5.292L 165.477 6.202ZM 165.603 14L 166.233 14L 166.233 7.56L 165.603 7.56L 165.603 14ZM 168.215 14L 168.845 14L 168.845 10.682C 168.845 9.464 169.615 7.98 171.239 7.98C 172.471 7.98 173.157 8.512 173.157 10.43L 173.157 14L 173.787 14L 173.787 10.22C 173.787 8.484 173.157 7.392 171.323 7.392C 169.853 7.392 169.125 8.33 168.817 8.904C 168.817 8.19 168.817 7.966 168.775 7.56L 168.187 7.56C 168.229 7.98 168.215 8.204 168.215 8.918L 168.215 14ZM 176.239 12.026C 176.239 13.748 176.939 14.168 177.961 14.168C 178.731 14.168 179.151 13.902 179.529 13.412L 179.137 13.034C 178.801 13.44 178.493 13.594 178.031 13.594C 177.359 13.594 176.869 13.398 176.869 11.872L 176.869 8.148L 178.997 8.148L 178.997 7.56L 176.869 7.56L 176.869 5.432L 176.239 5.432L 176.239 7.56L 174.951 7.56L 174.951 8.148L 176.239 8.148L 176.239 12.026ZM 185.78 12.656C 185.332 13.216 184.408 13.58 183.61 13.58C 182.098 13.58 181.062 12.418 181.02 10.948L 186.508 10.948C 186.508 8.638 185.192 7.392 183.428 7.392C 181.594 7.392 180.32 8.918 180.32 10.78C 180.32 12.796 181.692 14.168 183.61 14.168C 184.618 14.168 185.668 13.748 186.228 13.034L 185.78 12.656ZM 181.034 10.402C 181.104 9.058 182.056 7.98 183.428 7.98C 184.772 7.98 185.654 8.82 185.822 10.402L 181.034 10.402ZM 188.12 14L 188.75 14L 188.75 4.662L 188.12 4.662L 188.12 14ZM 190.677 14L 191.307 14L 191.307 4.662L 190.677 4.662L 190.677 14ZM 198.372 12.656C 197.924 13.216 197 13.58 196.202 13.58C 194.69 13.58 193.654 12.418 193.612 10.948L 199.1 10.948C 199.1 8.638 197.784 7.392 196.02 7.392C 194.186 7.392 192.912 8.918 192.912 10.78C 192.912 12.796 194.284 14.168 196.202 14.168C 197.21 14.168 198.26 13.748 198.82 13.034L 198.372 12.656ZM 193.626 10.402C 193.696 9.058 194.648 7.98 196.02 7.98C 197.364 7.98 198.246 8.82 198.414 10.402L 193.626 10.402ZM 205.724 12.656C 205.29 13.216 204.562 13.58 203.624 13.58C 202.168 13.58 201.062 12.306 201.062 10.78C 201.062 9.254 202.126 7.98 203.624 7.98C 204.562 7.98 205.178 8.33 205.612 8.89L 206.088 8.526C 205.528 7.812 204.758 7.392 203.624 7.392C 201.776 7.392 200.39 8.862 200.39 10.78C 200.39 12.698 201.748 14.168 203.624 14.168C 204.744 14.168 205.626 13.706 206.172 13.048L 205.724 12.656ZM 208.218 12.026C 208.218 13.748 208.918 14.168 209.94 14.168C 210.71 14.168 211.13 13.902 211.508 13.412L 211.116 13.034C 210.78 13.44 210.472 13.594 210.01 13.594C 209.338 13.594 208.848 13.398 208.848 11.872L 208.848 8.148L 210.976 8.148L 210.976 7.56L 208.848 7.56L 208.848 5.432L 208.218 5.432L 208.218 7.56L 206.93 7.56L 206.93 8.148L 208.218 8.148L 208.218 12.026ZM 212.228 13.188C 212.83 13.79 213.642 14.168 214.86 14.168C 216.106 14.168 217.422 13.58 217.422 12.292C 217.422 11.032 216.218 10.668 215.168 10.444C 214.188 10.22 213.166 10.01 213.166 9.17C 213.166 8.176 214.076 7.966 214.902 7.966C 215.728 7.966 216.288 8.288 216.736 8.778L 217.17 8.386C 216.68 7.812 215.896 7.392 214.888 7.392C 213.656 7.392 212.522 7.966 212.522 9.142C 212.522 10.318 213.362 10.682 214.552 10.948C 215.98 11.284 216.736 11.424 216.736 12.376C 216.736 13.188 215.854 13.58 214.804 13.58C 213.852 13.58 213.18 13.286 212.634 12.74L 212.228 13.188Z"/>
<path id="path33_fill" fill-rule="evenodd" d="M 1.91288 6.43827C 1.91288 3.94097 3.94873 1.90912 6.45093 1.90912L 6.45093 0C 2.89381 0 0 2.88813 0 6.43827C 0 9.9884 2.89381 12.8765 6.45093 12.8765L 6.45093 10.9674C 3.94873 10.9674 1.91288 8.93556 1.91288 6.43827Z"/>
<path id="path34_fill" fill-rule="evenodd" d="M 1.98253 3.95727L 1.98253 0C 0.887558 0 0 0.885815 0 1.97863C 0 3.07145 0.887558 3.95727 1.98253 3.95727Z"/>
<path id="path35_fill" fill-rule="evenodd" d="M 4.53805 6.43827C 4.53805 8.93556 2.5022 10.9674 0 10.9674L 0 12.8765C 3.55712 12.8765 6.45093 9.9884 6.45093 6.43827C 6.45093 2.88813 3.55712 0 0 0L 0 1.90912C 2.5022 1.90912 4.53805 3.94097 4.53805 6.43827Z"/>
<path id="path36_fill" fill-rule="evenodd" d="M 1.98253 1.97863C 1.98253 0.885815 1.09497 0 0 0L 0 3.95727C 1.09497 3.95727 1.98253 3.07145 1.98253 1.97863Z"/>
</defs>
</svg>
