<svg width="903" height="211" viewBox="0 0 903 211" version="1.1" xmlns="http://www.w3.org/2000/svg" xmlns:xlink="http://www.w3.org/1999/xlink">
<title>Group 7</title>
<desc>Created using Figma</desc>
<g id="Canvas" transform="translate(-5680 660)">
<g id="Group 7">
<g id="Rectangle" filter="url(#filter0_d)">
<use xlink:href="#path0_fill" transform="translate(5682 -659)" fill="#FFFFFF"/>
</g>
<g id="Rectangle 2">
<use xlink:href="#path1_fill" transform="translate(5682 -660)" fill="url(#paint1_linear)"/>
</g>
<g id="Fill 1" opacity="0.738573">
<use xlink:href="#path2_fill" transform="translate(6411 -632)" fill="#FFFFFF"/>
</g>
<g id="Fill 1" opacity="0.738573">
<use xlink:href="#path3_fill" transform="translate(6207 -641)" fill="#FFFFFF"/>
</g>
<g id="Fill 1" opacity="0.738573">
<use xlink:href="#path4_fill" transform="translate(5947 -643)" fill="#FFFFFF"/>
</g>
<g id="Fill 1" opacity="0.738573">
<use xlink:href="#path5_fill" transform="translate(5713.48 -637)" fill="#FFFFFF"/>
</g>
<g id="Fill 1" opacity="0.738573">
<use xlink:href="#path6_fill" transform="translate(6126 -560)" fill="#FFFFFF"/>
</g>
<g id="Page 1" opacity="0.738573">
<g id="Group 3">
<mask id="mask0_outline" mask-type="alpha">
<g id="Clip 2">
<use xlink:href="#path7_fill" transform="translate(5830.17 -595.771)" fill="#FFFFFF"/>
</g>
</mask>
<g id="Fill 1" mask="url(#mask0_outline)">
<use xlink:href="#path8_fill" transform="translate(5830.17 -595.771)" fill="#FFFFFF"/>
</g>
</g>
<g id="Fill 4">
<use xlink:href="#path9_fill" transform="translate(5835.35 -575.895)" fill="#FFFFFF"/>
</g>
<g id="Fill 6">
<use xlink:href="#path10_fill" transform="translate(5834.95 -594.555)" fill="#FFFFFF"/>
</g>
<g id="Fill 8">
<use xlink:href="#path11_fill" transform="translate(5837.74 -594.555)" fill="#FFFFFF"/>
</g>
<g id="Group 12">
<mask id="mask1_outline" mask-type="alpha">
<g id="Clip 11">
<use xlink:href="#path12_fill" transform="translate(5846.86 -594.033)" fill="#FFFFFF"/>
</g>
</mask>
<g id="Fill 10" mask="url(#mask1_outline)">
<use xlink:href="#path13_fill" transform="translate(5846.86 -594.033)" fill="#FFFFFF"/>
</g>
</g>
<g id="Fill 13">
<use xlink:href="#path14_fill" transform="translate(5845.18 -593.11)" fill="#FFFFFF"/>
</g>
<g id="Group 17">
<mask id="mask2_outline" mask-type="alpha">
<g id="Clip 16">
<use xlink:href="#path15_fill" transform="translate(5825 -594.033)" fill="#FFFFFF"/>
</g>
</mask>
<g id="Fill 15" mask="url(#mask2_outline)">
<use xlink:href="#path16_fill" transform="translate(5825 -594.033)" fill="#FFFFFF"/>
</g>
</g>
<g id="Fill 18">
<use xlink:href="#path17_fill" transform="translate(5827.03 -593.223)" fill="#FFFFFF"/>
</g>
</g>
<g id="Page 1" opacity="0.738573">
<g id="Fill 1">
<use xlink:href="#path18_fill" transform="translate(6516.29 -568.467)" fill="#FFFFFF"/>
</g>
<g id="Fill 3">
<use xlink:href="#path19_fill" transform="translate(6516.29 -571.133)" fill="#FFFFFF"/>
</g>
<g id="Fill 5">
<use xlink:href="#path20_fill" transform="translate(6516.29 -565.8)" fill="#FFFFFF"/>
</g>
<g id="Fill 7">
<use xlink:href="#path21_fill" transform="translate(6516.29 -563.132)" fill="#FFFFFF"/>
</g>
<g id="Fill 9">
<use xlink:href="#path22_fill" transform="translate(6516.29 -560.466)" fill="#FFFFFF"/>
</g>
<g id="Group 13">
<mask id="mask3_outline" mask-type="alpha">
<g id="Clip 12">
<use xlink:href="#path23_fill" transform="translate(6512 -576.801)" fill="#FFFFFF"/>
</g>
</mask>
<g id="Fill 11" mask="url(#mask3_outline)">
<use xlink:href="#path24_fill" transform="translate(6512 -576.801)" fill="#FFFFFF"/>
</g>
</g>
</g>
<g id="Page 1">
<g id="Fill 1">
<use xlink:href="#path25_fill" transform="translate(5980.54 -597.993)" fill="#FFFFFF"/>
</g>
<g id="Fill 3">
<use xlink:href="#path26_fill" transform="translate(5990.11 -601.128)" fill="#FFFFFF"/>
</g>
<g id="Fill 5">
<use xlink:href="#path27_fill" transform="translate(6001.29 -597.777)" fill="#FFFFFF"/>
</g>
<mask id="mask4_outline" mask-type="alpha">
<g id="Clip 8">
<use xlink:href="#path28_fill" transform="translate(5949 -607)" fill="#FFFFFF"/>
</g>
</mask>
<g id="Fill 7" mask="url(#mask4_outline)">
<use xlink:href="#path29_fill" transform="translate(6011.67 -601.395)" fill="#FFFFFF"/>
</g>
<g id="Fill 9" mask="url(#mask4_outline)">
<use xlink:href="#path30_fill" transform="translate(6016.69 -601.128)" fill="#FFFFFF"/>
</g>
<g id="Fill 10" mask="url(#mask4_outline)">
<use xlink:href="#path31_fill" transform="translate(6027.45 -601.128)" fill="#FFFFFF"/>
</g>
<g id="Fill 11" mask="url(#mask4_outline)">
<use xlink:href="#path32_fill" transform="translate(6032.21 -597.993)" fill="#FFFFFF"/>
</g>
</g>
<g id="- connecting and nav">
<use xlink:href="#path33_fill" transform="translate(6049 -605)" fill="#FFFFFF"/>
</g>
<g id="Group">
<g id="Fill 12">
<use xlink:href="#path34_fill" transform="translate(5959 -602)" fill="#FFFFFF"/>
</g>
<g id="Fill 13">
<use xlink:href="#path35_fill" transform="translate(5964.51 -596.505)" fill="#FFFFFF"/>
</g>
<g id="Fill 14" opacity="0.355819">
<use xlink:href="#path36_fill" transform="translate(5966.95 -602)" fill="#FFFFFF"/>
</g>
<g id="Fill 15" opacity="0.355819">
<use xlink:href="#path37_fill" transform="translate(5966.95 -596.505)" fill="#FFFFFF"/>
</g>
</g>
</g>
</g>
<defs>
<filter id="filter0_d" filterUnits="userSpaceOnUse" x="5680" y="-659" width="903" height="210" color-interpolation-filters="sRGB">
<feFlood flood-opacity="0" result="BackgroundImageFix"/>
<feColorMatrix in="SourceAlpha" type="matrix" values="0 0 0 0 0 0 0 0 0 0 0 0 0 0 0 0 0 0 255 0"/>
<feOffset dx="0" dy="2"/>
<feGaussianBlur stdDeviation="1"/>
<feColorMatrix type="matrix" values="0 0 0 0 0 0 0 0 0 0 0 0 0 0 0 0 0 0 0.122849 0"/>
<feBlend mode="normal" in2="BackgroundImageFix" result="effect1_dropShadow"/>
<feBlend mode="normal" in="SourceGraphic" in2="effect1_dropShadow" result="shape"/>
</filter>
<linearGradient id="paint1_linear" x1="0" y1="0" x2="1" y2="0" gradientUnits="userSpaceOnUse" gradientTransform="matrix(612.526 0 0 87.2117 2.75239e-14 64)">
<stop offset="0" stop-color="#8D55E6"/>
<stop offset="1" stop-color="#AD8EE0"/>
</linearGradient>
<path id="path0_fill" fill-rule="evenodd" d="M 0 4C 0 1.79086 1.79086 0 4 0L 895 0C 897.209 0 899 1.79086 899 4L 899 202C 899 204.209 897.209 206 895 206L 4 206C 1.79086 206 0 204.209 0 202L 0 4Z"/>
<path id="path1_fill" fill-rule="evenodd" d="M 0 4C 0 1.79086 1.79086 0 4 0L 895 0C 897.209 0 899 1.79086 899 4L 899 128L 0 128L 0 4Z"/>
<path id="path2_fill" fill-rule="evenodd" d="M 6.76705 15.462C 6.073 16.1508 5.1464 16.5302 4.15834 16.5302C 3.16831 16.5302 2.24203 16.1508 1.54963 15.462C 0.855585 14.7731 0.47338 13.8537 0.47338 12.8727C 0.47338 11.8913 0.855585 10.9719 1.54963 10.2831L 10.7094 1.18989C 11.1738 0.728883 11.7856 0.475102 12.4321 0.475102C 13.1476 0.475102 13.8469 0.778066 14.4013 1.32825C 15.492 2.41256 15.5518 3.98738 14.5407 4.99103L 5.93294 13.5343C 5.68188 13.7832 5.34724 13.9206 4.99047 13.9206C 4.63403 13.9206 4.29907 13.7832 4.04735 13.5343C 3.7953 13.2842 3.65688 12.9514 3.65688 12.5973C 3.65688 12.2431 3.7953 11.9107 4.04735 11.6608L 9.87656 5.87467C 9.92149 5.83041 9.94593 5.77139 9.94593 5.70877C 9.94593 5.64581 9.92149 5.58647 9.87656 5.5422C 9.78737 5.45334 9.63211 5.45367 9.54093 5.54286L 3.71238 11.3287C 3.00908 12.0277 3.00908 13.1655 3.71238 13.8652C 4.05296 14.2032 4.50652 14.3895 4.98981 14.3895C 5.4731 14.3895 5.92699 14.2032 6.26791 13.8652L 14.8733 5.32318C 16.0761 4.12968 16.017 2.26895 14.7359 0.995452C 14.0881 0.353785 13.2698 0 12.4321 0C 11.6634 0 10.9333 0.304603 10.376 0.857413L 1.21467 9.95222C 0.431426 10.728 0 11.7651 0 12.8727C 0 13.9803 0.431426 15.018 1.21467 15.7944C 1.99626 16.5718 3.04146 17.0001 4.15834 17.0001C 5.27391 17.0001 6.31878 16.5718 7.10037 15.7944L 16.2617 6.70127C 16.3067 6.65667 16.3314 6.59733 16.3311 6.53437C 16.3311 6.47208 16.3063 6.41404 16.2624 6.37109C 16.1712 6.27895 16.0166 6.27994 15.9271 6.3701L 6.76705 15.462Z"/>
<path id="path3_fill" fill-rule="evenodd" d="M 16.0719 15.6718L 15.9442 15.8078L 15.8044 15.6839C 15.2112 15.1555 14.5547 14.7044 13.8545 14.342L 13.7144 14.2699L 13.7582 14.1184C 14.1247 12.8511 14.337 11.4033 14.3718 9.93063L 14.3763 9.74323L 18.523 9.74323L 18.5126 9.94478C 18.4036 12.0773 17.5366 14.1111 16.0719 15.6718L 16.0719 15.6718ZM 15.4299 16.2861C 14.4263 17.1675 13.2197 17.8216 11.9407 18.1781L 11.2314 18.3758L 11.7543 17.8574C 12.2085 17.4067 12.6251 16.81 12.9919 16.0832C 13.1641 15.7463 13.3301 15.3622 13.4855 14.9401L 13.5621 14.733L 13.7564 14.8376C 14.3545 15.1593 14.9174 15.5496 15.4299 15.9976L 15.5942 16.1418L 15.4299 16.2861ZM 9.74756 18.4262L 9.74756 13.7805L 9.94911 13.7905C 10.9948 13.8433 12.005 14.069 12.952 14.4617L 13.1208 14.5318L 13.059 14.7037C 12.9075 15.1251 12.7394 15.5195 12.5593 15.8764C 11.8418 17.2949 10.9503 18.1584 9.98086 18.3741L 9.74756 18.4262ZM 9.74365 9.74323L 13.8855 9.74323L 13.881 9.9396C 13.8489 11.3294 13.6615 12.6481 13.3243 13.8592L 13.2667 14.0659L 13.0679 13.9858C 12.067 13.5827 11.0099 13.3532 9.92657 13.3032L 9.74365 13.2946L 9.74365 9.74323ZM 9.74365 5.737L 9.92657 5.72837C 11.0051 5.67868 12.0632 5.44779 13.072 5.04192L 13.2712 4.96185L 13.3285 5.16858C 13.6605 6.36789 13.8451 7.67833 13.8772 9.06435L 13.8817 9.26072L 9.74365 9.26072L 9.74365 5.737ZM 9.74365 0.573914L 9.9773 0.625682C 10.9461 0.841385 11.8375 1.70523 12.555 3.12369C 12.7445 3.4985 12.9157 3.90126 13.0634 4.32162L 13.1238 4.4928L 12.9557 4.56252C 11.9973 4.95803 10.9844 5.18512 9.9452 5.23723L 9.74365 5.24759L 9.74365 0.573914ZM 11.9374 0.822062C 13.2219 1.18203 14.4337 1.84018 15.4418 2.72611L 15.6057 2.86968L 15.4425 3.01395C 14.9389 3.45812 14.3733 3.85122 13.761 4.18185L 13.5646 4.2878L 13.4894 4.07797C 13.3427 3.6683 13.174 3.27659 12.9886 2.91352C 12.6231 2.19048 12.2069 1.59514 11.7507 1.14303L 11.2261 0.622925L 11.9374 0.822062ZM 15.9523 3.20758L 16.0803 3.34425C 17.5388 4.90249 18.3999 6.93113 18.5048 9.05537L 18.5148 9.25658L 14.3685 9.25658L 14.364 9.06952C 14.3292 7.59929 14.1197 6.15908 13.7583 4.9049L 13.7148 4.75339L 13.855 4.68126C 14.5487 4.32475 15.2075 3.87091 15.8125 3.33217L 15.9523 3.20758ZM 9.26052 5.24759L 9.05931 5.23723C 8.01531 5.18478 7.00237 4.95768 6.0481 4.56217L 5.88037 4.4928L 5.94077 4.32162C 6.08952 3.89953 6.2607 3.49643 6.44914 3.12369C 7.16665 1.70523 8.05811 0.841385 9.02722 0.625682L 9.26052 0.573914L 9.26052 5.24759ZM 9.26084 13.2952L 9.07723 13.3032C 7.99423 13.3494 6.93746 13.5789 5.93729 13.9855L 5.73815 14.0666L 5.68017 13.8592C 5.34264 12.6481 5.15524 11.3294 5.12314 9.9396L 5.11865 9.74323L 9.26084 9.74323L 9.26084 13.2952ZM 9.26094 18.4262L 9.02764 18.3741C 8.05853 18.1584 7.16707 17.2949 6.44956 15.8764C 6.26733 15.5165 6.10374 15.133 5.94947 14.7037L 5.8877 14.5318L 6.05646 14.4618C 7.01487 14.0645 8.02505 13.8388 9.06008 13.7905L 9.26094 13.7812L 9.26094 18.4262ZM 7.06672 18.1815C 5.78838 17.8216 4.58251 17.1675 3.57854 16.2902L 3.41357 16.1456L 3.57854 16.0014C 4.09071 15.5534 4.65361 15.1634 5.25205 14.8418L 5.44636 14.7372L 5.52263 14.9443C 5.67759 15.3657 5.84359 15.7498 6.01547 16.0863C 6.37992 16.8072 6.79648 17.404 7.25446 17.8616L 7.77388 18.3807L 7.06672 18.1815ZM 3.06837 15.8081L 2.94033 15.6721C 1.47148 14.1111 0.604529 12.0773 0.499266 9.94443L 0.489258 9.74323L 4.63593 9.74323L 4.64041 9.93063C 4.67493 11.4026 4.88718 12.8511 5.2537 14.1184L 5.29788 14.2699L 5.15776 14.342C 4.44818 14.7089 3.79175 15.1603 3.2078 15.6835L 3.06837 15.8081ZM 0.499266 9.05537C 0.604529 6.93113 1.46561 4.90249 2.92411 3.34425L 3.05181 3.20758L 3.19158 3.33217C 3.78623 3.86159 4.44542 4.31577 5.15016 4.68161L 5.28925 4.75408L 5.24611 4.90456C 4.88062 6.17876 4.67113 7.61862 4.64041 9.06883L 4.63627 9.25658L 0.489258 9.25658L 0.499266 9.05537ZM 5.72562 4.95734L 5.9251 5.0381C 6.92527 5.44465 7.98307 5.67416 9.06918 5.72041L 9.25279 5.72834L 9.25279 9.06501L 9.06504 9.06501L 9.06504 9.25655L 5.11475 9.25655L 5.11958 9.06052C 5.15133 7.67416 5.33597 6.36337 5.66798 5.16476L 5.72562 4.95734ZM 3.56257 2.72611C 4.57034 1.84018 5.78207 1.18203 7.06662 0.822062L 7.77792 0.622925L 7.25368 1.14268C 6.80122 1.59134 6.38466 2.18703 6.01572 2.91352C 5.83418 3.27659 5.66542 3.66934 5.5146 4.07935L 5.43832 4.28677L 5.24333 4.18185C 4.64143 3.85674 4.07577 3.46399 3.56257 3.01429L 3.39795 2.87037L 3.56257 2.72611ZM 16.216 2.78412C 14.4248 0.988781 12.04 0 9.50024 0C 6.96047 0 4.57566 0.988781 2.78446 2.78412C 0.988781 4.58325 0 6.96841 0 9.49989C 0 12.0393 0.988781 14.4245 2.78412 16.2157C 4.58325 18.0114 6.96841 19.0001 9.50024 19.0001C 12.0397 19.0001 14.4245 18.0113 16.216 16.216C 18.0113 14.4169 19.0001 12.0317 19.0001 9.49989C 19.0001 6.96047 18.0113 4.57566 16.216 2.78412L 16.216 2.78412Z"/>
<path id="path4_fill" fill-rule="evenodd" d="M 19.1543 5.91514L 10.5205 5.13559C 10.3891 5.12264 10.282 5.2193 10.2707 5.34406C 10.2593 5.47041 10.3528 5.58222 10.4791 5.59359L 18.3712 6.30649L 10.5 10.2424L 0.744629 5.36459L 10.5 0.486755L 20.2553 5.36459L 19.1543 5.91514ZM 19.9142 11.4411C 19.9142 11.8334 19.5951 12.1528 19.2028 12.1528C 18.8102 12.1528 18.4912 11.8334 18.4912 11.4411C 18.4912 11.0504 18.809 10.7314 19.1997 10.7295L 19.2025 10.7295C 19.5964 10.7314 19.9142 11.0504 19.9142 11.4411L 19.9142 11.4411ZM 19.9964 15.1256L 18.4092 15.1256L 19.2029 13.0321L 19.9964 15.1256ZM 16.8933 10.8757C 16.8933 11.6575 16.2325 12.4358 15.0803 13.0119C 13.8607 13.6218 12.234 13.9576 10.5 13.9576C 8.76588 13.9576 7.1392 13.6218 5.91966 13.0119C 4.7674 12.4358 4.10693 11.6575 4.10693 10.8757L 4.10693 7.55981L 10.397 10.7052C 10.4605 10.7371 10.5391 10.7371 10.6029 10.7052L 16.8933 7.55981L 16.8933 10.8757ZM 20.8727 5.15832L 10.6028 0.0236896C 10.539 -0.00789652 10.4607 -0.00789652 10.3969 0.0236896L 0.126976 5.15864C 0.0489584 5.1978 0 5.27677 0 5.36458C 0 5.45207 0.0486426 5.53072 0.126976 5.56989L 3.64661 7.32986L 3.64661 10.8757C 3.64661 12.8618 6.65708 14.4175 10.4998 14.4175C 14.3429 14.4175 17.3534 12.8618 17.3534 10.8757L 17.3534 7.32986L 18.9728 6.52L 18.9728 10.2816L 18.8262 10.3318C 18.3506 10.4935 18.0312 10.9395 18.0312 11.4411C 18.0312 11.8899 18.294 12.3053 18.7005 12.4996L 18.8803 12.5852L 17.861 15.2741C 17.8341 15.3448 17.8439 15.4238 17.8869 15.486C 17.9301 15.5486 18.0009 15.5858 18.0761 15.5858L 20.3297 15.5858C 20.4052 15.5858 20.476 15.5486 20.5189 15.4863C 20.5622 15.4241 20.5717 15.3448 20.5448 15.2741L 19.5259 12.5852L 19.7056 12.4996C 20.1121 12.305 20.3749 11.8899 20.3749 11.4411C 20.3749 10.9395 20.0553 10.4938 19.5796 10.3318L 19.433 10.2816L 19.433 6.29005L 20.873 5.5702C 20.951 5.53104 21 5.45207 21 5.36458C 21 5.27677 20.951 5.1978 20.8727 5.15832L 20.8727 5.15832Z"/>
<path id="path5_fill" fill-rule="evenodd" d="M 9.91338 6.68706C 9.86047 6.75714 9.7927 6.79681 9.71635 6.80702L 9.67829 6.80934C 9.6335 6.80934 9.56666 6.79867 9.50215 6.74878L 7.08838 4.73779L 11.7581 0.535522L 13.0317 2.23304L 9.91338 6.68706ZM 8.05081 6.75646C 8.05081 6.91424 7.92224 7.04278 7.76397 7.04278L 5.75145 7.04278C 5.59341 7.04278 5.46484 6.91424 5.46484 6.75646L 5.46484 6.10283L 6.75771 5.02576L 8.05081 6.10283L 8.05081 6.75646ZM 8.55561 11.3413L 8.65377 14.383L 5.08545 10.8151L 5.92067 7.47571L 7.59506 7.47571L 8.55561 11.3413ZM 8.73796 16.9826L 4.90137 13.1465L 4.96101 11.303L 8.67414 15.0153L 8.73796 16.9826ZM 8.92227 22.7005L 4.72852 18.5073L 4.88238 13.7398L 8.75796 17.6149L 8.92227 22.7005ZM 9.00585 25.2997L 4.64941 20.944L 4.70906 19.1003L 8.94203 23.3328L 9.00585 25.2997ZM 9.05409 26.7923L 6.75751 29.0885L 4.46094 26.7923L 4.63058 21.5374L 9.02647 25.9322L 9.05409 26.7923ZM 3.94961 6.80192L 3.83682 6.80934C 3.82615 6.80934 3.81524 6.80865 3.80364 6.80749C 3.72241 6.79681 3.65465 6.75714 3.60777 6.69495L 0.483398 2.23304L 1.75677 0.535522L 6.42697 4.73779L 3.94961 6.80192ZM 11.2252 0.432983L 6.7574 4.45265L 2.29004 0.432983L 11.2252 0.432983ZM 13.4718 2.09893L 11.9624 0.0865467C 11.926 0.0380527 11.8708 0.00696086 11.8107 0.00116014L 1.72603 0C 1.64457 0.00696086 1.58934 0.0380527 1.55267 0.0867787L 0.043281 2.09893C -0.0128802 2.17388 -0.0145047 2.27597 0.0391037 2.353L 3.24748 6.9351C 3.36259 7.09961 3.54268 7.20913 3.74156 7.23581C 3.93975 7.26157 4.14421 7.20309 4.29807 7.07525L 4.95692 6.5265L 5.053 6.92536C 5.09361 7.09474 5.19526 7.24347 5.33844 7.3444L 5.48163 7.44533L 4.53501 11.2313C 4.53153 11.246 4.52921 11.2615 4.52875 11.2773L 4.02562 26.8722C 4.02353 26.932 4.04674 26.9903 4.08851 27.0325L 6.60439 29.5477C 6.68608 29.6287 6.8288 29.6294 6.91072 29.5474L 9.42661 27.0325C 9.46861 26.9903 9.49182 26.932 9.48973 26.8724L 8.9866 11.2768C 8.98613 11.2615 8.98381 11.246 8.9801 11.2313L 8.03348 7.44533L 8.1769 7.3444C 8.31986 7.24347 8.42127 7.09474 8.46235 6.92512L 8.55889 6.52673L 9.21751 7.07548C 9.37068 7.20309 9.57513 7.26319 9.77332 7.23558C 9.97244 7.20913 10.1525 7.09961 10.2676 6.9351L 13.4762 2.35277C 13.5299 2.27597 13.5282 2.17388 13.4718 2.09893L 13.4718 2.09893Z"/>
<path id="path6_fill" fill-rule="evenodd" d="M 16.9515 2.8479L 16.1592 2.05552L 17.7529 0.461914L 18.5453 1.2543L 16.9515 2.8479ZM 5.63586 15.0083L 3.99658 13.3691L 4.13397 13.2319L 15.4639 1.90387L 17.1032 3.54285L 5.63586 15.0083ZM 4.80782 15.8358C 4.08716 16.5566 3.23865 17.1064 2.2856 17.47L 1.07031 17.9338L 1.53421 16.7187C 1.89763 15.7664 2.44753 14.918 3.16872 14.1971L 3.72498 13.6408L 5.36408 15.28L 4.80782 15.8358ZM 17.8888 0.0544237C 17.8157 -0.0183177 17.6893 -0.0179646 17.6169 0.0544237L 15.8872 1.7838L 15.5997 1.49636C 15.5635 1.46017 15.5151 1.44004 15.4639 1.44004C 15.4125 1.44004 15.3643 1.46017 15.3279 1.49636L 2.89659 13.9253C 2.13726 14.6846 1.55805 15.5784 1.17485 16.5819L 0.64561 17.9686C 0.638723 17.9866 0.634838 18.0062 0.633779 18.0277L 0.629717 18.1024L 0.0561554 18.6757C -0.0187185 18.7507 -0.0187185 18.8726 0.0561554 18.9476C 0.12891 19.02 0.255348 19.02 0.328103 18.9476L 0.901488 18.3741L 0.976008 18.3703C 0.997376 18.3694 1.01751 18.3651 1.0357 18.3583L 2.42245 17.8291C 3.42565 17.4463 4.31972 16.8672 5.07959 16.1075L 16.2141 4.97507L 16.2921 5.31847C 16.3882 5.74309 16.1318 6.34921 15.6541 6.82679L 12.3782 10.1021C 12.3033 10.177 12.3033 10.299 12.3784 10.3738C 12.4508 10.4464 12.5772 10.4462 12.6501 10.3738L 15.926 7.09852C 16.2911 6.7334 16.5478 6.29995 16.649 5.87798C 16.7401 5.4975 16.6942 5.14809 16.5197 4.8942L 16.4281 4.76108L 17.5106 3.67878C 17.547 3.64241 17.5669 3.59421 17.5669 3.54284C 17.5669 3.49163 17.547 3.44326 17.5108 3.40706L 17.2233 3.11963L 18.953 1.39025C 19.0278 1.31522 19.0278 1.19339 18.9528 1.11836L 17.8888 0.0544237Z"/>
<path id="path7_fill" fill-rule="evenodd" d="M 13.2248 0L 1.59962e-15 0L 0 24.0207L 13.2248 24.0207L 13.2248 0Z"/>
<path id="path8_fill" fill-rule="evenodd" d="M 12.7406 1.62785L 12.7406 2.43411L 0.48584 2.43411L 0.48584 1.62785C 0.48584 1.00349 0.984944 0.495422 1.59819 0.495422L 11.6267 0.495422C 12.2408 0.495422 12.7406 1.00349 12.7406 1.62785L 12.7406 1.62785ZM 0.48584 18.6595L 12.7406 18.6595L 12.7406 2.92731L 0.48584 2.92731L 0.48584 18.6595ZM 12.7406 19.1522L 12.7406 22.3931C 12.7406 23.0174 12.2408 23.5253 11.6267 23.5253L 1.59819 23.5253C 0.984944 23.5253 0.48584 23.0174 0.48584 22.3931L 0.48584 19.1522L 12.7406 19.1522ZM 11.6269 0L 1.59839 0C 0.717026 0 0 0.730333 0 1.62788L 0 22.3931C 0 23.2904 0.717026 24.0207 1.59839 24.0207L 11.6269 24.0207C 12.508 24.0207 13.2248 23.2904 13.2248 22.3931L 13.2248 1.62788C 13.2248 0.730333 12.508 0 11.6269 0L 11.6269 0Z"/>
<path id="path9_fill" fill-rule="evenodd" d="M 0.483887 1.46344C 0.483887 0.929678 0.911176 0.495239 1.4364 0.495239C 1.96071 0.495239 2.38733 0.929678 2.38733 1.46344C 2.38733 1.99857 1.96071 2.43438 1.4364 2.43438C 0.911176 2.43438 0.483887 1.99857 0.483887 1.46344L 0.483887 1.46344ZM 1.4363 2.92959C 2.22875 2.92959 2.87306 2.27197 2.87306 1.46342C 2.87306 0.656474 2.22875 0 1.4363 0C 0.644311 0 0 0.656474 0 1.46342C 0 2.27197 0.644311 2.92959 1.4363 2.92959L 1.4363 2.92959Z"/>
<path id="path10_fill" fill-rule="evenodd" d="M 1.835 0L 0.242911 0C 0.109186 0 0 0.111018 0 0.247726C 0 0.384434 0.109186 0.495452 0.242911 0.495452L 1.835 0.495452C 1.96918 0.495452 2.07814 0.384434 2.07814 0.247726C 2.07814 0.111018 1.96918 0 1.835 0"/>
<path id="path11_fill" fill-rule="evenodd" d="M 0.641159 0L 0.242686 0C 0.108736 0 0 0.111018 0 0.247726C 0 0.384434 0.108736 0.495452 0.242686 0.495452L 0.641159 0.495452C 0.775334 0.495452 0.884295 0.384434 0.884295 0.247726C 0.884295 0.111018 0.775334 0 0.641159 0"/>
<path id="path12_fill" fill-rule="evenodd" d="M 1.71748 3.58559e-14L 1.71748 6.55887L 0 6.55887L 0 0L 1.71748 0L 1.71748 3.58559e-14Z"/>
<path id="path13_fill" fill-rule="evenodd" d="M 0.414739 0.0698164C 0.323337 -0.0233103 0.162823 -0.0233103 0.0702957 0.0700457C -0.0235819 0.166154 -0.0233567 0.322359 0.0705208 0.418239C 1.61826 1.99474 1.61826 4.56169 0.0705208 6.14025C -0.0233567 6.23636 -0.0233567 6.3928 0.0709711 6.48914C 0.11442 6.53318 0.177005 6.55887 0.242742 6.55887L 0.242967 6.55887C 0.308479 6.55887 0.371064 6.53318 0.414513 6.48914C 1.25491 5.63356 1.71754 4.49425 1.71754 3.28016C 1.71754 2.06631 1.25491 0.926077 0.414739 0.0698164"/>
<path id="path14_fill" fill-rule="evenodd" d="M 0.0711398 0.0702178C 0.0254392 0.116552 0.000450252 0.178483 0.000450252 0.244085C 0.000450252 0.309916 0.0254392 0.371618 0.0709147 0.418181C 0.592982 0.952628 0.880243 1.6614 0.880243 2.41375C 0.880243 3.16611 0.592982 3.87327 0.0709147 4.40543C -0.0236382 4.50222 -0.0236382 4.65934 0.0709147 4.75568C 0.115039 4.80041 0.177624 4.82587 0.242911 4.82587C 0.308198 4.82587 0.370783 4.80041 0.414907 4.75568C 1.02725 4.12972 1.36449 3.298 1.36449 2.41375C 1.36449 1.52653 1.02725 0.694121 0.414682 0.0699884C 0.321255 -0.0233677 0.162091 -0.0233677 0.0711398 0.0702178"/>
<path id="path15_fill" fill-rule="evenodd" d="M 0 6.5593L 0 6.51926e-15L 1.715 0L 1.715 6.5593L 8.12031e-17 6.5593L 0 6.5593Z"/>
<path id="path16_fill" fill-rule="evenodd" d="M 1.64443 0.41821C 1.73854 0.322331 1.73854 0.165896 1.64443 0.0695584C 1.55303 -0.0233389 1.39387 -0.0231095 1.30247 0.0697878C -0.434156 1.83988 -0.434156 4.71924 1.30247 6.48888C 1.34704 6.53429 1.4076 6.5593 1.47334 6.5593C 1.53817 6.5593 1.60076 6.53338 1.64466 6.48865C 1.73854 6.39254 1.73854 6.23656 1.64466 6.14023C 0.097367 4.56372 0.0971419 1.99678 1.64443 0.41821"/>
<path id="path17_fill" fill-rule="evenodd" d="M 1.2956 0.0701604C 1.20375 -0.023425 1.04368 -0.023425 0.951833 0.0703898C 0.337914 0.69544 0 1.52785 0 2.41415C 0 3.30092 0.337914 4.13264 0.951833 4.75631C 0.995282 4.80035 1.05787 4.82604 1.1236 4.82604C 1.18934 4.82604 1.25193 4.80035 1.29583 4.75608C 1.38993 4.65998 1.38993 4.504 1.2956 4.40789C 0.773758 3.8778 0.486497 3.16995 0.486497 2.41415C 0.486497 1.65813 0.773758 0.950276 1.29583 0.420418C 1.39015 0.32385 1.39038 0.166728 1.2956 0.0701604"/>
<path id="path18_fill" fill-rule="evenodd" d="M 0 0.250136C 0 0.387954 0.081745 0.5 0.18205 0.5L 8.43967 0.5C 8.54018 0.5 8.62173 0.387954 8.62173 0.250136C 8.62173 0.112317 8.54018 0 8.43967 0L 0.18205 0C 0.081745 0 0 0.112317 0 0.250136"/>
<path id="path19_fill" fill-rule="evenodd" d="M 0.18205 0.5L 3.48522 0.5C 3.58552 0.5 3.66727 0.387282 3.66727 0.248635C 3.66727 0.111627 3.58552 0 3.48522 0L 0.18205 0C 0.081745 0 0 0.111627 0 0.248635C 0 0.387282 0.081745 0.5 0.18205 0.5"/>
<path id="path20_fill" fill-rule="evenodd" d="M 8.43967 0L 0.18205 0C 0.0815475 0 0 0.112106 0 0.25C 0 0.387894 0.0815475 0.5 0.18205 0.5L 8.43967 0.5C 8.53998 0.5 8.62173 0.387894 8.62173 0.25C 8.62173 0.112106 8.53998 0 8.43967 0"/>
<path id="path21_fill" fill-rule="evenodd" d="M 8.43967 0L 0.18205 0C 0.0815475 0 0 0.112718 0 0.251365C 0 0.388373 0.0815475 0.5 0.18205 0.5L 8.43967 0.5C 8.53998 0.5 8.62173 0.388373 8.62173 0.251365C 8.62173 0.112718 8.53998 0 8.43967 0"/>
<path id="path22_fill" fill-rule="evenodd" d="M 8.43967 0L 0.18205 0C 0.0815475 0 0 0.112317 0 0.250136C 0 0.387683 0.0815475 0.5 0.18205 0.5L 8.43967 0.5C 8.53998 0.5 8.62173 0.387683 8.62173 0.250136C 8.62173 0.112317 8.53998 0 8.43967 0"/>
<path id="path23_fill" fill-rule="evenodd" d="M 15.5564 19.7017L 0 19.7017L 0 0L 15.5564 2.83194e-15L 15.5564 19.7017Z"/>
<path id="path24_fill" fill-rule="evenodd" d="M 14.9373 6.33355L 10.9326 6.33355L 10.9326 2.29175L 14.9373 6.33355ZM 15.1945 19.3342L 2.01562 19.3342L 2.01562 2.03406L 10.5706 2.03406L 10.5706 6.7008L 15.1945 6.7008L 15.1945 19.3342ZM 1.65135 17.6673L 0.36377 17.6673L 0.36377 0.367249L 13.5429 0.367249L 13.5429 4.40865L 10.8259 1.66675L 1.65135 1.66675L 1.65135 17.6673ZM 13.9049 0L 0 0L 0 18.0348L 1.65149 18.0348L 1.65149 19.7018L 15.5564 19.7018L 15.5564 6.44093L 13.9049 4.77415L 13.9049 0Z"/>
<path id="path25_fill" fill-rule="evenodd" d="M 5.99942 3.51716C 5.96671 2.65049 5.33089 1.8501 4.24427 1.8501C 3.14129 1.8501 2.43953 2.56688 2.33936 3.51716L 5.99942 3.51716ZM 0 4.36749C 0 1.95 1.70456 0 4.34547 0C 6.86882 0 8.32242 2.03361 8.32242 4.40063L 8.32242 5.01749L 2.33936 5.01749C 2.59031 6.20126 3.71016 6.75133 5.13053 6.75133C 6.13333 6.75133 7.05282 6.45106 7.80416 6.01773L 7.80416 7.90145C 7.11927 8.41788 5.91611 8.7518 4.62862 8.7518C 2.10527 8.7518 0 7.08475 0 4.36749Z"/>
<path id="path26_fill" fill-rule="evenodd" d="M 6.66844 8.58511L 6.66844 6.41793C 6.31731 5.76793 5.56547 5.1842 4.59589 5.1842C 3.27569 5.1842 2.33984 6.20126 2.33984 7.50177C 2.33984 8.8186 3.27569 9.83515 4.59589 9.83515C 5.56547 9.83515 6.31731 9.25244 6.66844 8.58511L 6.66844 8.58511ZM 0 7.50176C 0 5.06796 1.62124 3.13427 3.92789 3.13427C 5.33191 3.13427 6.20029 3.76745 6.66847 4.368L 6.66847 0L 9.0252 0L 9.0252 11.6694L 6.66847 11.6694L 6.66847 10.6524C 6.20029 11.2692 5.33191 11.8861 3.92789 11.8861C 1.62124 11.8861 0 9.95239 0 7.50176L 0 7.50176Z"/>
<path id="path27_fill" fill-rule="evenodd" d="M 8.18953 0L 8.18953 8.31847L 5.8328 8.31847L 5.8328 7.31824C 5.24758 7.95192 4.36233 8.53514 3.04162 8.53514C 1.08611 8.53514 0 7.20149 0 5.1011L 0 0L 2.35673 0L 2.35673 4.6178C 2.35673 6.05137 3.22511 6.38478 3.94373 6.38478C 4.71244 6.38478 5.44844 5.88467 5.8328 5.30094L 5.8328 0L 8.18953 0Z"/>
<path id="path28_fill" fill-rule="evenodd" d="M 0 25.7818L 91.5354 25.7818L 91.5354 0L 0 0L 0 25.7818Z"/>
<path id="path29_fill" fill-rule="evenodd" d="M 0.233398 11.936L 2.59013 11.936L 2.59013 3.61755L 0.233398 3.61755L 0.233398 11.936ZM 0 1.41725C 0 0.616863 0.617933 0 1.40351 0C 2.18909 0 2.80753 0.616863 2.80753 1.41725C 2.80753 2.20082 2.18909 2.81769 1.40351 2.81769C 0.617933 2.81769 0 2.20082 0 1.41725L 0 1.41725Z"/>
<path id="path30_fill" fill-rule="evenodd" d="M 6.68505 7.50177C 6.68505 6.20126 5.74971 5.1842 4.429 5.1842C 3.45942 5.1842 2.70809 5.76793 2.35645 6.41793L 2.35645 8.58511C 2.70809 9.25244 3.45942 9.83515 4.429 9.83515C 5.74971 9.83515 6.68505 8.8186 6.68505 7.50177L 6.68505 7.50177ZM 2.35622 10.6524L 2.35622 11.6694L 0 11.6694L 0 0L 2.35622 0L 2.35622 4.368C 2.8244 3.76745 3.69329 3.13427 5.09782 3.13427C 7.40344 3.13427 9.02469 5.06796 9.02469 7.50176C 9.02469 9.95239 7.40344 11.8861 5.09782 11.8861C 3.69329 11.8861 2.8244 11.2692 2.35622 10.6524L 2.35622 10.6524Z"/>
<path id="path31_fill" fill-rule="evenodd" d="M 0 9.58533L 0 0L 2.35673 0L 2.35673 8.96847C 2.35673 9.56902 2.69151 9.80251 3.10858 9.80251C 3.32631 9.80251 3.54353 9.75204 3.71067 9.65212L 3.71067 11.5858C 3.30944 11.7856 2.77482 11.8861 2.22333 11.8861C 1.08662 11.8861 0 11.386 0 9.58533"/>
<path id="path32_fill" fill-rule="evenodd" d="M 5.99942 3.51716C 5.96671 2.65049 5.33089 1.8501 4.24427 1.8501C 3.14129 1.8501 2.43953 2.56688 2.33936 3.51716L 5.99942 3.51716ZM 0 4.36749C 0 1.95 1.70456 0 4.34547 0C 6.86882 0 8.32242 2.03361 8.32242 4.40063L 8.32242 5.01749L 2.33936 5.01749C 2.59031 6.20126 3.71016 6.75133 5.13053 6.75133C 6.13333 6.75133 7.05282 6.45106 7.80416 6.01773L 7.80416 7.90145C 7.11927 8.41788 5.91611 8.7518 4.62862 8.7518C 2.10527 8.7518 0 7.08475 0 4.36749L 0 4.36749Z"/>
<path id="path33_fill" d="M 1.296 10.856L 5.696 10.856L 5.696 10.136L 1.296 10.136L 1.296 10.856ZM 16.707 13.464C 16.211 14.104 15.379 14.52 14.307 14.52C 12.643 14.52 11.379 13.064 11.379 11.32C 11.379 9.576 12.595 8.12 14.307 8.12C 15.379 8.12 16.083 8.52 16.579 9.16L 17.123 8.744C 16.483 7.928 15.603 7.448 14.307 7.448C 12.195 7.448 10.611 9.128 10.611 11.32C 10.611 13.512 12.163 15.192 14.307 15.192C 15.587 15.192 16.595 14.664 17.219 13.912L 16.707 13.464ZM 21.8717 15.192C 23.9678 15.192 25.6637 13.448 25.6637 11.32C 25.6637 9.192 23.9678 7.448 21.8717 7.448C 19.7757 7.448 18.0798 9.192 18.0798 11.32C 18.0798 13.448 19.7757 15.192 21.8717 15.192ZM 21.8717 14.536C 20.1918 14.536 18.8318 13.048 18.8318 11.32C 18.8318 9.544 20.1437 8.104 21.8717 8.104C 23.5518 8.104 24.9117 9.592 24.9117 11.32C 24.9117 13.096 23.5998 14.536 21.8717 14.536ZM 27.5423 15L 28.2622 15L 28.2622 11.208C 28.2622 9.816 29.1423 8.12 30.9983 8.12C 32.4062 8.12 33.1902 8.728 33.1902 10.92L 33.1902 15L 33.9103 15L 33.9103 10.68C 33.9103 8.696 33.1902 7.448 31.0943 7.448C 29.4142 7.448 28.5823 8.52 28.2303 9.176C 28.2303 8.36 28.2303 8.104 28.1823 7.64L 27.5102 7.64C 27.5582 8.12 27.5423 8.376 27.5423 9.192L 27.5423 15ZM 36.0891 15L 36.8091 15L 36.8091 11.208C 36.8091 9.816 37.6891 8.12 39.5451 8.12C 40.9531 8.12 41.7371 8.728 41.7371 10.92L 41.7371 15L 42.4571 15L 42.4571 10.68C 42.4571 8.696 41.7371 7.448 39.6411 7.448C 37.9611 7.448 37.1291 8.52 36.7771 9.176C 36.7771 8.36 36.7771 8.104 36.7291 7.64L 36.0571 7.64C 36.1051 8.12 36.0891 8.376 36.0891 9.192L 36.0891 15ZM 50.476 13.464C 49.964 14.104 48.908 14.52 47.996 14.52C 46.268 14.52 45.084 13.192 45.036 11.512L 51.308 11.512C 51.308 8.872 49.804 7.448 47.788 7.448C 45.692 7.448 44.236 9.192 44.236 11.32C 44.236 13.624 45.804 15.192 47.996 15.192C 49.148 15.192 50.348 14.712 50.988 13.896L 50.476 13.464ZM 45.052 10.888C 45.132 9.352 46.22 8.12 47.788 8.12C 49.324 8.12 50.332 9.08 50.524 10.888L 45.052 10.888ZM 58.8789 13.464C 58.3829 14.104 57.5509 14.52 56.4789 14.52C 54.8149 14.52 53.5509 13.064 53.5509 11.32C 53.5509 9.576 54.7669 8.12 56.4789 8.12C 57.5509 8.12 58.2549 8.52 58.7509 9.16L 59.2949 8.744C 58.6549 7.928 57.7749 7.448 56.4789 7.448C 54.3669 7.448 52.7829 9.128 52.7829 11.32C 52.7829 13.512 54.3349 15.192 56.4789 15.192C 57.7589 15.192 58.7669 14.664 59.3909 13.912L 58.8789 13.464ZM 61.7287 12.744C 61.7287 14.712 62.5287 15.192 63.6967 15.192C 64.5767 15.192 65.0567 14.888 65.4887 14.328L 65.0408 13.896C 64.6568 14.36 64.3047 14.536 63.7768 14.536C 63.0087 14.536 62.4488 14.312 62.4488 12.568L 62.4488 8.312L 64.8808 8.312L 64.8808 7.64L 62.4488 7.64L 62.4488 5.208L 61.7287 5.208L 61.7287 7.64L 60.2567 7.64L 60.2567 8.312L 61.7287 8.312L 61.7287 12.744ZM 66.6482 6.088L 67.6562 6.088L 67.6562 5.048L 66.6482 5.048L 66.6482 6.088ZM 66.7923 15L 67.5122 15L 67.5122 7.64L 66.7923 7.64L 66.7923 15ZM 69.7766 15L 70.4966 15L 70.4966 11.208C 70.4966 9.816 71.3766 8.12 73.2326 8.12C 74.6406 8.12 75.4246 8.728 75.4246 10.92L 75.4246 15L 76.1446 15L 76.1446 10.68C 76.1446 8.696 75.4246 7.448 73.3286 7.448C 71.6486 7.448 70.8166 8.52 70.4646 9.176C 70.4646 8.36 70.4646 8.104 70.4166 7.64L 69.7446 7.64C 69.7926 8.12 69.7766 8.376 69.7766 9.192L 69.7766 15ZM 83.9555 12.152C 83.9555 12.888 83.1715 14.52 81.3155 14.52C 79.4115 14.52 78.6915 13.048 78.6915 11.4C 78.6915 9.288 80.2115 8.12 81.9875 8.12C 82.6115 8.12 83.0915 8.216 83.4275 8.296C 83.6195 8.344 83.7955 8.392 83.9555 8.456L 83.9555 12.152ZM 78.5315 17.544C 78.8835 17.848 79.7475 18.392 81.1555 18.392C 83.6675 18.392 84.6595 17.032 84.6595 14.84L 84.6595 7.96C 84.0835 7.704 83.0755 7.448 82.0035 7.448C 79.6995 7.448 77.9235 9 77.9235 11.384C 77.9235 13.512 78.9795 15.192 81.2355 15.192C 82.1795 15.192 82.8355 14.856 83.2835 14.488C 83.5555 14.28 83.7635 14.04 83.9395 13.768L 83.9395 14.888C 83.9395 16.488 83.3155 17.704 81.1875 17.704C 79.9875 17.704 79.2835 17.272 78.9475 17L 78.5315 17.544ZM 94.705 12.28C 94.705 13.4 93.521 14.536 92.065 14.536C 90.961 14.536 90.161 14.072 90.161 13C 90.161 12.264 90.401 11.048 92.577 11.048C 93.617 11.048 94.257 11.128 94.705 11.24L 94.705 12.28ZM 95.457 15L 95.425 14.552C 95.409 14.28 95.409 13.896 95.409 13.464L 95.409 10.072C 95.409 8.2 94.337 7.448 92.433 7.448C 91.137 7.448 90.193 7.992 89.793 8.376L 90.177 8.872C 90.561 8.552 91.233 8.104 92.449 8.104C 93.905 8.104 94.689 8.568 94.689 10.184L 94.689 10.6C 94.193 10.52 93.489 10.44 92.593 10.44C 90.289 10.44 89.393 11.576 89.393 13C 89.393 14.744 90.753 15.192 91.985 15.192C 92.817 15.192 93.969 14.888 94.737 13.768C 94.737 14.168 94.737 14.472 94.753 14.68C 94.753 14.792 94.753 14.904 94.769 15L 95.457 15ZM 97.636 15L 98.356 15L 98.356 11.208C 98.356 9.816 99.236 8.12 101.092 8.12C 102.5 8.12 103.284 8.728 103.284 10.92L 103.284 15L 104.004 15L 104.004 10.68C 104.004 8.696 103.284 7.448 101.188 7.448C 99.508 7.448 98.676 8.52 98.324 9.176C 98.324 8.36 98.324 8.104 98.276 7.64L 97.604 7.64C 97.652 8.12 97.636 8.376 97.636 9.192L 97.636 15ZM 112.551 15C 112.535 14.872 112.535 14.728 112.535 14.552C 112.519 14.28 112.519 13.896 112.519 13.464L 112.519 4.328L 111.815 4.328L 111.815 8.152C 111.607 8.024 111.383 7.912 111.143 7.8C 110.711 7.624 110.199 7.448 109.575 7.448C 107.351 7.448 105.783 9 105.783 11.384C 105.783 13.512 106.839 15.192 109.095 15.192C 110.055 15.192 110.727 14.824 111.175 14.456C 111.447 14.248 111.655 13.992 111.815 13.72C 111.815 14.024 111.815 14.344 111.831 14.584C 111.831 14.728 111.831 14.856 111.847 15L 112.551 15ZM 111.815 12.152C 111.815 13 110.967 14.52 109.175 14.52C 107.271 14.52 106.551 13.048 106.551 11.4C 106.551 9.08 108.039 8.12 109.559 8.12C 110.311 8.12 110.887 8.328 111.255 8.536C 111.463 8.648 111.655 8.792 111.815 8.936L 111.815 12.152ZM 117.683 15L 118.403 15L 118.403 11.208C 118.403 9.816 119.283 8.12 121.139 8.12C 122.547 8.12 123.331 8.728 123.331 10.92L 123.331 15L 124.051 15L 124.051 10.68C 124.051 8.696 123.331 7.448 121.235 7.448C 119.555 7.448 118.723 8.52 118.371 9.176C 118.371 8.36 118.371 8.104 118.323 7.64L 117.651 7.64C 117.699 8.12 117.683 8.376 117.683 9.192L 117.683 15ZM 131.174 12.28C 131.174 13.4 129.99 14.536 128.534 14.536C 127.43 14.536 126.63 14.072 126.63 13C 126.63 12.264 126.87 11.048 129.046 11.048C 130.086 11.048 130.726 11.128 131.174 11.24L 131.174 12.28ZM 131.926 15L 131.894 14.552C 131.878 14.28 131.878 13.896 131.878 13.464L 131.878 10.072C 131.878 8.2 130.806 7.448 128.902 7.448C 127.606 7.448 126.662 7.992 126.262 8.376L 126.646 8.872C 127.03 8.552 127.702 8.104 128.918 8.104C 130.374 8.104 131.158 8.568 131.158 10.184L 131.158 10.6C 130.662 10.52 129.958 10.44 129.062 10.44C 126.758 10.44 125.862 11.576 125.862 13C 125.862 14.744 127.222 15.192 128.454 15.192C 129.286 15.192 130.438 14.888 131.206 13.768C 131.206 14.168 131.206 14.472 131.222 14.68C 131.222 14.792 131.222 14.904 131.238 15L 131.926 15ZM 136.032 15L 136.704 15L 139.904 7.64L 139.152 7.64L 136.4 14.12L 133.632 7.64L 132.816 7.64L 136.032 15ZM 141.054 6.088L 142.062 6.088L 142.062 5.048L 141.054 5.048L 141.054 6.088ZM 141.199 15L 141.918 15L 141.918 7.64L 141.199 7.64L 141.199 15ZM 149.815 12.152C 149.815 12.888 149.031 14.52 147.175 14.52C 145.271 14.52 144.551 13.048 144.551 11.4C 144.551 9.288 146.071 8.12 147.847 8.12C 148.471 8.12 148.951 8.216 149.287 8.296C 149.479 8.344 149.655 8.392 149.815 8.456L 149.815 12.152ZM 144.391 17.544C 144.743 17.848 145.607 18.392 147.015 18.392C 149.527 18.392 150.519 17.032 150.519 14.84L 150.519 7.96C 149.943 7.704 148.935 7.448 147.863 7.448C 145.559 7.448 143.783 9 143.783 11.384C 143.783 13.512 144.839 15.192 147.095 15.192C 148.039 15.192 148.695 14.856 149.143 14.488C 149.415 14.28 149.623 14.04 149.799 13.768L 149.799 14.888C 149.799 16.488 149.175 17.704 147.047 17.704C 145.847 17.704 145.143 17.272 144.807 17L 144.391 17.544ZM 157.674 12.28C 157.674 13.4 156.49 14.536 155.034 14.536C 153.93 14.536 153.13 14.072 153.13 13C 153.13 12.264 153.37 11.048 155.546 11.048C 156.586 11.048 157.226 11.128 157.674 11.24L 157.674 12.28ZM 158.426 15L 158.394 14.552C 158.378 14.28 158.378 13.896 158.378 13.464L 158.378 10.072C 158.378 8.2 157.306 7.448 155.402 7.448C 154.106 7.448 153.162 7.992 152.762 8.376L 153.146 8.872C 153.53 8.552 154.202 8.104 155.418 8.104C 156.874 8.104 157.658 8.568 157.658 10.184L 157.658 10.6C 157.162 10.52 156.458 10.44 155.562 10.44C 153.258 10.44 152.362 11.576 152.362 13C 152.362 14.744 153.722 15.192 154.954 15.192C 155.786 15.192 156.938 14.888 157.706 13.768C 157.706 14.168 157.706 14.472 157.722 14.68C 157.722 14.792 157.722 14.904 157.738 15L 158.426 15ZM 161.229 12.744C 161.229 14.712 162.029 15.192 163.197 15.192C 164.077 15.192 164.557 14.888 164.989 14.328L 164.541 13.896C 164.157 14.36 163.805 14.536 163.277 14.536C 162.509 14.536 161.949 14.312 161.949 12.568L 161.949 8.312L 164.381 8.312L 164.381 7.64L 161.949 7.64L 161.949 5.208L 161.229 5.208L 161.229 7.64L 159.757 7.64L 159.757 8.312L 161.229 8.312L 161.229 12.744ZM 166.148 6.088L 167.156 6.088L 167.156 5.048L 166.148 5.048L 166.148 6.088ZM 166.292 15L 167.012 15L 167.012 7.64L 166.292 7.64L 166.292 15ZM 169.277 15L 169.997 15L 169.997 11.208C 169.997 9.816 170.877 8.12 172.733 8.12C 174.141 8.12 174.925 8.728 174.925 10.92L 174.925 15L 175.645 15L 175.645 10.68C 175.645 8.696 174.925 7.448 172.829 7.448C 171.149 7.448 170.317 8.52 169.965 9.176C 169.965 8.36 169.965 8.104 169.917 7.64L 169.245 7.64C 169.293 8.12 169.277 8.376 169.277 9.192L 169.277 15ZM 183.456 12.152C 183.456 12.888 182.672 14.52 180.815 14.52C 178.911 14.52 178.191 13.048 178.191 11.4C 178.191 9.288 179.711 8.12 181.488 8.12C 182.111 8.12 182.591 8.216 182.927 8.296C 183.12 8.344 183.295 8.392 183.456 8.456L 183.456 12.152ZM 178.031 17.544C 178.383 17.848 179.247 18.392 180.655 18.392C 183.168 18.392 184.16 17.032 184.16 14.84L 184.16 7.96C 183.583 7.704 182.576 7.448 181.503 7.448C 179.2 7.448 177.424 9 177.424 11.384C 177.424 13.512 178.48 15.192 180.735 15.192C 181.68 15.192 182.335 14.856 182.784 14.488C 183.056 14.28 183.264 14.04 183.439 13.768L 183.439 14.888C 183.439 16.488 182.815 17.704 180.688 17.704C 179.487 17.704 178.783 17.272 178.447 17L 178.031 17.544ZM 189.117 6.088L 190.125 6.088L 190.125 5.048L 189.117 5.048L 189.117 6.088ZM 189.261 15L 189.981 15L 189.981 7.64L 189.261 7.64L 189.261 15ZM 192.245 15L 192.965 15L 192.965 11.208C 192.965 9.816 193.845 8.12 195.701 8.12C 197.109 8.12 197.893 8.728 197.893 10.92L 197.893 15L 198.613 15L 198.613 10.68C 198.613 8.696 197.893 7.448 195.797 7.448C 194.117 7.448 193.285 8.52 192.933 9.176C 192.933 8.36 192.933 8.104 192.885 7.64L 192.213 7.64C 192.261 8.12 192.245 8.376 192.245 9.192L 192.245 15ZM 201.416 12.744C 201.416 14.712 202.216 15.192 203.384 15.192C 204.264 15.192 204.744 14.888 205.176 14.328L 204.728 13.896C 204.344 14.36 203.992 14.536 203.464 14.536C 202.696 14.536 202.136 14.312 202.136 12.568L 202.136 8.312L 204.568 8.312L 204.568 7.64L 202.136 7.64L 202.136 5.208L 201.416 5.208L 201.416 7.64L 199.944 7.64L 199.944 8.312L 201.416 8.312L 201.416 12.744ZM 212.32 13.464C 211.808 14.104 210.752 14.52 209.84 14.52C 208.112 14.52 206.928 13.192 206.88 11.512L 213.152 11.512C 213.152 8.872 211.648 7.448 209.632 7.448C 207.536 7.448 206.08 9.192 206.08 11.32C 206.08 13.624 207.648 15.192 209.84 15.192C 210.992 15.192 212.192 14.712 212.832 13.896L 212.32 13.464ZM 206.896 10.888C 206.976 9.352 208.064 8.12 209.632 8.12C 211.168 8.12 212.176 9.08 212.368 10.888L 206.896 10.888ZM 214.995 15L 215.715 15L 215.715 4.328L 214.995 4.328L 214.995 15ZM 217.916 15L 218.637 15L 218.637 4.328L 217.916 4.328L 217.916 15ZM 226.71 13.464C 226.198 14.104 225.142 14.52 224.23 14.52C 222.502 14.52 221.318 13.192 221.27 11.512L 227.542 11.512C 227.542 8.872 226.038 7.448 224.022 7.448C 221.926 7.448 220.47 9.192 220.47 11.32C 220.47 13.624 222.038 15.192 224.23 15.192C 225.382 15.192 226.582 14.712 227.222 13.896L 226.71 13.464ZM 221.286 10.888C 221.366 9.352 222.454 8.12 224.022 8.12C 225.558 8.12 226.566 9.08 226.758 10.888L 221.286 10.888ZM 235.113 13.464C 234.617 14.104 233.785 14.52 232.713 14.52C 231.049 14.52 229.785 13.064 229.785 11.32C 229.785 9.576 231.001 8.12 232.713 8.12C 233.785 8.12 234.489 8.52 234.985 9.16L 235.529 8.744C 234.889 7.928 234.009 7.448 232.713 7.448C 230.601 7.448 229.017 9.128 229.017 11.32C 229.017 13.512 230.569 15.192 232.713 15.192C 233.993 15.192 235.001 14.664 235.625 13.912L 235.113 13.464ZM 237.963 12.744C 237.963 14.712 238.763 15.192 239.931 15.192C 240.811 15.192 241.291 14.888 241.723 14.328L 241.275 13.896C 240.891 14.36 240.539 14.536 240.011 14.536C 239.243 14.536 238.683 14.312 238.683 12.568L 238.683 8.312L 241.115 8.312L 241.115 7.64L 238.683 7.64L 238.683 5.208L 237.963 5.208L 237.963 7.64L 236.491 7.64L 236.491 8.312L 237.963 8.312L 237.963 12.744ZM 242.547 14.072C 243.235 14.76 244.163 15.192 245.555 15.192C 246.979 15.192 248.483 14.52 248.483 13.048C 248.483 11.608 247.107 11.192 245.907 10.936C 244.787 10.68 243.619 10.44 243.619 9.48C 243.619 8.344 244.659 8.104 245.603 8.104C 246.547 8.104 247.187 8.472 247.699 9.032L 248.195 8.584C 247.635 7.928 246.739 7.448 245.587 7.448C 244.179 7.448 242.883 8.104 242.883 9.448C 242.883 10.792 243.843 11.208 245.203 11.512C 246.835 11.896 247.699 12.056 247.699 13.144C 247.699 14.072 246.691 14.52 245.491 14.52C 244.403 14.52 243.635 14.184 243.011 13.56L 242.547 14.072Z"/>
<path id="path34_fill" fill-rule="evenodd" d="M 2.35835 7.93286C 2.35835 4.85584 4.86829 2.35231 7.9532 2.35231L 7.9532 0C 3.56771 0 0 3.55859 0 7.93286C 0 12.3071 3.56771 15.8657 7.9532 15.8657L 7.9532 13.5134C 4.86829 13.5134 2.35835 11.0099 2.35835 7.93286"/>
<path id="path35_fill" fill-rule="evenodd" d="M 2.44421 4.87592L 2.44421 0C 1.09425 0 0 1.09145 0 2.43796C 0 3.78447 1.09425 4.87592 2.44421 4.87592Z"/>
<path id="path36_fill" fill-rule="evenodd" d="M 5.59486 7.93286C 5.59486 11.0099 3.08491 13.5134 0 13.5134L 0 15.8657C 4.38549 15.8657 7.9532 12.3071 7.9532 7.93286C 7.9532 3.55859 4.38549 0 0 0L 0 2.35231C 3.08491 2.35231 5.59486 4.85584 5.59486 7.93286"/>
<path id="path37_fill" fill-rule="evenodd" d="M 2.44421 2.43796C 2.44421 1.09145 1.34996 0 0 0L 0 4.87592C 1.34996 4.87592 2.44421 3.78447 2.44421 2.43796"/>
</defs>
</svg>
