<?xml version="1.0" encoding="UTF-8"?>
<svg width="900px" height="130px" viewBox="0 0 900 130" version="1.1" xmlns="http://www.w3.org/2000/svg" xmlns:xlink="http://www.w3.org/1999/xlink">
    <!-- Generator: Sketch 46.1 (44463) - http://www.bohemiancoding.com/sketch -->
    <title>Professional Photo Background</title>
    <desc>Created with Sketch.</desc>
    <defs>
        <linearGradient x1="3.061617e-15%" y1="50%" x2="68.1341677%" y2="50%" id="linearGradient-1">
            <stop stop-color="#8D55E6" offset="0%"></stop>
            <stop stop-color="#AD8EE0" offset="100%"></stop>
        </linearGradient>
        <path d="M0,3.99733597 C0,1.78966827 1.79369675,0 4.00022227,0 L895.999778,0 C898.209039,0 900,1.78824821 900,3.99733597 L900,130 L0,130 L0,3.99733597 Z" id="path-2"></path>
        <polygon id="path-4" points="13.4454062 0.0637665471 0.220601024 0.0637665471 0.220601024 24.0844413 13.4454062 24.0844413"></polygon>
        <polygon id="path-6" points="1.73684754 0.195640557 1.73684754 6.75450591 0.0193719961 6.75450591 0.0193719961 0.195640557 1.73684754 0.195640557"></polygon>
        <polygon id="path-8" points="0 6.75501054 0 0.195715025 1.71499905 0.195715025 1.71499905 6.75501054 8.1203084e-17 6.75501054"></polygon>
        <polygon id="path-10" points="15.5563839 19.7287241 0 19.7287241 0 0.0270024456 15.5563839 0.0270024456"></polygon>
        <polygon id="path-12" points="0 25.7819569 91.5354 25.7819569 91.5354 0.000152941177 0 0.000152941177"></polygon>
    </defs>
    <g id="User-Interface" stroke="none" stroke-width="1" fill="none" fill-rule="evenodd">
        <g id="Professional-Profile-As-Guest-Desktop" transform="translate(-62.000000, -68.000000)">
            <g id="Professional-Profile" transform="translate(62.000000, 68.000000)">
                <g id="Professional-Photo-Background">
                    <mask id="mask-3" fill="white">
                        <use xlink:href="#path-2"></use>
                    </mask>
                    <use id="Background" fill="url(#linearGradient-1)" xlink:href="#path-2"></use>
                    <g id="Image" mask="url(#mask-3)">
                        <g transform="translate(32.000000, 14.000000)">
                            <path d="M704.767052,26.4619023 C704.073004,27.1507838 703.146395,27.5301441 702.158343,27.5301441 C701.168308,27.5301441 700.24203,27.1507838 699.549633,26.4619023 C698.855585,25.7730208 698.47338,24.8536377 698.47338,23.8726127 C698.47338,22.8912599 698.855585,21.9718768 699.549633,21.2829953 L708.709351,12.1898247 C709.173812,11.7288217 709.785605,11.4750405 710.432084,11.4750405 C711.147604,11.4750405 711.846938,11.7780041 712.401251,12.3281912 C713.49204,13.4124993 713.551832,14.9873198 712.540655,15.9909687 L703.932939,24.53428 C703.681879,24.783143 703.347243,24.9205258 702.990474,24.9205258 C702.634035,24.9205258 702.299068,24.783143 702.047348,24.53428 C701.795297,24.2841055 701.656884,23.9513046 701.656884,23.5971913 C701.656884,23.243078 701.795297,22.9106049 702.047348,22.6607583 L707.876559,16.8746126 C707.921486,16.8303484 707.945931,16.7713295 707.945931,16.7087039 C707.945931,16.6457504 707.921486,16.5864037 707.876559,16.5421395 C707.787367,16.4532833 707.632106,16.4536112 707.540932,16.5427953 L701.712381,22.3286132 C701.009084,23.0276591 701.009084,24.165412 701.712381,24.8651136 C702.052964,25.2031607 702.506523,25.389398 702.989813,25.389398 C703.473103,25.389398 703.926993,25.2031607 704.267905,24.8651136 L712.87331,16.3231139 C714.076084,15.1296209 714.016953,13.2688867 712.735887,11.9953903 C712.088087,11.3537239 711.26983,10.9999385 710.432084,10.9999385 C709.663378,10.9999385 708.933323,11.3045415 708.376036,11.8573517 L699.214667,20.9521617 C698.431426,21.7279321 698,22.765025 698,23.8726127 C698,24.9802005 698.431426,26.0179492 699.214667,26.7943754 C699.996256,27.5717852 701.041457,28 702.158343,28 C703.273907,28 704.318778,27.5717852 705.100367,26.7943754 L714.261736,17.7012048 C714.306663,17.6566128 714.331438,17.597266 714.331108,17.5343125 C714.331108,17.4720148 714.306332,17.4139796 714.262397,17.3710269 C714.171222,17.2788919 714.016623,17.2798756 713.9271,17.3700433 L704.767052,26.4619023 Z" id="Icon" fill="#FFFFFF" opacity="0.738572761"></path>
                            <path d="M510.071965,17.6717527 L509.944269,17.8077317 L509.804493,17.683832 C509.211225,17.1554466 508.554798,16.7043691 507.854541,16.3419885 L507.71442,16.2698575 L507.758251,16.1183479 C508.124773,14.8510512 508.337025,13.4032544 508.371882,11.9306087 L508.376369,11.7432062 L512.523038,11.7432062 L512.512684,11.9447588 C512.403625,14.0772823 511.536673,16.1111003 510.071965,17.6717527 L510.071965,17.6717527 Z M509.429688,18.2860741 C508.426067,19.1675217 507.219512,19.8215324 505.940481,20.1780459 L505.23125,20.3758022 L505.754114,19.8574253 C506.208297,19.4066929 506.624863,18.8099729 506.99173,18.0831409 C507.163947,17.7462995 507.329952,17.3621761 507.485258,16.940089 L507.561875,16.7330144 L507.75618,16.8375871 C508.354281,17.159243 508.917179,17.5495787 509.429688,17.9975501 L509.593968,18.1418121 L509.429688,18.2860741 Z M503.747216,20.4261903 L503.747216,15.7804711 L503.948768,15.7904797 C504.994495,15.8432838 506.004674,16.0689951 506.951695,16.4617466 L507.120461,16.5318069 L507.058684,16.7036788 C506.907174,17.1250757 506.739099,17.5195528 506.558944,17.8764114 C505.84143,19.2948726 504.949974,20.1583738 503.98052,20.3740765 L503.747216,20.4261903 Z M503.743419,11.7432062 L507.885257,11.7432062 L507.88077,11.939582 C507.848674,13.3293978 507.661271,14.648118 507.324085,15.8591595 L507.266449,16.065889 L507.067657,15.9858201 C506.066796,15.5827148 505.009681,15.3532071 503.926335,15.3031641 L503.743419,15.294536 L503.743419,11.7432062 Z M503.743419,7.73700246 L503.926335,7.72837435 C505.004849,7.67867644 506.063,7.44778824 507.071799,7.04192197 L507.270935,6.96185312 L507.328226,7.16858262 C507.660236,8.36788982 507.844877,9.67832707 507.876974,11.0643465 L507.88146,11.2607223 L503.743419,11.2607223 L503.743419,7.73700246 Z M503.743419,2.57394183 L503.977068,2.62571049 C504.945832,2.84141322 505.837289,3.70525953 506.554802,5.12372071 C506.744276,5.49852578 506.915457,5.90128592 507.063171,6.32164741 L507.123567,6.4928291 L506.955492,6.56254422 C505.997081,6.95805675 504.984141,7.18514859 503.944972,7.23726237 L503.743419,7.2476161 L503.743419,2.57394183 Z M505.93703,2.82208626 C507.221583,3.18205098 508.433314,3.84020316 509.441423,4.72613743 L509.605357,4.86970917 L509.442113,5.01397116 C508.938576,5.45814622 508.372918,5.85124289 507.760667,6.18187204 L507.564291,6.28782522 L507.489054,6.0779896 C507.342376,5.66832697 507.17361,5.2766108 506.988279,4.91353996 C506.622792,4.1905044 506.206572,3.59516486 505.750317,3.14305193 L505.225728,2.62294949 L505.93703,2.82208626 Z M509.952207,5.20758593 L510.080248,5.34425518 C511.538743,6.90249173 512.399829,8.9311328 512.504747,11.0553733 L512.514755,11.2565808 L508.368431,11.2565808 L508.363944,11.0695234 C508.329087,9.59929358 508.119596,8.15908957 507.758251,6.9049076 L507.714765,6.753398 L507.854886,6.681267 C508.548586,6.32475353 509.207428,5.87091497 509.812431,5.33217583 L509.952207,5.20758593 Z M503.26059,7.2476161 L503.059383,7.23726237 C502.015381,7.18480347 501.002441,6.95771163 500.048173,6.5621991 L499.880442,6.4928291 L499.940839,6.32164741 C500.089587,5.8995603 500.260769,5.49645503 500.449207,5.12372071 C501.166721,3.70525953 502.058177,2.84141322 503.027286,2.62571049 L503.26059,2.57394183 L503.26059,7.2476161 Z M503.26059,15.2952262 L503.076984,15.3031641 C501.993984,15.3494108 500.937213,15.5789185 499.937042,15.985475 L499.737906,16.0665792 L499.679925,15.8591595 C499.342393,14.648118 499.154991,13.3293978 499.122894,11.939582 L499.118407,11.7432062 L503.26059,11.7432062 L503.26059,15.2952262 Z M503.26059,20.4261903 L503.027286,20.3740765 C502.058177,20.1583738 501.166721,19.2948726 500.449207,17.8764114 C500.266981,17.5164467 500.103392,17.1330135 499.949122,16.7036788 L499.887345,16.5318069 L500.05611,16.4617466 C501.014521,16.0645085 502.0247,15.8387971 503.059728,15.7904797 L503.26059,15.7811614 L503.26059,20.4261903 Z M501.066635,20.1814971 C499.788294,19.8215324 498.582429,19.1675217 497.578462,18.2902156 L497.413493,18.1456084 L497.578462,18.0013465 C498.090627,17.553375 498.653525,17.1633845 499.251971,16.8417286 L499.446276,16.7371559 L499.522548,16.9442305 C499.677509,17.3656274 499.843514,17.7497508 500.015386,18.0862471 C500.379837,18.8072119 500.796402,19.4039319 501.254382,19.8615668 L501.773794,20.3806339 L501.066635,20.1814971 Z M497.068024,17.8080768 L496.939982,17.6720978 C495.471133,16.1111003 494.604181,14.0772823 494.498918,11.9444137 L494.488909,11.7432062 L498.635578,11.7432062 L498.640065,11.9306087 C498.674577,13.4025642 498.886829,14.8510512 499.253351,16.1183479 L499.297527,16.2698575 L499.157406,16.3419885 C498.447831,16.7088557 497.791404,17.1602784 497.207454,17.6834869 L497.068024,17.8080768 Z M494.498918,11.0553733 C494.604181,8.9311328 495.465266,6.90249173 496.923762,5.34425518 L497.051458,5.20758593 L497.191233,5.33217583 C497.785882,5.86159662 498.44507,6.31578029 499.149814,6.68161213 L499.288899,6.75408825 L499.245758,6.90456247 C498.880272,8.17876166 498.670781,9.61862055 498.640065,11.0688332 L498.635924,11.2565808 L494.488909,11.2565808 L494.498918,11.0553733 Z M499.725481,6.9573665 L499.924963,7.03812561 C500.925134,7.44468212 501.98294,7.67418983 503.069046,7.72043649 L503.252652,7.72837435 L503.252652,11.0650368 L503.064905,11.0650368 L503.064905,11.2565808 L499.114611,11.2565808 L499.119443,11.0605502 C499.151194,9.67418557 499.335836,8.3634032 499.667845,7.16478625 L499.725481,6.9573665 Z M497.562587,4.72613743 C498.57035,3.84020316 499.782082,3.18205098 501.066635,2.82208626 L501.777936,2.62294949 L501.253692,3.1427068 C500.801234,3.59136849 500.384669,4.18705316 500.015731,4.91353996 C499.834195,5.2766108 499.66543,5.66936234 499.51461,6.0793701 L499.438338,6.28678985 L499.243342,6.18187204 C498.641446,5.85676488 498.075787,5.46401334 497.562587,5.01431628 L497.397962,4.87039942 L497.562587,4.72613743 Z M510.215882,4.78411832 C508.424686,2.98878133 506.039877,2 503.500106,2 C500.960336,2 498.575527,2.98878133 496.784331,4.78411832 C494.988649,6.58325168 493.999868,8.96840623 493.999868,11.4998935 C493.999868,14.0393187 494.988649,16.4244732 496.783986,18.2156687 C498.58312,20.0113508 500.968274,21.0001321 503.500106,21.0001321 C506.039532,21.0001321 508.424341,20.0113508 510.215882,18.2160138 C512.011219,16.4168805 513,14.0317259 513,11.4998935 C513,8.96046837 512.011219,6.57565895 510.215882,4.78411832 L510.215882,4.78411832 Z" id="Icon" fill="#FFFFFF" opacity="0.738572761"></path>
                            <path d="M253.15411,5.91512371 L244.520373,5.13557945 C244.388975,5.12262916 244.281898,5.21928254 244.270527,5.34404753 C244.259156,5.47039182 244.352651,5.58220651 244.478995,5.5935775 L252.371091,6.30647514 L244.499842,10.2424156 L234.744484,5.36457848 L244.499842,0.48674137 L254.2552,5.36457848 L253.15411,5.91512371 Z M253.914387,11.441107 C253.914387,11.833406 253.595367,12.1527412 253.203068,12.1527412 C252.810453,12.1527412 252.491434,11.833406 252.491434,11.441107 C252.491434,11.0503873 252.80919,10.731368 253.19991,10.7294728 L253.202753,10.7294728 C253.596631,10.731368 253.914387,11.0503873 253.914387,11.441107 L253.914387,11.441107 Z M253.99651,15.1256223 L252.40931,15.1256223 L253.203068,13.0320975 L253.99651,15.1256223 Z M250.893179,10.8757163 C250.893179,11.6574716 250.232398,12.4357524 249.080138,13.0118824 C247.8606,13.6218094 246.233917,13.9575694 244.499842,13.9575694 C242.765767,13.9575694 241.139084,13.6218094 239.919546,13.0118824 C238.767286,12.4357524 238.106821,11.6574716 238.106821,10.8757163 L238.106821,7.55981048 L244.396871,10.7051515 C244.460359,10.7370535 244.539009,10.7370535 244.602813,10.7051515 L250.893179,7.55981048 L250.893179,10.8757163 Z M254.872708,5.15832143 L244.602813,0.023689554 C244.539009,-0.00789651801 244.460675,-0.00789651801 244.396871,0.023689554 L234.126976,5.15863729 C234.048958,5.19780402 234,5.2767692 234,5.36457848 C234,5.4520719 234.048643,5.53072122 234.126976,5.56988794 L237.646612,7.32986388 L237.646612,10.8757163 C237.646612,12.8618485 240.657081,14.4174626 244.499842,14.4174626 C248.342919,14.4174626 251.353388,12.8618485 251.353388,10.8757163 L251.353388,7.32986388 L252.972806,6.51999699 L252.972806,10.2815823 L252.826247,10.3318042 C252.35056,10.4935249 252.031225,10.9395202 252.031225,11.441107 C252.031225,11.8899451 252.294021,12.3053019 252.700534,12.4995563 L252.880259,12.5851545 L251.860976,15.2740769 C251.834128,15.3448297 251.84392,15.4237948 251.886877,15.4860194 C251.93015,15.5485598 252.000902,15.5858314 252.076077,15.5858314 L254.329744,15.5858314 C254.405234,15.5858314 254.475987,15.5485598 254.518944,15.4863353 C254.562217,15.4241107 254.571693,15.3448297 254.544845,15.2740769 L253.525878,12.5851545 L253.705603,12.4995563 C254.112116,12.3049861 254.374912,11.8899451 254.374912,11.441107 C254.374912,10.9395202 254.055261,10.4938407 253.579574,10.3318042 L253.433015,10.2815823 L253.433015,6.29005039 L254.873024,5.57020381 C254.951042,5.53103708 255,5.4520719 255,5.36457848 C255,5.2767692 254.951042,5.19780402 254.872708,5.15832143 L254.872708,5.15832143 Z" id="Icon" fill="#FFFFFF" opacity="0.738572761"></path>
                            <path d="M10.3979378,12.6870631 C10.3450257,12.7571358 10.277261,12.7968127 10.2009096,12.8070219 L10.16285,12.8093422 C10.1180603,12.8093422 10.0512239,12.7986689 9.98670814,12.7487827 L7.57293826,10.7377912 L12.2426698,6.53552192 L13.5162751,8.23304288 L10.3979378,12.6870631 Z M8.53533646,12.7564397 C8.53533646,12.9142191 8.40676915,13.0427629 8.24849677,13.0427629 L6.23597755,13.0427629 C6.07793724,13.0427629 5.94936994,12.9142191 5.94936994,12.7564397 L5.94936994,12.1028152 L7.24223716,11.0257386 L8.53533646,12.1028152 L8.53533646,12.7564397 Z M9.04009076,17.3413241 L9.13825677,20.3829865 L5.56993395,16.8150833 L6.40515727,13.4757282 L8.07954912,13.4757282 L9.04009076,17.3413241 Z M9.22249852,22.9826345 L5.38590169,19.1465063 L5.44554392,17.3030393 L9.15867901,21.0152643 L9.22249852,22.9826345 Z M9.40676285,28.7005143 L5.21300883,24.5072942 L5.36687187,19.7398033 L9.24245662,23.6149123 L9.40676285,28.7005143 Z M9.49077253,31.2996983 L5.13433678,26.9440581 L5.19397902,25.1003592 L9.42695302,29.3327922 L9.49077253,31.2996983 Z M9.53881121,32.792338 L7.24223716,35.0884926 L4.94566311,32.792338 L5.11530697,27.5373551 L9.51119477,31.9322081 L9.53881121,32.792338 Z M4.43441082,12.8019173 L4.32162434,12.8093422 C4.31094908,12.8093422 4.30004174,12.8086461 4.2884382,12.807486 C4.20721337,12.7968127 4.13944865,12.7571358 4.09257032,12.6949521 L0.968199214,8.23304288 L2.24157248,6.53552192 L6.91176814,10.7377912 L4.43441082,12.8019173 Z M11.710067,6.4329653 L7.24223716,10.4526281 L2.77487151,6.4329653 L11.710067,6.4329653 Z M13.9565137,8.09893037 L12.4471243,6.08654665 C12.4106891,6.03805268 12.3554563,6.00696086 12.2953499,6.00116014 L2.21070704,6 C2.12925014,6.00696086 2.07401726,6.03805268 2.03735005,6.08677868 L0.527960634,8.09893037 C0.471799466,8.17387559 0.47017497,8.27596816 0.523783357,8.35300164 L3.73216415,12.9351017 C3.84727133,13.0996099 4.02735839,13.2091274 4.22624318,13.2358107 C4.42443177,13.2615659 4.62888627,13.2030947 4.78274931,13.0752469 L5.44159871,12.5264994 L5.53767608,12.9253565 C5.5782885,13.0947373 5.67993557,13.2434676 5.82312334,13.3444001 L5.96631112,13.4453325 L5.01969374,17.2313425 C5.01621267,17.2459603 5.01389197,17.2615062 5.01342782,17.2772842 L4.51029802,32.8721558 C4.50820938,32.9320192 4.53141647,32.9902584 4.57318924,33.0324876 L7.08907034,35.5476772 C7.17075931,35.6286551 7.31348294,35.6293512 7.39540398,35.5474451 L9.91128508,33.0324876 C9.95328992,32.9902584 9.97649701,32.9320192 9.97440838,32.8723879 L9.47127857,17.2768201 C9.47081443,17.2615062 9.46849372,17.2459603 9.46478058,17.2313425 L8.51816321,13.4453325 L8.66158305,13.3444001 C8.80453875,13.2434676 8.90595375,13.0947373 8.94703031,12.9251244 L9.04357182,12.5267314 L9.70218916,13.075479 C9.85535598,13.2030947 10.0598105,13.2631901 10.2579991,13.2355787 C10.4571159,13.2091274 10.637203,13.0996099 10.7523102,12.9351017 L13.960923,8.35276961 C14.0145314,8.27596816 14.0129069,8.17387559 13.9565137,8.09893037 L13.9565137,8.09893037 Z" id="Icon" fill="#FFFFFF" opacity="0.738572761"></path>
                            <path d="M429.951324,85.8479073 L429.158968,85.0555198 L430.752685,83.4619171 L431.545041,84.2543046 L429.951324,85.8479073 Z M418.635667,98.008265 L416.996389,96.3691105 L417.133776,96.2319258 L428.463737,84.9038575 L430.103014,86.5428353 L418.635667,98.008265 Z M417.80764,98.8357872 C417.08698,99.5566691 416.238469,100.106467 415.285417,100.469998 L414.07013,100.933813 L414.53403,99.7187484 C414.897451,98.7664004 415.447349,97.9180444 416.168539,97.1971625 L416.724795,96.6408316 L418.363896,98.2799861 L417.80764,98.8357872 Z M430.888836,83.0544238 C430.815728,82.9816823 430.68929,82.9820354 430.616888,83.0544238 L428.887198,84.7837988 L428.59971,84.4963641 C428.56351,84.4601699 428.515124,84.4400424 428.463913,84.4400424 C428.412526,84.4400424 428.364317,84.4601699 428.32794,84.4963641 L415.896592,96.9252648 C415.137259,97.6846361 414.558046,98.5783672 414.174848,99.5819168 L413.64561,100.968595 C413.638723,100.986604 413.634838,101.006201 413.633779,101.027741 L413.629717,101.102425 L413.056155,101.675705 C412.981282,101.750742 412.981282,101.872566 413.056155,101.947603 C413.12891,102.019991 413.255348,102.019991 413.328103,101.947603 L413.901488,101.374146 L413.976008,101.370262 C413.997376,101.369379 414.017507,101.365142 414.035695,101.358256 L415.42245,100.829115 C416.425653,100.446339 417.319724,99.8672327 418.079587,99.1075083 L429.214064,87.975065 L429.292116,88.3184682 C429.388181,88.7430876 429.131774,89.3492075 428.6541,89.826794 L425.378194,93.1021013 C425.30332,93.1769615 425.30332,93.2989623 425.378371,93.3738224 C425.450772,93.4463873 425.57721,93.4462108 425.650142,93.3738224 L428.926047,90.0985151 C429.291057,89.7333954 429.547818,89.2999481 429.649003,88.8779771 C429.740123,88.4974969 429.69421,88.1480908 429.51974,87.894202 L429.42809,87.761078 L430.510582,86.6787841 C430.546959,86.6424134 430.566914,86.5942134 430.566914,86.5428353 C430.566914,86.4916338 430.546959,86.4432572 430.510758,86.407063 L430.223271,86.1196284 L431.952962,84.3902534 C432.027836,84.3152167 432.027836,84.1933924 431.952785,84.1183557 L430.888836,83.0544238 Z" id="Icon" fill="#FFFFFF" opacity="0.738572761"></path>
                            <g id="Icon" opacity="0.738572761" stroke-width="1" fill="none" transform="translate(112.000000, 47.000000)">
                                <g id="Group-3" transform="translate(4.952773, 0.165610)">
                                    <mask id="mask-5" fill="white">
                                        <use xlink:href="#path-4"></use>
                                    </mask>
                                    <g id="Clip-2"></g>
                                    <path d="M12.9613851,1.69160263 L12.9613851,2.49785951 L0.706648183,2.49785951 L0.706648183,1.69160263 C0.706648183,1.06724097 1.20575265,0.559172981 1.81899604,0.559172981 L11.8474614,0.559172981 C12.4616053,0.559172981 12.9613851,1.06724097 12.9613851,1.69160263 L12.9613851,1.69160263 Z M0.706648183,18.7232345 L12.9613851,18.7232345 L12.9613851,2.99101806 L0.706648183,2.99101806 L0.706648183,18.7232345 Z M12.9613851,19.2159343 L12.9613851,22.4567888 C12.9613851,23.0811504 12.4616053,23.588989 11.8474614,23.588989 L1.81899604,23.588989 C1.20575265,23.588989 0.706648183,23.0811504 0.706648183,22.4567888 L0.706648183,19.2159343 L12.9613851,19.2159343 Z M11.8474614,0.0637206719 L1.81899604,0.0637206719 C0.937627519,0.0637206719 0.220601024,0.794054075 0.220601024,1.69160263 L0.220601024,22.4567888 C0.220601024,23.3541079 0.937627519,24.0844413 1.81899604,24.0844413 L11.8474614,24.0844413 C12.7286048,24.0844413 13.4454062,23.3541079 13.4454062,22.4567888 L13.4454062,1.69160263 C13.4454062,0.794054075 12.7286048,0.0637206719 11.8474614,0.0637206719 L11.8474614,0.0637206719 Z" id="Fill-1" fill="#FFFFFF" mask="url(#mask-5)"></path>
                                </g>
                                <path d="M10.8341015,21.5680941 C10.8341015,21.034336 11.2613907,20.5998977 11.7866098,20.5998977 C12.3109284,20.5998977 12.7375423,21.034336 12.7375423,21.5680941 C12.7375423,22.1032285 12.3109284,22.539043 11.7866098,22.539043 C11.2613907,22.539043 10.8341015,22.1032285 10.8341015,21.5680941 M11.7866098,23.034266 C12.5790536,23.034266 13.2233643,22.3766448 13.2233643,21.5680941 C13.2233643,20.7611491 12.5790536,20.1046748 11.7866098,20.1046748 C10.9946164,20.1046748 10.3503056,20.7611491 10.3503056,21.5680941 C10.3503056,22.3766448 10.9946164,23.034266 11.7866098,23.034266" id="Fill-4" fill="#FFFFFF"></path>
                                <path d="M11.7866999,1.44511511 L10.1946084,1.44511511 C10.0608835,1.44511511 9.95169739,1.55613313 9.95169739,1.69284126 C9.95169739,1.8295494 10.0608835,1.94056742 10.1946084,1.94056742 L11.7866999,1.94056742 C11.920875,1.94056742 12.029836,1.8295494 12.029836,1.69284126 C12.029836,1.55613313 11.920875,1.44511511 11.7866999,1.44511511" id="Fill-6" fill="#FFFFFF"></path>
                                <path d="M13.3787238,1.44511511 L12.9802507,1.44511511 C12.8463007,1.44511511 12.7375648,1.55613313 12.7375648,1.69284126 C12.7375648,1.8295494 12.8463007,1.94056742 12.9802507,1.94056742 L13.3787238,1.94056742 C13.512899,1.94056742 13.62186,1.8295494 13.62186,1.69284126 C13.62186,1.55613313 13.512899,1.44511511 13.3787238,1.44511511" id="Fill-8" fill="#FFFFFF"></path>
                                <g id="Group-12" transform="translate(21.837228, 1.771242)">
                                    <mask id="mask-7" fill="white">
                                        <use xlink:href="#path-6"></use>
                                    </mask>
                                    <g id="Clip-11"></g>
                                    <path d="M0.434110578,0.265456924 C0.342709398,0.17233024 0.182194519,0.17233024 0.0896677089,0.2656863 C-0.00420985728,0.361794873 -0.00398473123,0.517999976 0.0898928349,0.613879173 C1.63763448,2.19038089 1.63763448,4.75732848 0.0898928349,6.33589459 C-0.00398473123,6.43200316 -0.00398473123,6.58843764 0.090343087,6.68477559 C0.133792416,6.72881579 0.19637746,6.75450591 0.262114269,6.75450591 L0.262339395,6.75450591 C0.327851078,6.75450591 0.390436122,6.72881579 0.433885451,6.68477559 C1.27428103,5.82920285 1.73691507,4.68989192 1.73691507,3.47580438 C1.73691507,2.26194623 1.27428103,1.12171779 0.434110578,0.265456924" id="Fill-10" fill="#FFFFFF" mask="url(#mask-7)"></path>
                                </g>
                                <path d="M20.2520025,2.9599376 C20.2063019,3.00627157 20.1813129,3.06820311 20.1813129,3.13380466 C20.1813129,3.1996356 20.2063019,3.26133776 20.2517774,3.3079011 C20.7738447,3.84234734 21.0611055,4.55111939 21.0611055,5.3034729 C21.0611055,6.05582641 20.7738447,6.76299283 20.2517774,7.2951453 C20.1572244,7.39194201 20.1572244,7.54906461 20.2517774,7.64540256 C20.2959021,7.6901309 20.3584871,7.71559164 20.4237737,7.71559164 C20.4890602,7.71559164 20.5516453,7.6901309 20.59577,7.64540256 C21.2081129,7.01943527 21.5453517,6.18771764 21.5453517,5.3034729 C21.5453517,4.41624627 21.2081129,3.58384051 20.5955448,2.95970823 C20.5021175,2.86635217 20.3429534,2.86635217 20.2520025,2.9599376" id="Fill-13" fill="#FFFFFF"></path>
                                <g id="Group-17" transform="translate(0.000000, 1.771242)">
                                    <mask id="mask-9" fill="white">
                                        <use xlink:href="#path-8"></use>
                                    </mask>
                                    <g id="Clip-16"></g>
                                    <path d="M1.64436575,0.613925048 C1.73846844,0.518045851 1.73846844,0.361611372 1.64436575,0.265273424 C1.55296457,0.172376116 1.39380045,0.172605492 1.30239927,0.2655028 C-0.434223141,2.03559792 -0.434223141,4.91495571 1.30239927,6.68459208 C1.34697423,6.73000855 1.40753314,6.75501054 1.47326995,6.75501054 C1.53810625,6.75501054 1.6006913,6.72909104 1.64459088,6.68436271 C1.73846844,6.58825414 1.73846844,6.43227841 1.64459088,6.33594046 C0.0972994822,4.75943874 0.0970743562,2.19249115 1.64436575,0.613925048" id="Fill-15" fill="#FFFFFF" mask="url(#mask-9)"></path>
                                </g>
                                <path d="M3.32196011,2.84678639 C3.23010868,2.75320095 3.07004405,2.75320095 2.97819262,2.84701577 C2.36427386,3.47206555 2.02635965,4.30447131 2.02635965,5.19078044 C2.02635965,6.07754832 2.36427386,6.90926594 2.97819262,7.53293948 C3.02164195,7.57697968 3.08422699,7.6026698 3.1499638,7.6026698 C3.21570061,7.6026698 3.27828566,7.57697968 3.32218524,7.5327101 C3.41628793,7.43660153 3.41628793,7.2806258 3.32196011,7.18451723 C2.80011791,6.65442913 2.51285706,5.94657458 2.51285706,5.19078044 C2.51285706,4.43475691 2.80011791,3.72690237 3.32218524,3.19704365 C3.41651306,3.10047632 3.41673818,2.94335371 3.32196011,2.84678639" id="Fill-18" fill="#FFFFFF"></path>
                            </g>
                            <g id="Icon" opacity="0.738572761" stroke-width="1" fill="none" transform="translate(799.000000, 66.000000)">
                                <path d="M4.29303262,8.78348637 C4.29303262,8.92130515 4.37477759,9.03335072 4.47508301,9.03335072 L12.7327072,9.03335072 C12.8332101,9.03335072 12.9147576,8.92130515 12.9147576,8.78348637 C12.9147576,8.6456676 12.8332101,8.53335072 12.7327072,8.53335072 L4.47508301,8.53335072 C4.37477759,8.53335072 4.29303262,8.6456676 4.29303262,8.78348637" id="Fill-1" fill="#FFFFFF"></path>
                                <path d="M4.47510276,6.36738233 L7.77827092,6.36738233 C7.87857634,6.36738233 7.96032131,6.25466399 7.96032131,6.1160177 C7.96032131,5.97900897 7.87857634,5.86738233 7.77827092,5.86738233 L4.47510276,5.86738233 C4.37479734,5.86738233 4.29305237,5.97900897 4.29305237,6.1160177 C4.29305237,6.25466399 4.37479734,6.36738233 4.47510276,6.36738233" id="Fill-3" fill="#FFFFFF"></path>
                                <path d="M12.7327862,11.1995583 L4.47516199,11.1995583 C4.37465912,11.1995583 4.2931116,11.3116647 4.2931116,11.4495583 C4.2931116,11.5874518 4.37465912,11.6995583 4.47516199,11.6995583 L12.7327862,11.6995583 C12.8330916,11.6995583 12.9148366,11.5874518 12.9148366,11.4495583 C12.9148366,11.3116647 12.8330916,11.1995583 12.7327862,11.1995583" id="Fill-5" fill="#FFFFFF"></path>
                                <path d="M12.7327862,13.8677785 L4.47516199,13.8677785 C4.37465912,13.8677785 4.2931116,13.9804969 4.2931116,14.1191431 C4.2931116,14.2561519 4.37465912,14.3677785 4.47516199,14.3677785 L12.7327862,14.3677785 C12.8330916,14.3677785 12.9148366,14.2561519 12.9148366,14.1191431 C12.9148366,13.9804969 12.8330916,13.8677785 12.7327862,13.8677785" id="Fill-7" fill="#FFFFFF"></path>
                                <path d="M12.7327862,16.533727 L4.47516199,16.533727 C4.37465912,16.533727 4.2931116,16.6460439 4.2931116,16.7838626 C4.2931116,16.9214101 4.37465912,17.033727 4.47516199,17.033727 L12.7327862,17.033727 C12.8330916,17.033727 12.9148366,16.9214101 12.9148366,16.7838626 C12.9148366,16.6460439 12.8330916,16.533727 12.7327862,16.533727" id="Fill-9" fill="#FFFFFF"></path>
                                <g id="Group-13" transform="translate(0.000000, 0.172317)">
                                    <mask id="mask-11" fill="white">
                                        <use xlink:href="#path-10"></use>
                                    </mask>
                                    <g id="Clip-12"></g>
                                    <path d="M14.9371756,6.36052072 L10.9324618,6.36052072 L10.9324618,2.31872292 L14.9371756,6.36052072 Z M15.1944551,19.3611521 L2.01554665,19.3611521 L2.01554665,2.06105383 L10.570533,2.06105383 L10.570533,6.72779384 L15.1944551,6.72779384 L15.1944551,19.3611521 Z M1.65144586,17.6943738 L0.363863846,17.6943738 L0.363863846,0.394275562 L13.5429697,0.394275562 L13.5429697,4.4356748 L10.8260354,1.69378071 L1.65144586,1.69378071 L1.65144586,17.6943738 Z M13.9048985,0.0270024456 L-3.94903254e-05,0.0270024456 L-3.94903254e-05,18.0618462 L1.65144586,18.0618462 L1.65144586,19.7288237 L15.5563839,19.7288237 L15.5563839,6.46793266 L13.9048985,4.8011544 L13.9048985,0.0270024456 Z" id="Fill-11" fill="#FFFFFF" mask="url(#mask-11)"></path>
                                </g>
                            </g>
                            <g id="Logotype" stroke-width="1" fill="none" transform="translate(236.000000, 36.000000)">
                                <text id="--connecting-and-nav" font-family="Effra-Light, Effra" font-size="16" font-weight="300" fill="#FFFFFF">
                                    <tspan x="100" y="17">- connecting and navigating intellects</tspan>
                                </text>
                                <g id="Eduible">
                                    <path d="M37.53646,12.5237922 C37.5037489,11.6571255 36.8679267,10.8567333 35.7813044,10.8567333 C34.6783267,10.8567333 33.9765711,11.5735176 33.8763933,12.5237922 L37.53646,12.5237922 Z M31.5370378,13.3741451 C31.5370378,10.9566549 33.2415933,9.0066549 35.8825044,9.0066549 C38.40586,9.0066549 39.85946,11.0402627 39.85946,13.4072824 L39.85946,14.0241451 L33.8763933,14.0241451 C34.1273489,15.2079098 35.2471933,15.7579882 36.6675711,15.7579882 C37.6703711,15.7579882 38.58986,15.4577137 39.3411933,15.0243804 L39.3411933,16.9081059 C38.6563044,17.4245373 37.4531489,17.7584588 36.16566,17.7584588 C33.6423044,17.7584588 31.5370378,16.0914 31.5370378,13.3741451 Z" id="Fill-1" fill="#FFFFFF"></path>
                                    <path d="M47.7816311,14.4574275 L47.7816311,12.290251 C47.4304978,11.640251 46.6786533,11.0565255 45.7090756,11.0565255 C44.3888756,11.0565255 43.4530311,12.0735843 43.4530311,13.3740941 C43.4530311,14.6909176 44.3888756,15.7074667 45.7090756,15.7074667 C46.6786533,15.7074667 47.4304978,15.1247608 47.7816311,14.4574275 M41.1131644,13.3740941 C41.1131644,10.9402902 42.7344089,9.00660392 45.0410533,9.00660392 C46.4450756,9.00660392 47.3134533,9.63978039 47.7816311,10.2403294 L47.7816311,5.87232941 L50.1383644,5.87232941 L50.1383644,17.5417412 L47.7816311,17.5417412 L47.7816311,16.5246824 C47.3134533,17.1415451 46.4450756,17.7584078 45.0410533,17.7584078 C42.7344089,17.7584078 41.1131644,15.8247216 41.1131644,13.3740941" id="Fill-3" fill="#FFFFFF"></path>
                                    <path d="M60.4835089,9.22301569 L60.4835089,17.5414863 L58.1267756,17.5414863 L58.1267756,16.541251 C57.5415533,17.1749373 56.6563089,17.7581529 55.3355978,17.7581529 C53.3800867,17.7581529 52.2939756,16.4245059 52.2939756,14.3241137 L52.2939756,9.22301569 L54.6507089,9.22301569 L54.6507089,13.8408196 C54.6507089,15.2743882 55.5190867,15.6078 56.2377089,15.6078 C57.00642,15.6078 57.74242,15.1076824 58.1267756,14.5239569 L58.1267756,9.22301569 L60.4835089,9.22301569 Z" id="Fill-5" fill="#FFFFFF"></path>
                                    <mask id="mask-13" fill="white">
                                        <use xlink:href="#path-12"></use>
                                    </mask>
                                    <g id="Clip-8"></g>
                                    <path d="M62.9065333,17.5414863 L65.2632667,17.5414863 L65.2632667,9.22301569 L62.9065333,9.22301569 L62.9065333,17.5414863 Z M62.6729556,7.02270196 C62.6729556,6.2223098 63.2908889,5.60544706 64.0764667,5.60544706 C64.8620444,5.60544706 65.4804889,6.2223098 65.4804889,7.02270196 C65.4804889,7.80627059 64.8620444,8.42313333 64.0764667,8.42313333 C63.2908889,8.42313333 62.6729556,7.80627059 62.6729556,7.02270196 L62.6729556,7.02270196 Z" id="Fill-7" fill="#FFFFFF" mask="url(#mask-13)"></path>
                                    <path d="M74.3713689,13.3740941 C74.3713689,12.0735843 73.4360356,11.0565255 72.1153244,11.0565255 C71.1457467,11.0565255 70.3944133,11.640251 70.0427689,12.290251 L70.0427689,14.4574275 C70.3944133,15.1247608 71.1457467,15.7074667 72.1153244,15.7074667 C73.4360356,15.7074667 74.3713689,14.6909176 74.3713689,13.3740941 M70.0427689,16.5246824 L70.0427689,17.5417412 L67.6865467,17.5417412 L67.6865467,5.87232941 L70.0427689,5.87232941 L70.0427689,10.2403294 C70.5109467,9.63978039 71.3798356,9.00660392 72.7843689,9.00660392 C75.0899911,9.00660392 76.7112356,10.9402902 76.7112356,13.3740941 C76.7112356,15.8247216 75.0899911,17.7584078 72.7843689,17.7584078 C71.3798356,17.7584078 70.5109467,17.1415451 70.0427689,16.5246824" id="Fill-9" fill="#FFFFFF" mask="url(#mask-13)"></path>
                                    <path d="M78.4492689,15.4576627 L78.4492689,5.87232941 L80.8060022,5.87232941 L80.8060022,14.8408 C80.8060022,15.441349 81.14078,15.6748392 81.5578467,15.6748392 C81.77558,15.6748392 81.9928022,15.6243686 82.1599356,15.5244471 L82.1599356,17.4581333 C81.7587133,17.6579765 81.2240911,17.7584078 80.6726022,17.7584078 C79.5358911,17.7584078 78.4492689,17.2582902 78.4492689,15.4576627" id="Fill-10" fill="#FFFFFF" mask="url(#mask-13)"></path>
                                    <path d="M89.2125533,12.5237922 C89.1798422,11.6571255 88.54402,10.8567333 87.4573978,10.8567333 C86.35442,10.8567333 85.6526644,11.5735176 85.5524867,12.5237922 L89.2125533,12.5237922 Z M83.2131311,13.3741451 C83.2131311,10.9566549 84.9176867,9.0066549 87.5585978,9.0066549 C90.0819533,9.0066549 91.5355533,11.0402627 91.5355533,13.4072824 L91.5355533,14.0241451 L85.5524867,14.0241451 C85.8034422,15.2079098 86.9232867,15.7579882 88.3436644,15.7579882 C89.3464644,15.7579882 90.2659533,15.4577137 91.0172867,15.0243804 L91.0172867,16.9081059 C90.3323978,17.4245373 89.1292422,17.7584588 87.8417533,17.7584588 C85.3183978,17.7584588 83.2131311,16.0914 83.2131311,13.3741451 L83.2131311,13.3741451 Z" id="Fill-11" fill="#FFFFFF" mask="url(#mask-13)"></path>
                                </g>
                                <g id="Sign" transform="translate(10.000000, 5.000000)" fill="#FFFFFF">
                                    <path d="M2.35840821,7.93289412 C2.35840821,4.85587451 4.86835692,2.3523451 7.95326632,2.3523451 L7.95326632,3.13725486e-05 C3.56777573,3.13725486e-05 6.29059832e-05,3.55861961 6.29059832e-05,7.93289412 C6.29059832e-05,12.3071686 3.56777573,15.8657569 7.95326632,15.8657569 L7.95326632,13.5134431 C4.86835692,13.5134431 2.35840821,11.0099137 2.35840821,7.93289412" id="Fill-12"></path>
                                    <path d="M7.95310906,10.3708549 L7.95310906,5.49493333 C6.60314667,5.49493333 5.50889709,6.58638431 5.50889709,7.93289412 C5.50889709,9.27940392 6.60314667,10.3708549 7.95310906,10.3708549 Z" id="Fill-13"></path>
                                    <path d="M13.5479986,7.93289412 C13.5479986,11.0099137 11.0380499,13.5134431 7.95314051,13.5134431 L7.95314051,15.8657569 C12.3386311,15.8657569 15.9063439,12.3071686 15.9063439,7.93289412 C15.9063439,3.55861961 12.3386311,3.13725486e-05 7.95314051,3.13725486e-05 L7.95314051,2.3523451 C11.0380499,2.3523451 13.5479986,4.85587451 13.5479986,7.93289412" id="Fill-14" opacity="0.355818563"></path>
                                    <path d="M10.3975097,7.93292549 C10.3975097,6.58641569 9.30326017,5.49496471 7.95329778,5.49496471 L7.95329778,10.3708863 C9.30326017,10.3708863 10.3975097,9.27943529 10.3975097,7.93292549" id="Fill-15" opacity="0.355818563"></path>
                                </g>
                            </g>
                        </g>
                    </g>
                </g>
            </g>
        </g>
    </g>
</svg>